STARTFONT 2.1
COMMENT
COMMENT Converted from OpenType font "Patriot-Normal.otf" by "otf2bdf 3.0".
COMMENT
FONT -FreeType-Patriot Normal-Medium-R-Normal--50-360-100-100-P-233-ISO10646-1
SIZE 36 100 100
FONTBOUNDINGBOX 77 65 -17 -13
STARTPROPERTIES 19
FOUNDRY "FreeType"
FAMILY_NAME "Patriot Normal"
WEIGHT_NAME "Medium"
SLANT "R"
SETWIDTH_NAME "Normal"
ADD_STYLE_NAME ""
PIXEL_SIZE 50
POINT_SIZE 360
RESOLUTION_X 100
RESOLUTION_Y 100
SPACING "P"
AVERAGE_WIDTH 233
CHARSET_REGISTRY "ISO10646"
CHARSET_ENCODING "1"
FONT_ASCENT 50
FONT_DESCENT 10
COPYRIGHT "Copyright © 2020 by Behalf Studio. All rights reserved."
_OTF_FONTFILE "Patriot-Normal.otf"
_OTF_PSNAME "Patriot-Normal"
ENDPROPERTIES
CHARS 426
STARTCHAR 0020
ENCODING 32
SWIDTH 340 0
DWIDTH 17 0
BBX 0 0 0 0
BITMAP
ENDCHAR
STARTCHAR 0021
ENCODING 33
SWIDTH 240 0
DWIDTH 12 0
BBX 7 35 3 -1
BITMAP
78
78
78
78
78
78
78
78
78
78
78
78
78
78
78
78
78
78
78
78
78
78
78
00
00
00
00
00
00
78
FC
FC
FE
FC
7C
ENDCHAR
STARTCHAR 0022
ENCODING 34
SWIDTH 280 0
DWIDTH 14 0
BBX 9 11 3 24
BITMAP
E380
E380
E380
E380
E380
E380
E380
E380
E380
E380
E380
ENDCHAR
STARTCHAR 0023
ENCODING 35
SWIDTH 620 0
DWIDTH 31 0
BBX 26 35 3 0
BITMAP
00E01C00
00E01C00
00E01C00
01E01C00
01C01C00
01C01C00
01C03C00
01C03800
01C03800
01C03800
03C03800
7FFFFFC0
7FFFFFC0
7FFFFFC0
03807000
03807000
03807000
07807000
07807000
07007000
0700F000
0700E000
FFFFFF00
FFFFFF00
FFFFFF00
0F00E000
0E00E000
0E01E000
0E01C000
0E01C000
0E01C000
0E01C000
1E01C000
1C01C000
1C03C000
ENDCHAR
STARTCHAR 0024
ENCODING 36
SWIDTH 520 0
DWIDTH 26 0
BBX 21 43 3 -4
BITMAP
007000
007000
007000
00F800
07FF00
0FFF80
1FFFC0
3E77E0
3C71E0
3C70F0
7870F0
7870F0
787040
3C7000
3C7000
3E7000
1F7000
0FF000
07F000
03F800
00FE00
007F00
007F80
0077C0
0073E0
0071F0
0070F0
007078
007078
207078
E07078
F07078
F07078
7870F0
7C71F0
3E73F0
1FFFE0
0FFFC0
07FF00
00F800
007000
007000
007000
ENDCHAR
STARTCHAR 0025
ENCODING 37
SWIDTH 840 0
DWIDTH 42 0
BBX 37 37 3 -1
BITMAP
03C0000000
0FF8000F00
3FFC000E00
7C3E001C00
781F003C00
F00F003800
E007007000
E00700F000
E00781E000
E00701C000
E007038000
F00F078000
700F070000
7C3E0E0000
3FFC1E0000
1FF81C0000
07C0380000
0000780000
0000F00000
0000E00000
0001C03E00
0003C1FF80
000383FFC0
000707C3E0
000F0780F0
000E0F0070
001C0E0070
003C0E0078
00780E0078
00700E0078
00E00E0070
01E00F00F0
01C00780F0
038007E3E0
078003FFC0
070000FF80
0000003C00
ENDCHAR
STARTCHAR 0026
ENCODING 38
SWIDTH 640 0
DWIDTH 32 0
BBX 27 37 3 -1
BITMAP
00200000
03FE0000
0FFF8000
1FFFC000
1F07E000
3C01F000
3C00F000
78006000
78004000
78000000
78000000
78000000
78000000
3C000000
3E000000
1FE00000
0FFFFFE0
0FFFFFE0
1FFFFFE0
3F000F00
7C000F00
F8000F00
F0000F00
F0000F00
F0000F00
E0000E00
F0001E00
F0001E00
F0003C00
F8003C00
78007C00
7C00F800
3F03F000
1FFFE000
0FFFC000
03FF0000
00100000
ENDCHAR
STARTCHAR 0027
ENCODING 39
SWIDTH 160 0
DWIDTH 8 0
BBX 2 11 3 24
BITMAP
C0
C0
C0
C0
C0
C0
C0
C0
C0
C0
C0
ENDCHAR
STARTCHAR 0028
ENCODING 40
SWIDTH 300 0
DWIDTH 15 0
BBX 10 47 3 -7
BITMAP
0100
0180
03C0
0780
0700
0F00
0E00
1E00
1C00
3C00
3800
3800
7800
7000
7000
F000
E000
E000
E000
E000
E000
E000
E000
E000
E000
E000
E000
E000
E000
E000
E000
F000
7000
7000
7800
3800
3800
3C00
1C00
1E00
0E00
0F00
0700
0780
03C0
0180
0100
ENDCHAR
STARTCHAR 0029
ENCODING 41
SWIDTH 300 0
DWIDTH 15 0
BBX 10 45 3 -6
BITMAP
E000
F000
7000
7800
3800
3C00
1C00
1E00
0E00
0F00
0700
0700
0780
0380
0380
0380
03C0
01C0
01C0
01C0
01C0
01C0
01C0
01C0
01C0
01C0
01C0
01C0
03C0
0380
0380
0380
0780
0700
0700
0F00
0E00
1E00
1C00
3C00
3800
7800
7000
F000
E000
ENDCHAR
STARTCHAR 002A
ENCODING 42
SWIDTH 440 0
DWIDTH 22 0
BBX 17 17 3 18
BITMAP
018000
03C000
03C000
03C000
03C000
61C700
F9DF80
FDBF80
FFFF00
1FFC00
03E000
0F7000
1F7800
1E7C00
3E3C00
3C3C00
181C00
ENDCHAR
STARTCHAR 002B
ENCODING 43
SWIDTH 540 0
DWIDTH 27 0
BBX 22 22 3 6
BITMAP
007000
007000
007000
007000
007000
007000
007000
007000
007000
007000
FFFFFC
FFFFFC
FFFFFC
007000
007000
007000
007000
007000
007000
007000
007000
007000
ENDCHAR
STARTCHAR 002C
ENCODING 44
SWIDTH 240 0
DWIDTH 12 0
BBX 7 10 3 -6
BITMAP
1E
1E
3C
3C
38
70
70
E0
E0
C0
ENDCHAR
STARTCHAR 002D
ENCODING 45
SWIDTH 440 0
DWIDTH 22 0
BBX 16 3 3 10
BITMAP
FFFF
FFFF
FFFF
ENDCHAR
STARTCHAR 002E
ENCODING 46
SWIDTH 240 0
DWIDTH 12 0
BBX 7 6 3 -1
BITMAP
78
FC
FC
FE
FC
7C
ENDCHAR
STARTCHAR 002F
ENCODING 47
SWIDTH 360 0
DWIDTH 18 0
BBX 13 37 3 -1
BITMAP
0038
0038
0078
0070
0070
0070
00E0
00E0
00E0
01E0
01C0
01C0
01C0
0380
0380
0380
0780
0700
0700
0700
0E00
0E00
0E00
1E00
1C00
1C00
1C00
3800
3800
3800
7800
7000
7000
7000
E000
E000
E000
ENDCHAR
STARTCHAR 0030
ENCODING 48
SWIDTH 680 0
DWIDTH 34 0
BBX 31 37 2 -1
BITMAP
0007C000
007FFC00
01FFFF00
03FFFF80
07E00FC0
0F8003E0
1F0001F0
3E0000F8
3C000078
7800003C
7800003C
F000001C
F000001E
F000001E
F000001E
E000001E
E000000E
E000000E
E000000E
E000000E
E000000E
E000001E
F000001E
F000001E
F000001E
7000001C
7800003C
7800003C
3C000078
3E0000F8
1F0001F0
0F8003E0
07E00FC0
03FFFF80
01FFFF00
007FFC00
000FC000
ENDCHAR
STARTCHAR 0031
ENCODING 49
SWIDTH 260 0
DWIDTH 13 0
BBX 9 35 2 0
BITMAP
0780
0780
0780
FF80
FF80
FF80
0780
0780
0780
0780
0780
0780
0780
0780
0780
0780
0780
0780
0780
0780
0780
0780
0780
0780
0780
0780
0780
0780
0780
0780
0780
0780
0780
0780
0780
ENDCHAR
STARTCHAR 0032
ENCODING 50
SWIDTH 520 0
DWIDTH 26 0
BBX 23 36 2 0
BITMAP
007C00
03FF80
0FFFC0
1FFFE0
3F01F0
7C00F8
780078
78003C
F0003C
F0003C
F0001C
E0001C
00003C
00003C
00003C
000078
000078
0000F0
0001F0
0001E0
0003C0
000780
000F00
001E00
003E00
007C00
00F800
01F000
03E000
07C000
0F8000
1F0000
3E0000
7FFFFE
FFFFFE
FFFFFE
ENDCHAR
STARTCHAR 0033
ENCODING 51
SWIDTH 500 0
DWIDTH 25 0
BBX 23 36 2 -1
BITMAP
FFFFF8
FFFFF8
FFFFF0
0003E0
0007C0
000F80
001E00
003C00
007800
00F000
03E000
07FE00
0FFF80
1FFFC0
3F07E0
3C01F0
1000F8
000078
00003C
00003C
00001C
00001E
00001E
00001E
00001C
00001C
00003C
00003C
200078
6000F8
F801F0
7C03F0
7FFFE0
1FFF80
0FFF00
00F800
ENDCHAR
STARTCHAR 0034
ENCODING 52
SWIDTH 520 0
DWIDTH 26 0
BBX 24 35 1 0
BITMAP
0003F0
001FF0
007FF0
00FF70
03F870
07E070
0F8070
0F0070
1E0070
3E0070
3C0070
780070
780070
780070
F00070
F00070
F00070
F00070
E00070
E00070
E00070
FFFFFF
FFFFFF
FFFFFF
000070
000070
000070
000070
000070
000070
000070
000070
000070
000070
000070
ENDCHAR
STARTCHAR 0035
ENCODING 53
SWIDTH 520 0
DWIDTH 26 0
BBX 23 36 2 -1
BITMAP
3FFFF8
3FFFF8
3FFFF8
380000
780000
780000
780000
780000
780000
700000
700000
71FF00
77FFC0
7FFFE0
7F83F0
7C00F8
F8007C
30003C
00001E
00001E
00001E
00000E
00000E
00000E
00000E
00001E
00001E
00001C
00003C
70007C
F800F8
7E01F0
3FFFE0
1FFFC0
07FF00
00FC00
ENDCHAR
STARTCHAR 0036
ENCODING 54
SWIDTH 600 0
DWIDTH 30 0
BBX 27 36 2 -1
BITMAP
000F8000
000F0000
001E0000
003E0000
003C0000
00780000
00F00000
00F00000
01E00000
03C00000
07FFC000
07FFF000
0FFFFC00
1FC07E00
1F001F00
3E000F00
3C000780
780007C0
780003C0
F00003C0
F00001C0
F00001C0
F00001E0
F00001C0
F00001C0
F00003C0
700003C0
780003C0
7C000780
3C000F80
1F001F00
1F807E00
0FFFFC00
03FFF800
01FFE000
003F0000
ENDCHAR
STARTCHAR 0037
ENCODING 55
SWIDTH 420 0
DWIDTH 21 0
BBX 20 35 2 0
BITMAP
FFFFF0
FFFFF0
FFFFE0
0001E0
0001E0
0003C0
0003C0
000380
000780
000780
000F00
000F00
000E00
7FFFC0
7FFFC0
7FFFC0
7FFFC0
003800
007800
007000
00F000
00F000
00E000
01E000
01C000
03C000
03C000
038000
078000
070000
0F0000
0F0000
0E0000
1E0000
1C0000
ENDCHAR
STARTCHAR 0038
ENCODING 56
SWIDTH 560 0
DWIDTH 28 0
BBX 26 37 1 -1
BITMAP
001E0000
007FC000
01FFE000
03F3F000
03C0F000
07807800
07803800
07803800
07803800
07807800
03807800
03E0F000
01FFE000
01FFE000
07FFF800
0FE1FC00
1F003E00
3E001F00
3C000F00
78000780
78000780
700003C0
F00003C0
F00003C0
F00003C0
F00003C0
700003C0
78000380
78000780
7C000780
3C000F00
1E001F00
1F807E00
0FFFFC00
03FFF800
01FFE000
003F0000
ENDCHAR
STARTCHAR 0039
ENCODING 57
SWIDTH 580 0
DWIDTH 29 0
BBX 26 36 2 0
BITMAP
003E0000
01FFE000
07FFF000
0FFFFC00
1F807E00
3E003F00
7C000F00
78000F80
F0000780
F0000380
F00003C0
E00003C0
E00003C0
E00003C0
E00003C0
E00003C0
F00003C0
F0000780
78000780
78000F00
3C001F00
3E003E00
1FC0FE00
0FFFFC00
03FFF800
00FFF800
0000F000
0001E000
0003C000
0003C000
00078000
000F0000
000F0000
001E0000
003C0000
007C0000
ENDCHAR
STARTCHAR 003A
ENCODING 58
SWIDTH 240 0
DWIDTH 12 0
BBX 7 24 3 -1
BITMAP
30
FC
FC
FE
FC
FC
78
00
00
00
00
00
00
00
00
00
00
00
78
FC
FC
FE
FC
7C
ENDCHAR
STARTCHAR 003B
ENCODING 59
SWIDTH 260 0
DWIDTH 13 0
BBX 8 30 3 -6
BITMAP
1C
3F
3F
7F
7F
3F
1E
00
00
00
00
00
00
00
00
00
00
00
00
00
1E
1E
3C
3C
38
70
70
E0
E0
C0
ENDCHAR
STARTCHAR 003C
ENCODING 60
SWIDTH 540 0
DWIDTH 27 0
BBX 22 20 3 6
BITMAP
000004
00001C
0000FC
0007FC
001FE0
00FF00
03F800
1FE000
FF0000
F80000
E00000
FC0000
7F8000
1FE000
03FC00
007F80
001FE0
0003FC
00007C
00001C
ENDCHAR
STARTCHAR 003D
ENCODING 61
SWIDTH 540 0
DWIDTH 27 0
BBX 22 13 3 10
BITMAP
FFFFFC
FFFFFC
FFFFFC
000000
000000
000000
000000
000000
000000
000000
FFFFFC
FFFFFC
FFFFFC
ENDCHAR
STARTCHAR 003E
ENCODING 62
SWIDTH 540 0
DWIDTH 27 0
BBX 22 19 3 7
BITMAP
E00000
F80000
FF0000
1FE000
07F800
00FF00
001FE0
0007F8
0000FC
00003C
0000FC
0007F8
003FC0
01FF00
07F800
3FC000
FF0000
F80000
C00000
ENDCHAR
STARTCHAR 003F
ENCODING 63
SWIDTH 400 0
DWIDTH 20 0
BBX 15 36 3 0
BITMAP
0FF0
3FF8
7FFC
783C
F01E
E01E
E00E
001E
001E
001E
003C
003C
0078
00F0
01E0
01E0
03C0
0380
0780
0780
0700
0700
0700
0700
0000
0000
0000
0000
0000
0F80
0FC0
1FC0
1FC0
1FC0
0F80
0200
ENDCHAR
STARTCHAR 0040
ENCODING 64
SWIDTH 780 0
DWIDTH 39 0
BBX 34 37 3 -1
BITMAP
0000600000
001FFF0000
007FFFE000
00FC03F000
03E0007800
0780001C00
0F00000E00
1E00000700
1C00000700
3800E00380
7007FB8380
700FFF8180
601F0F01C0
E01C0701C0
E03C0701C0
E0380701C0
C0380701C0
C0780701C0
C078070380
C078070380
E0780F0380
E0780F0700
E03C1F0700
E03E3F1E00
701FF7FC00
700FE3F800
7001004000
3800000000
1C00000000
1E00000400
0F00000E00
0780001E00
03E0007C00
00FC03F000
007FFFE000
000FFF0000
0000A00000
ENDCHAR
STARTCHAR 0041
ENCODING 65
SWIDTH 540 0
DWIDTH 27 0
BBX 25 36 2 0
BITMAP
00F80000
03FF0000
0FFF8000
1FFFC000
1F03E000
3C01F000
7C00F000
78007000
78007800
70007800
70007800
70007800
F0007800
F0007800
F0007800
F0007800
F0007800
F0007800
F0007800
F0007800
F0007800
F0007800
F0007800
F0007800
F0007800
F0007800
F0007800
F0007800
F0007800
F0007800
F0007800
F0007800
F0007800
FFFFFF80
FFFFFF80
FFFFFF80
ENDCHAR
STARTCHAR 0042
ENCODING 66
SWIDTH 580 0
DWIDTH 29 0
BBX 26 35 2 0
BITMAP
1FFFC000
1FFFF800
1FFFFC00
1E03FE00
1E001F00
1E000F00
1E000780
1E000780
1E000780
1E000780
1E000780
1E000780
1E000780
1E000F00
1E003F00
FFFFFE00
FFFFFC00
FFFFFC00
FFFFFE00
1E001F00
1E000F80
1E000780
1E0003C0
1E0003C0
1E0003C0
1E0003C0
1E0003C0
1E0003C0
1E0007C0
1E000780
1E001F80
1FFFFF00
1FFFFE00
1FFFFC00
1FFFE000
ENDCHAR
STARTCHAR 0043
ENCODING 67
SWIDTH 680 0
DWIDTH 34 0
BBX 31 37 2 -1
BITMAP
0001F000
001FFF80
007FFFE0
01FFFFF0
03F803FC
07E0007E
0F80003E
1F00001E
3E000008
3C000000
7C000000
78000000
78000000
F0000000
F0000000
F0000000
E0000000
E0000000
E0000000
E0000000
E0000000
F0000000
F0000000
F0000000
78000000
78000000
7C000000
3C000000
3E000008
1F00001E
0F80003E
07E0007E
03F803FC
01FFFFF0
007FFFE0
001FFF80
0001F000
ENDCHAR
STARTCHAR 0044
ENCODING 68
SWIDTH 620 0
DWIDTH 31 0
BBX 27 35 3 0
BITMAP
FFF80000
FFFF8000
FFFFE000
E0FFF000
E001FC00
E0007E00
E0001F00
E0000F00
E0000780
E0000780
E00003C0
E00003C0
E00001E0
E00001E0
E00001E0
E00001E0
E00001E0
E00001E0
E00001E0
E00001E0
E00001E0
E00001E0
E00001E0
E00003C0
E00003C0
E00007C0
E0000780
E0000F00
E0003F00
E0007E00
E001FC00
FFFFF800
FFFFE000
FFFF8000
FFFC0000
ENDCHAR
STARTCHAR 0045
ENCODING 69
SWIDTH 480 0
DWIDTH 24 0
BBX 23 35 1 0
BITMAP
0FFFC0
0FFFC0
0FFFC0
0E0000
0E0000
0E0000
0E0000
0E0000
0E0000
0E0000
0E0000
0E0000
0E0000
0E0000
0E0000
0E0000
FFFFF0
FFFFF0
FFFFF0
0E0000
0E0000
0E0000
0E0000
0E0000
0E0000
0E0000
0E0000
0E0000
0E0000
0E0000
0E0000
0E0000
0FFFFE
0FFFFE
0FFFFE
ENDCHAR
STARTCHAR 0046
ENCODING 70
SWIDTH 440 0
DWIDTH 22 0
BBX 21 35 1 0
BITMAP
0FFFF8
0FFFF8
0FFFF8
0F0000
0F0000
0F0000
0F0000
0F0000
0F0000
0F0000
0F0000
0F0000
0F0000
0F0000
0F0000
0F0000
0F0000
FFFFF8
FFFFF8
FFFFF8
0F0000
0F0000
0F0000
0F0000
0F0000
0F0000
0F0000
0F0000
0F0000
0F0000
0F0000
0F0000
0F0000
0F0000
0F0000
ENDCHAR
STARTCHAR 0047
ENCODING 71
SWIDTH 820 0
DWIDTH 41 0
BBX 39 37 2 -1
BITMAP
0001F80000
001FFF8000
007FFFE000
01FFFFF800
03F801FC00
07E0007E00
0F80001F00
1F00000E00
3E00000400
3C00000000
7C00000000
7800000000
7800000000
F000000000
F000000000
F000000000
E000000000
E0007FFFFE
E0007FFFFE
E0007FFFFE
E0000000F0
F0000000F0
F0000000F0
F0000000F0
78000001E0
78000001E0
7C000003E0
3C000003C0
3E00000780
1F00000F80
0F80001F00
07E0007E00
03F801FC00
01FFFFF800
007FFFE000
001FFF8000
0000F80000
ENDCHAR
STARTCHAR 0048
ENCODING 72
SWIDTH 540 0
DWIDTH 27 0
BBX 24 35 1 0
BITMAP
0E000F
0E000F
0E000F
0E000F
0E000F
0E000F
0E000F
0E000F
0E000F
0E000F
0E000F
0E000F
0E000F
0E000F
FFFFFF
FFFFFF
FFFFFF
0E000F
0E000F
0E000F
0E000F
0E000F
0E000F
0E000F
0E000F
0E000F
0E000F
0E000F
0E000F
0E000F
0E000F
0E000F
0E000F
0E000F
0E000F
ENDCHAR
STARTCHAR 0049
ENCODING 73
SWIDTH 160 0
DWIDTH 8 0
BBX 11 39 -1 1
BITMAP
0400
0400
0C00
0C00
FFE0
7F80
1F00
1F00
3F00
3100
4080
0000
0000
0000
0000
0000
0000
1E00
1E00
1E00
1E00
1E00
1E00
1E00
1E00
1E00
1E00
1E00
1E00
1E00
1E00
1E00
1E00
1E00
1E00
1E00
1E00
1E00
1E00
ENDCHAR
STARTCHAR 004A
ENCODING 74
SWIDTH 440 0
DWIDTH 22 0
BBX 19 36 1 -1
BITMAP
000FE0
000FE0
000FE0
0000E0
0000E0
0000E0
0000E0
0000E0
0000E0
0000E0
0000E0
0000E0
0000E0
0000E0
0000E0
0000E0
0000E0
0000E0
0000E0
0000E0
0000E0
0000E0
0000E0
0000E0
0000E0
0001E0
0001E0
2001E0
E001E0
F003C0
F807C0
7C0F80
7FFF80
3FFF00
0FFC00
01F000
ENDCHAR
STARTCHAR 004B
ENCODING 75
SWIDTH 500 0
DWIDTH 25 0
BBX 23 35 1 0
BITMAP
0E0078
0E0078
0E0078
0E0078
0E0078
0E0078
0E0078
0E0078
0E0070
0E0070
0E00F0
0E00F0
0E00F0
0E01E0
0E03E0
FFFFC0
FFFF80
FFFFE0
FFFFF0
0E01F8
0E0078
0E003C
0E003C
0E003C
0E001E
0E001E
0E001E
0E001E
0E001E
0E001E
0E001E
0E001E
0E001E
0E001E
0E001E
ENDCHAR
STARTCHAR 004C
ENCODING 76
SWIDTH 420 0
DWIDTH 21 0
BBX 17 35 3 0
BITMAP
E00000
E00000
E00000
E00000
E00000
E00000
E00000
E00000
E00000
E00000
E00000
E00000
E00000
E00000
E00000
E00000
E00000
E00000
E00000
E00000
E00000
E00000
E00000
E00000
E00000
E00000
E00000
E00000
E00000
E00000
E00000
FFFF80
FFFF80
FFFF80
FFFF80
ENDCHAR
STARTCHAR 004D
ENCODING 77
SWIDTH 840 0
DWIDTH 42 0
BBX 39 36 1 0
BITMAP
4000000000
700018000E
F8001C000E
FC001F000E
3F001F800E
1F801FC00E
1FC01FE00E
1FE01FF80E
1DF81EFC0E
1CFC1E3E0E
1C3E1E1F0E
1C1F9E0FCE
1C0FDE07EE
1C03FE01FE
1C01FE00FE
1C00FE007E
1C007E003E
1C001E000E
1C001E000E
1C001E000E
1C001E000E
1C001E000E
1C001E000E
1C001E000E
1C001E000E
1C001E000E
1C001E000E
1C001E000E
1C001E000E
1C001E000E
1C001E000E
1C001E000E
1C001E000E
1C001E000E
1C001E000E
1C001E000E
ENDCHAR
STARTCHAR 004E
ENCODING 78
SWIDTH 500 0
DWIDTH 25 0
BBX 22 36 1 0
BITMAP
400000
70003C
F8003C
FC003C
7F003C
7F803C
7FC03C
7BE03C
79F83C
78FC3C
787E3C
781FBC
780FFC
7807FC
7801FC
7800FC
78007C
78003C
78003C
78003C
78003C
78003C
78003C
78003C
78003C
78003C
78003C
78003C
78003C
78003C
78003C
78003C
78003C
78003C
78003C
78003C
ENDCHAR
STARTCHAR 004F
ENCODING 79
SWIDTH 800 0
DWIDTH 40 0
BBX 37 37 2 -1
BITMAP
0001F80000
001FFF8000
007FFFE000
01FFFFF800
03F801FC00
07E0003F00
0F80001F80
1F00000F80
3E000007C0
3C000003E0
7C000001E0
78000000F0
78000000F0
F0000000F0
F000000078
F000000078
E000000078
E000000078
E000000078
E000000078
E000000078
F000000078
F000000078
F0000000F0
78000000F0
78000000F0
7C000001E0
3C000003E0
3E000007C0
1F00000F80
0F80001F80
07E0003F00
03F801FE00
01FFFFF800
007FFFF000
001FFF8000
0000F80000
ENDCHAR
STARTCHAR 0050
ENCODING 80
SWIDTH 540 0
DWIDTH 27 0
BBX 26 35 1 0
BITMAP
1FFF8000
1FFFF000
1FFFFC00
1E07FE00
1E003F00
1E000F00
1E000780
1E000780
1E000380
1E0003C0
1E0003C0
1E0003C0
1E000380
1E000780
1E000780
1E000F00
1E001F00
1E00FE00
FFFFFC00
FFFFF000
FFFFC000
1E000000
1E000000
1E000000
1E000000
1E000000
1E000000
1E000000
1E000000
1E000000
1E000000
1E000000
1E000000
1E000000
1E000000
ENDCHAR
STARTCHAR 0051
ENCODING 81
SWIDTH 800 0
DWIDTH 40 0
BBX 37 37 2 -1
BITMAP
0001F80000
001FFF8000
007FFFE000
01FFFFF800
03F801FC00
07E0003F00
0F80001F80
1F00000F80
3E000007C0
3C000003E0
7C000001E0
78000000F0
78000000F0
F0000000F0
F000000078
F000000078
E000000078
E000000078
E000000078
E000000078
E000000078
F000000078
F000000078
F0000000F0
78000000F0
780000C0F0
7C0001E1E0
3C0001F3E0
3E0000FFC0
1F00007F80
0F80003F80
07E0003F00
03F801FF80
01FFFFFFC0
007FFFF3E0
001FFF81C0
0000F80080
ENDCHAR
STARTCHAR 0052
ENCODING 82
SWIDTH 560 0
DWIDTH 28 0
BBX 26 35 1 0
BITMAP
0FFFC000
0FFFF800
0FFFFC00
0E03FE00
0E003F00
0E000F80
0E000780
0E0003C0
0E0003C0
0E0003C0
0E0003C0
0E0003C0
0E0003C0
0E000380
0E000780
0E000F80
0E003F00
FFFFFE00
FFFFFC00
FFFFF000
FFFFF800
0E00FC00
0E003C00
0E001E00
0E001E00
0E000F00
0E000F00
0E000F00
0E000F00
0E000700
0E000700
0E000700
0E000700
0E000700
0E000700
ENDCHAR
STARTCHAR 0053
ENCODING 83
SWIDTH 480 0
DWIDTH 24 0
BBX 22 37 1 -1
BITMAP
00FC00
03FF00
07FFC0
0FFFE0
1F03E0
1E00F0
3C00F0
3C0078
3C0078
3C0060
3C0000
1E0000
1F0000
0F8000
07C000
03F000
01FC00
00FE00
003F80
000FC0
0007E0
0001F0
0000F8
000078
000078
00003C
10003C
F0003C
78003C
78003C
7C0078
3E00F8
3F01F0
1FFFF0
0FFFE0
03FF80
007C00
ENDCHAR
STARTCHAR 0054
ENCODING 84
SWIDTH 480 0
DWIDTH 24 0
BBX 23 35 1 0
BITMAP
FFFFFE
FFFFFE
FFFFFE
007800
007800
007800
007800
007800
007800
007800
007800
007800
007800
007800
007800
007800
007800
007800
007800
007800
007800
007800
007800
007800
007800
007800
007800
007800
007800
007800
007800
007800
007800
007800
007800
ENDCHAR
STARTCHAR 0055
ENCODING 85
SWIDTH 480 0
DWIDTH 24 0
BBX 21 36 2 -1
BITMAP
F00078
F00078
F00078
F00078
F00078
F00078
F00078
F00078
F00078
F00078
F00078
F00078
F00078
F00078
F00078
F00078
F00078
F00078
F00078
F00078
F00078
F00078
F00078
F00078
F00078
F00078
F00078
F000F0
7800F0
7800F0
3C01E0
3E07E0
1FFFC0
0FFF80
07FE00
00F800
ENDCHAR
STARTCHAR 0056
ENCODING 86
SWIDTH 440 0
DWIDTH 22 0
BBX 20 35 0 0
BITMAP
F00070
F00070
F00070
F00070
F00070
F00070
F00070
F00070
F00070
F00070
F00070
F00070
F00070
F00070
F00070
F00070
F000F0
7000F0
7000F0
7000F0
7800F0
7800F0
7800F0
7800E0
7801E0
3C01E0
3C01E0
3C03C0
1E03C0
1F0780
0F0F80
078F00
03DE00
03FC00
00F800
ENDCHAR
STARTCHAR 0057
ENCODING 87
SWIDTH 760 0
DWIDTH 38 0
BBX 36 35 0 0
BITMAP
F000700070
F000700070
F000700070
F000700070
F000700070
F000700070
F000700070
F000700070
F000700070
F000700070
F000700070
F000700070
F000700070
F000700070
F000700070
F000700070
F000F00070
7000F00070
7000F000F0
7000F800F0
7800F800F0
7800F800F0
7800F800F0
7800F800F0
7801F801E0
3C01FC01E0
3C01FC01E0
3C03DE03C0
1E03DE03C0
1F078F0780
0F0F8F0F80
078F078F00
03DE03DE00
03FC01FC00
00F800F800
ENDCHAR
STARTCHAR 0058
ENCODING 88
SWIDTH 500 0
DWIDTH 25 0
BBX 21 35 2 0
BITMAP
F00078
F00078
F00078
F00078
F00078
F00078
F00078
F00078
700078
7800F0
7800F0
3C01F0
3E03E0
1FDFC0
0FFF80
0FFF80
1FFFC0
1F07E0
3C01E0
7C00F0
7800F0
780078
700078
F00078
F00078
F00078
F00078
F00078
F00078
F00078
F00078
F00078
F00078
F00078
F00078
ENDCHAR
STARTCHAR 0059
ENCODING 89
SWIDTH 480 0
DWIDTH 24 0
BBX 21 35 2 0
BITMAP
F00078
F00078
F00078
F00078
F00078
F00078
F00078
F00078
F00078
F00078
F00078
F00078
F00078
F00078
F00078
F00070
F00070
F000F0
F000F0
F000F0
7801E0
7C01E0
3E07C0
1FFFC0
0FFF80
07FE00
00F000
00F000
00F000
00F000
00F000
00F000
00F000
00F000
00F000
ENDCHAR
STARTCHAR 005A
ENCODING 90
SWIDTH 480 0
DWIDTH 24 0
BBX 23 35 1 0
BITMAP
FFFFFE
FFFFFE
FFFFFC
00003C
000078
0000F8
0000F0
0001E0
0001E0
0003C0
0007C0
000780
000F00
000F00
001E00
003E00
003C00
007800
00F800
00F000
01F000
01E000
03C000
07C000
078000
0F8000
0F0000
1E0000
3E0000
3C0000
7C0000
7FFFFC
FFFFFC
FFFFFC
FFFFFC
ENDCHAR
STARTCHAR 005B
ENCODING 91
SWIDTH 220 0
DWIDTH 11 0
BBX 5 47 3 -7
BITMAP
F8
F8
C0
C0
C0
C0
C0
C0
C0
C0
C0
C0
C0
C0
C0
C0
C0
C0
C0
C0
C0
C0
C0
C0
C0
C0
C0
C0
C0
C0
C0
C0
C0
C0
C0
C0
C0
C0
C0
C0
C0
C0
C0
C0
F8
F8
F8
ENDCHAR
STARTCHAR 005C
ENCODING 92
SWIDTH 360 0
DWIDTH 18 0
BBX 13 37 3 -1
BITMAP
E000
E000
E000
7000
7000
7000
7800
3800
3800
3800
1C00
1C00
1C00
1E00
0E00
0E00
0E00
0700
0700
0700
0780
0380
0380
0380
01C0
01C0
01C0
01E0
00E0
00E0
00E0
0070
0070
0070
0078
0038
0038
ENDCHAR
STARTCHAR 005D
ENCODING 93
SWIDTH 220 0
DWIDTH 11 0
BBX 5 47 3 -7
BITMAP
F8
F8
18
18
18
18
18
18
18
18
18
18
18
18
18
18
18
18
18
18
18
18
18
18
18
18
18
18
18
18
18
18
18
18
18
18
18
18
18
18
18
18
18
18
F8
F8
F8
ENDCHAR
STARTCHAR 005E
ENCODING 94
SWIDTH 460 0
DWIDTH 23 0
BBX 17 12 3 18
BITMAP
03E000
03E000
077000
077800
0E3800
1E3C00
1C1C00
381E00
380E00
700700
700780
E00380
ENDCHAR
STARTCHAR 005F
ENCODING 95
SWIDTH 500 0
DWIDTH 25 0
BBX 20 3 3 -5
BITMAP
FFFFF0
FFFFF0
FFFFF0
ENDCHAR
STARTCHAR 0060
ENCODING 96
SWIDTH 140 0
DWIDTH 7 0
BBX 7 7 0 38
BITMAP
F0
70
38
38
1C
0E
06
ENDCHAR
STARTCHAR 0061
ENCODING 97
SWIDTH 540 0
DWIDTH 27 0
BBX 25 36 2 0
BITMAP
00F80000
03FF0000
0FFF8000
1FFFC000
1F03E000
3C01F000
7C00F000
78007000
78007800
70007800
70007800
70007800
F0007800
F0007800
F0007800
F0007800
F0007800
F0007800
F0007800
F0007800
F0007800
F0007800
F0007800
F0007800
F0007800
F0007800
F0007800
F0007800
F0007800
F0007800
F0007800
F0007800
F0007800
FFFFFF80
FFFFFF80
FFFFFF80
ENDCHAR
STARTCHAR 0062
ENCODING 98
SWIDTH 580 0
DWIDTH 29 0
BBX 26 35 2 0
BITMAP
1FFFC000
1FFFF800
1FFFFC00
1E03FE00
1E001F00
1E000F00
1E000780
1E000780
1E000780
1E000780
1E000780
1E000780
1E000780
1E000F00
1E003F00
FFFFFE00
FFFFFC00
FFFFFC00
FFFFFE00
1E001F00
1E000F80
1E000780
1E0003C0
1E0003C0
1E0003C0
1E0003C0
1E0003C0
1E0003C0
1E0007C0
1E000780
1E001F80
1FFFFF00
1FFFFE00
1FFFFC00
1FFFE000
ENDCHAR
STARTCHAR 0063
ENCODING 99
SWIDTH 680 0
DWIDTH 34 0
BBX 31 37 2 -1
BITMAP
0001F000
001FFF80
007FFFE0
01FFFFF0
03F803FC
07E0007E
0F80003E
1F00001E
3E000008
3C000000
7C000000
78000000
78000000
F0000000
F0000000
F0000000
E0000000
E0000000
E0000000
E0000000
E0000000
F0000000
F0000000
F0000000
78000000
78000000
7C000000
3C000000
3E000008
1F00001E
0F80003E
07E0007E
03F803FC
01FFFFF0
007FFFE0
001FFF80
0001F000
ENDCHAR
STARTCHAR 0064
ENCODING 100
SWIDTH 620 0
DWIDTH 31 0
BBX 27 35 3 0
BITMAP
FFF80000
FFFF8000
FFFFE000
E0FFF000
E001FC00
E0007E00
E0001F00
E0000F00
E0000780
E0000780
E00003C0
E00003C0
E00001E0
E00001E0
E00001E0
E00001E0
E00001E0
E00001E0
E00001E0
E00001E0
E00001E0
E00001E0
E00001E0
E00003C0
E00003C0
E00007C0
E0000780
E0000F00
E0003F00
E0007E00
E001FC00
FFFFF800
FFFFE000
FFFF8000
FFFC0000
ENDCHAR
STARTCHAR 0065
ENCODING 101
SWIDTH 480 0
DWIDTH 24 0
BBX 23 35 1 0
BITMAP
0FFFC0
0FFFC0
0FFFC0
0E0000
0E0000
0E0000
0E0000
0E0000
0E0000
0E0000
0E0000
0E0000
0E0000
0E0000
0E0000
0E0000
FFFFF0
FFFFF0
FFFFF0
0E0000
0E0000
0E0000
0E0000
0E0000
0E0000
0E0000
0E0000
0E0000
0E0000
0E0000
0E0000
0E0000
0FFFFE
0FFFFE
0FFFFE
ENDCHAR
STARTCHAR 0066
ENCODING 102
SWIDTH 440 0
DWIDTH 22 0
BBX 21 35 1 0
BITMAP
0FFFF8
0FFFF8
0FFFF8
0F0000
0F0000
0F0000
0F0000
0F0000
0F0000
0F0000
0F0000
0F0000
0F0000
0F0000
0F0000
0F0000
0F0000
FFFFF8
FFFFF8
FFFFF8
0F0000
0F0000
0F0000
0F0000
0F0000
0F0000
0F0000
0F0000
0F0000
0F0000
0F0000
0F0000
0F0000
0F0000
0F0000
ENDCHAR
STARTCHAR 0067
ENCODING 103
SWIDTH 820 0
DWIDTH 41 0
BBX 39 37 2 -1
BITMAP
0001F80000
001FFF8000
007FFFE000
01FFFFF800
03F801FC00
07E0007E00
0F80001F00
1F00000E00
3E00000400
3C00000000
7C00000000
7800000000
7800000000
F000000000
F000000000
F000000000
E000000000
E0007FFFFE
E0007FFFFE
E0007FFFFE
E0000000F0
F0000000F0
F0000000F0
F0000000F0
78000001E0
78000001E0
7C000003E0
3C000003C0
3E00000780
1F00000F80
0F80001F00
07E0007E00
03F801FC00
01FFFFF800
007FFFE000
001FFF8000
0000F80000
ENDCHAR
STARTCHAR 0068
ENCODING 104
SWIDTH 540 0
DWIDTH 27 0
BBX 24 35 1 0
BITMAP
0E000F
0E000F
0E000F
0E000F
0E000F
0E000F
0E000F
0E000F
0E000F
0E000F
0E000F
0E000F
0E000F
0E000F
FFFFFF
FFFFFF
FFFFFF
0E000F
0E000F
0E000F
0E000F
0E000F
0E000F
0E000F
0E000F
0E000F
0E000F
0E000F
0E000F
0E000F
0E000F
0E000F
0E000F
0E000F
0E000F
ENDCHAR
STARTCHAR 0069
ENCODING 105
SWIDTH 160 0
DWIDTH 8 0
BBX 11 39 -1 1
BITMAP
0400
0400
0C00
0C00
FFE0
7F80
1F00
1F00
3F00
3100
4080
0000
0000
0000
0000
0000
0000
1E00
1E00
1E00
1E00
1E00
1E00
1E00
1E00
1E00
1E00
1E00
1E00
1E00
1E00
1E00
1E00
1E00
1E00
1E00
1E00
1E00
1E00
ENDCHAR
STARTCHAR 006A
ENCODING 106
SWIDTH 440 0
DWIDTH 22 0
BBX 19 36 1 -1
BITMAP
000FE0
000FE0
000FE0
0000E0
0000E0
0000E0
0000E0
0000E0
0000E0
0000E0
0000E0
0000E0
0000E0
0000E0
0000E0
0000E0
0000E0
0000E0
0000E0
0000E0
0000E0
0000E0
0000E0
0000E0
0000E0
0001E0
0001E0
2001E0
E001E0
F003C0
F807C0
7C0F80
7FFF80
3FFF00
0FFC00
01F000
ENDCHAR
STARTCHAR 006B
ENCODING 107
SWIDTH 500 0
DWIDTH 25 0
BBX 23 35 1 0
BITMAP
0E0078
0E0078
0E0078
0E0078
0E0078
0E0078
0E0078
0E0078
0E0070
0E0070
0E00F0
0E00F0
0E00F0
0E01E0
0E03E0
FFFFC0
FFFF80
FFFFE0
FFFFF0
0E01F8
0E0078
0E003C
0E003C
0E003C
0E001E
0E001E
0E001E
0E001E
0E001E
0E001E
0E001E
0E001E
0E001E
0E001E
0E001E
ENDCHAR
STARTCHAR 006C
ENCODING 108
SWIDTH 420 0
DWIDTH 21 0
BBX 17 35 3 0
BITMAP
E00000
E00000
E00000
E00000
E00000
E00000
E00000
E00000
E00000
E00000
E00000
E00000
E00000
E00000
E00000
E00000
E00000
E00000
E00000
E00000
E00000
E00000
E00000
E00000
E00000
E00000
E00000
E00000
E00000
E00000
E00000
FFFF80
FFFF80
FFFF80
FFFF80
ENDCHAR
STARTCHAR 006D
ENCODING 109
SWIDTH 840 0
DWIDTH 42 0
BBX 39 36 1 0
BITMAP
4000000000
700018000E
F8001C000E
FC001F000E
3F001F800E
1F801FC00E
1FC01FE00E
1FE01FF80E
1DF81EFC0E
1CFC1E3E0E
1C3E1E1F0E
1C1F9E0FCE
1C0FDE07EE
1C03FE01FE
1C01FE00FE
1C00FE007E
1C007E003E
1C001E000E
1C001E000E
1C001E000E
1C001E000E
1C001E000E
1C001E000E
1C001E000E
1C001E000E
1C001E000E
1C001E000E
1C001E000E
1C001E000E
1C001E000E
1C001E000E
1C001E000E
1C001E000E
1C001E000E
1C001E000E
1C001E000E
ENDCHAR
STARTCHAR 006E
ENCODING 110
SWIDTH 500 0
DWIDTH 25 0
BBX 22 36 1 0
BITMAP
400000
70003C
F8003C
FC003C
7F003C
7F803C
7FC03C
7BE03C
79F83C
78FC3C
787E3C
781FBC
780FFC
7807FC
7801FC
7800FC
78007C
78003C
78003C
78003C
78003C
78003C
78003C
78003C
78003C
78003C
78003C
78003C
78003C
78003C
78003C
78003C
78003C
78003C
78003C
78003C
ENDCHAR
STARTCHAR 006F
ENCODING 111
SWIDTH 800 0
DWIDTH 40 0
BBX 37 37 2 -1
BITMAP
0001F80000
001FFF8000
007FFFE000
01FFFFF800
03F801FC00
07E0003F00
0F80001F80
1F00000F80
3E000007C0
3C000003E0
7C000001E0
78000000F0
78000000F0
F0000000F0
F000000078
F000000078
E000000078
E000000078
E000000078
E000000078
E000000078
F000000078
F000000078
F0000000F0
78000000F0
78000000F0
7C000001E0
3C000003E0
3E000007C0
1F00000F80
0F80001F80
07E0003F00
03F801FE00
01FFFFF800
007FFFF000
001FFF8000
0000F80000
ENDCHAR
STARTCHAR 0070
ENCODING 112
SWIDTH 540 0
DWIDTH 27 0
BBX 26 35 1 0
BITMAP
1FFF8000
1FFFF000
1FFFFC00
1E07FE00
1E003F00
1E000F00
1E000780
1E000780
1E000380
1E0003C0
1E0003C0
1E0003C0
1E000380
1E000780
1E000780
1E000F00
1E001F00
1E00FE00
FFFFFC00
FFFFF000
FFFFC000
1E000000
1E000000
1E000000
1E000000
1E000000
1E000000
1E000000
1E000000
1E000000
1E000000
1E000000
1E000000
1E000000
1E000000
ENDCHAR
STARTCHAR 0071
ENCODING 113
SWIDTH 800 0
DWIDTH 40 0
BBX 37 37 2 -1
BITMAP
0001F80000
001FFF8000
007FFFE000
01FFFFF800
03F801FC00
07E0003F00
0F80001F80
1F00000F80
3E000007C0
3C000003E0
7C000001E0
78000000F0
78000000F0
F0000000F0
F000000078
F000000078
E000000078
E000000078
E000000078
E000000078
E000000078
F000000078
F000000078
F0000000F0
78000000F0
780000C0F0
7C0001E1E0
3C0001F3E0
3E0000FFC0
1F00007F80
0F80003F80
07E0003F00
03F801FF80
01FFFFFFC0
007FFFF3E0
001FFF81C0
0000F80080
ENDCHAR
STARTCHAR 0072
ENCODING 114
SWIDTH 560 0
DWIDTH 28 0
BBX 26 35 1 0
BITMAP
0FFFC000
0FFFF800
0FFFFC00
0E03FE00
0E003F00
0E000F80
0E000780
0E0003C0
0E0003C0
0E0003C0
0E0003C0
0E0003C0
0E0003C0
0E000380
0E000780
0E000F80
0E003F00
FFFFFE00
FFFFFC00
FFFFF000
FFFFF800
0E00FC00
0E003C00
0E001E00
0E001E00
0E000F00
0E000F00
0E000F00
0E000F00
0E000700
0E000700
0E000700
0E000700
0E000700
0E000700
ENDCHAR
STARTCHAR 0073
ENCODING 115
SWIDTH 480 0
DWIDTH 24 0
BBX 22 37 1 -1
BITMAP
00FC00
03FF00
07FFC0
0FFFE0
1F03E0
1E00F0
3C00F0
3C0078
3C0078
3C0060
3C0000
1E0000
1F0000
0F8000
07C000
03F000
01FC00
00FE00
003F80
000FC0
0007E0
0001F0
0000F8
000078
000078
00003C
10003C
F0003C
78003C
78003C
7C0078
3E00F8
3F01F0
1FFFF0
0FFFE0
03FF80
007C00
ENDCHAR
STARTCHAR 0074
ENCODING 116
SWIDTH 480 0
DWIDTH 24 0
BBX 23 35 1 0
BITMAP
FFFFFE
FFFFFE
FFFFFE
007800
007800
007800
007800
007800
007800
007800
007800
007800
007800
007800
007800
007800
007800
007800
007800
007800
007800
007800
007800
007800
007800
007800
007800
007800
007800
007800
007800
007800
007800
007800
007800
ENDCHAR
STARTCHAR 0075
ENCODING 117
SWIDTH 480 0
DWIDTH 24 0
BBX 21 36 2 -1
BITMAP
F00078
F00078
F00078
F00078
F00078
F00078
F00078
F00078
F00078
F00078
F00078
F00078
F00078
F00078
F00078
F00078
F00078
F00078
F00078
F00078
F00078
F00078
F00078
F00078
F00078
F00078
F00078
F000F0
7800F0
7800F0
3C01E0
3E07E0
1FFFC0
0FFF80
07FE00
00F800
ENDCHAR
STARTCHAR 0076
ENCODING 118
SWIDTH 440 0
DWIDTH 22 0
BBX 20 35 0 0
BITMAP
F00070
F00070
F00070
F00070
F00070
F00070
F00070
F00070
F00070
F00070
F00070
F00070
F00070
F00070
F00070
F00070
F000F0
7000F0
7000F0
7000F0
7800F0
7800F0
7800F0
7800E0
7801E0
3C01E0
3C01E0
3C03C0
1E03C0
1F0780
0F0F80
078F00
03DE00
03FC00
00F800
ENDCHAR
STARTCHAR 0077
ENCODING 119
SWIDTH 760 0
DWIDTH 38 0
BBX 36 35 0 0
BITMAP
F000700070
F000700070
F000700070
F000700070
F000700070
F000700070
F000700070
F000700070
F000700070
F000700070
F000700070
F000700070
F000700070
F000700070
F000700070
F000700070
F000F00070
7000F00070
7000F000F0
7000F800F0
7800F800F0
7800F800F0
7800F800F0
7800F800F0
7801F801E0
3C01FC01E0
3C01FC01E0
3C03DE03C0
1E03DE03C0
1F078F0780
0F0F8F0F80
078F078F00
03DE03DE00
03FC01FC00
00F800F800
ENDCHAR
STARTCHAR 0078
ENCODING 120
SWIDTH 500 0
DWIDTH 25 0
BBX 21 35 2 0
BITMAP
F00078
F00078
F00078
F00078
F00078
F00078
F00078
F00078
700078
7800F0
7800F0
3C01F0
3E03E0
1FDFC0
0FFF80
0FFF80
1FFFC0
1F07E0
3C01E0
7C00F0
7800F0
780078
700078
F00078
F00078
F00078
F00078
F00078
F00078
F00078
F00078
F00078
F00078
F00078
F00078
ENDCHAR
STARTCHAR 0079
ENCODING 121
SWIDTH 480 0
DWIDTH 24 0
BBX 21 35 2 0
BITMAP
F00078
F00078
F00078
F00078
F00078
F00078
F00078
F00078
F00078
F00078
F00078
F00078
F00078
F00078
F00078
F00070
F00070
F000F0
F000F0
F000F0
7801E0
7C01E0
3E07C0
1FFFC0
0FFF80
07FE00
00F000
00F000
00F000
00F000
00F000
00F000
00F000
00F000
00F000
ENDCHAR
STARTCHAR 007A
ENCODING 122
SWIDTH 480 0
DWIDTH 24 0
BBX 23 35 1 0
BITMAP
FFFFFE
FFFFFE
FFFFFC
00003C
000078
0000F8
0000F0
0001E0
0001E0
0003C0
0007C0
000780
000F00
000F00
001E00
003E00
003C00
007800
00F800
00F000
01F000
01E000
03C000
07C000
078000
0F8000
0F0000
1E0000
3E0000
3C0000
7C0000
7FFFFC
FFFFFC
FFFFFC
FFFFFC
ENDCHAR
STARTCHAR 007B
ENCODING 123
SWIDTH 320 0
DWIDTH 16 0
BBX 11 47 3 -7
BITMAP
03E0
07E0
0FE0
0E00
0E00
0E00
0E00
0E00
0E00
0E00
0E00
0E00
0E00
0E00
0E00
0E00
0E00
0E00
1C00
1C00
3C00
F800
F000
F000
F800
3C00
1C00
1C00
1E00
0E00
0E00
0E00
0E00
0E00
0E00
0E00
0E00
0E00
0E00
0E00
0E00
0E00
0E00
0F00
0FE0
07E0
01E0
ENDCHAR
STARTCHAR 007C
ENCODING 124
SWIDTH 140 0
DWIDTH 7 0
BBX 2 40 3 -5
BITMAP
C0
C0
C0
C0
C0
C0
C0
C0
C0
C0
C0
C0
C0
C0
C0
C0
C0
C0
C0
C0
C0
C0
C0
C0
C0
C0
C0
C0
C0
C0
C0
C0
C0
C0
C0
C0
C0
C0
C0
C0
ENDCHAR
STARTCHAR 007D
ENCODING 125
SWIDTH 320 0
DWIDTH 16 0
BBX 11 47 3 -7
BITMAP
F800
FC00
FE00
0E00
0E00
0E00
0E00
0E00
0E00
0E00
0E00
0E00
0E00
0E00
0E00
0E00
0E00
0E00
0F00
0700
0780
03E0
03E0
01E0
03E0
0780
0700
0F00
0E00
0E00
0E00
0E00
0E00
0E00
0E00
0E00
0E00
0E00
0E00
0E00
0E00
0E00
0E00
1E00
FC00
FC00
F000
ENDCHAR
STARTCHAR 007E
ENCODING 126
SWIDTH 520 0
DWIDTH 26 0
BBX 21 6 3 13
BITMAP
3C0000
FFE000
FFFFF8
FFFFF8
007FF8
000180
ENDCHAR
STARTCHAR 00A1
ENCODING 161
SWIDTH 240 0
DWIDTH 12 0
BBX 7 36 3 -6
BITMAP
78
FC
FC
FE
FC
FC
30
00
00
00
00
00
00
78
78
78
78
78
78
78
78
78
78
78
78
78
78
78
78
78
78
78
78
78
78
78
ENDCHAR
STARTCHAR 00A2
ENCODING 162
SWIDTH 500 0
DWIDTH 25 0
BBX 20 31 3 2
BITMAP
007000
007000
007000
007000
01FF00
07FFC0
1FFFE0
3E31F0
3C3070
783000
703000
F03000
E03000
E03000
E03000
E03000
E03000
E03000
E03000
F03000
703000
783000
3C3070
3E31F0
0FFFE0
07FFC0
01FF00
007000
007000
007000
007000
ENDCHAR
STARTCHAR 00A3
ENCODING 163
SWIDTH 520 0
DWIDTH 26 0
BBX 21 36 3 0
BITMAP
000200
007FF0
01FFF8
03FFF8
07F038
0F8000
1F0000
1E0000
1E0000
1E0000
3C0000
3C0000
1C0000
1E0000
1E0000
1E0000
0F0000
FFFFE0
FFFFE0
FFFFE0
078000
03C000
03C000
03C000
01C000
01E000
01E000
01E000
03C000
03C000
07C000
1F8000
FF0000
FFFFF8
FFFFF8
FFFFF8
ENDCHAR
STARTCHAR 00A4
ENCODING 164
SWIDTH 540 0
DWIDTH 27 0
BBX 22 22 3 5
BITMAP
600018
F0F83C
FBFF78
7FFFF0
3F03E0
1C01E0
3800F0
380070
700038
700038
700038
700038
700038
700078
380070
3C00F0
1E01E0
3F07F0
7FFFF8
F3FF7C
E0303C
400018
ENDCHAR
STARTCHAR 00A5
ENCODING 165
SWIDTH 620 0
DWIDTH 31 0
BBX 25 35 3 0
BITMAP
F0000780
F8000780
78000F00
7C000F00
3C001E00
3E001E00
1E003C00
0F003C00
0F007800
07807800
0780F000
03C0F000
03C1E000
01E1E000
01E3C000
00F38000
00FF8000
007F0000
1FFFFC00
1FFFFC00
1FFFFC00
001E0000
001E0000
001E0000
1FFFFC00
1FFFFC00
1FFFFC00
001E0000
001E0000
001E0000
001E0000
001E0000
001E0000
001E0000
001E0000
ENDCHAR
STARTCHAR 00A6
ENCODING 166
SWIDTH 140 0
DWIDTH 7 0
BBX 2 40 3 -5
BITMAP
C0
C0
C0
C0
C0
C0
C0
C0
C0
C0
C0
C0
C0
C0
C0
00
00
00
00
00
00
00
00
00
00
C0
C0
C0
C0
C0
C0
C0
C0
C0
C0
C0
C0
C0
C0
C0
ENDCHAR
STARTCHAR 00A7
ENCODING 167
SWIDTH 460 0
DWIDTH 23 0
BBX 18 42 3 -6
BITMAP
008000
07F800
1FFC00
3FFE00
3E1F00
780F00
780780
780780
780200
3C0000
3E0000
1F0000
0FC000
07F000
07F800
1FFE00
3FFF00
781F80
F00780
F00380
E003C0
E003C0
F00380
F00780
7C0F80
3FFF00
1FFE00
0FF000
03F000
00F800
007C00
001E00
000F00
100F00
F00F00
F00F00
780F00
7C1F00
3FFE00
1FFC00
0FF800
018000
ENDCHAR
STARTCHAR 00A8
ENCODING 168
SWIDTH 340 0
DWIDTH 17 0
BBX 18 7 0 37
BITMAP
3C0F80
7E1F80
FE1FC0
FE1FC0
7E1FC0
7C0F80
100200
ENDCHAR
STARTCHAR 00A9
ENCODING 169
SWIDTH 840 0
DWIDTH 42 0
BBX 37 37 3 -1
BITMAP
0001FC0000
001FFF8000
007FFFE000
01F000F800
03C0003C00
0780000E00
0E00000700
1C00000380
38000001C0
3803FC01C0
7007FF00E0
701FDF8060
603C038070
E038010070
E078000030
C070000030
C070000038
C060000038
C060000038
C070000038
C070000038
C070000030
E078000030
E038010070
E03C038070
701FFF8060
7007FF00E0
3803FC01C0
38000001C0
1C00000380
0E00000700
0780000E00
03C0003C00
01F000F800
007FFFF000
001FFF8000
0001F80000
ENDCHAR
STARTCHAR 00AB
ENCODING 171
SWIDTH 500 0
DWIDTH 25 0
BBX 20 22 3 4
BITMAP
00E0F0
01E1E0
03C1C0
0783C0
0F0780
0F0F00
1E1E00
3C1E00
783C00
707800
F0F000
F07800
783C00
3C3C00
1E1E00
1E0F00
0F0780
078780
03C3C0
01C1E0
01E0F0
00F070
ENDCHAR
STARTCHAR 00AC
ENCODING 172
SWIDTH 540 0
DWIDTH 27 0
BBX 22 12 3 6
BITMAP
FFFFFC
FFFFFC
FFFFFC
00001C
00001C
00001C
00001C
00001C
00001C
00001C
00001C
00001C
ENDCHAR
STARTCHAR 00AE
ENCODING 174
SWIDTH 480 0
DWIDTH 24 0
BBX 19 19 3 17
BITMAP
03F800
0FFE00
1C0700
300380
63E1C0
C3F8C0
C31860
C30860
C31860
87F060
C7F060
C31860
C31860
C318C0
6000C0
300180
380700
0FFE00
03F800
ENDCHAR
STARTCHAR 00AF
ENCODING 175
SWIDTH 280 0
DWIDTH 14 0
BBX 14 3 0 40
BITMAP
FFFC
FFFC
FFFC
ENDCHAR
STARTCHAR 00B0
ENCODING 176
SWIDTH 320 0
DWIDTH 16 0
BBX 11 10 3 25
BITMAP
3F00
7FC0
E1C0
C0E0
C0E0
C0E0
C0E0
E1C0
7FC0
3F80
ENDCHAR
STARTCHAR 00B1
ENCODING 177
SWIDTH 540 0
DWIDTH 27 0
BBX 22 20 3 6
BITMAP
007000
007000
007000
007000
007000
007000
FFFFFC
FFFFFC
FFFFFC
007000
007000
007000
007000
007000
007000
000000
000000
000000
FFFFFC
FFFFFC
ENDCHAR
STARTCHAR 00B4
ENCODING 180
SWIDTH 140 0
DWIDTH 7 0
BBX 8 7 0 38
BITMAP
0F
1E
1C
38
38
70
E0
ENDCHAR
STARTCHAR 00B6
ENCODING 182
SWIDTH 440 0
DWIDTH 22 0
BBX 17 40 3 -5
BITMAP
07F180
0FF180
3FF180
3FF180
7FF180
FFF180
FFF180
FFF180
FFF180
FFF180
FFF180
FFF180
FFF180
7FF180
7FF180
3FF180
1FF180
0FF180
03F180
007180
007180
007180
007180
007180
007180
007180
007180
007180
007180
007180
007180
007180
007180
007180
007180
007180
007180
007180
007180
007180
ENDCHAR
STARTCHAR 00B7
ENCODING 183
SWIDTH 240 0
DWIDTH 12 0
BBX 7 6 3 9
BITMAP
78
FC
FC
FE
FC
7C
ENDCHAR
STARTCHAR 00B8
ENCODING 184
SWIDTH 200 0
DWIDTH 10 0
BBX 11 11 0 -11
BITMAP
0600
0E00
0F80
01C0
00C0
00E0
40E0
E0C0
7FC0
3F80
0600
ENDCHAR
STARTCHAR 00BB
ENCODING 187
SWIDTH 500 0
DWIDTH 25 0
BBX 20 22 3 4
BITMAP
F07800
787800
3C3C00
3C1E00
1E0F00
0F0F00
078780
0783C0
03C1E0
01E1E0
00F0F0
01E0F0
01C1E0
03C3C0
078380
0F0780
0E0F00
1E1E00
3C3C00
783C00
F07800
E0F000
ENDCHAR
STARTCHAR 00BF
ENCODING 191
SWIDTH 400 0
DWIDTH 20 0
BBX 15 36 3 -5
BITMAP
03E0
07E0
07F0
07F0
07E0
03E0
0000
0000
0000
0000
0000
01C0
01C0
01C0
03C0
03C0
0380
0780
0780
0F00
1E00
1E00
3C00
7800
7000
F000
F000
E000
E00E
E00E
F01E
F83C
7FFC
3FF8
1FE0
0100
ENDCHAR
STARTCHAR 00C0
ENCODING 192
SWIDTH 540 0
DWIDTH 27 0
BBX 25 45 2 0
BITMAP
03800000
03C00000
01C00000
00E00000
00700000
00700000
00380000
00000000
00000000
00F80000
03FF0000
0FFF8000
1FFFC000
1F03E000
3C01F000
7C00F000
78007000
78007800
70007800
70007800
70007800
F0007800
F0007800
F0007800
F0007800
F0007800
F0007800
F0007800
F0007800
F0007800
F0007800
F0007800
F0007800
F0007800
F0007800
F0007800
F0007800
F0007800
F0007800
F0007800
F0007800
F0007800
FFFFFF80
FFFFFF80
FFFFFF80
ENDCHAR
STARTCHAR 00C1
ENCODING 193
SWIDTH 540 0
DWIDTH 27 0
BBX 25 45 2 0
BITMAP
000F0000
000E0000
001C0000
001C0000
00380000
00700000
00600000
00000000
00000000
00F80000
03FF0000
0FFF8000
1FFFC000
1F03E000
3C01F000
7C00F000
78007000
78007800
70007800
70007800
70007800
F0007800
F0007800
F0007800
F0007800
F0007800
F0007800
F0007800
F0007800
F0007800
F0007800
F0007800
F0007800
F0007800
F0007800
F0007800
F0007800
F0007800
F0007800
F0007800
F0007800
F0007800
FFFFFF80
FFFFFF80
FFFFFF80
ENDCHAR
STARTCHAR 00C2
ENCODING 194
SWIDTH 540 0
DWIDTH 27 0
BBX 25 45 2 0
BITMAP
00780000
00FC0000
01FE0000
03CE0000
03870000
07038000
0E03C000
00000000
00000000
00F80000
03FF0000
0FFF8000
1FFFC000
1F03E000
3C01F000
7C00F000
78007000
78007800
70007800
70007800
70007800
F0007800
F0007800
F0007800
F0007800
F0007800
F0007800
F0007800
F0007800
F0007800
F0007800
F0007800
F0007800
F0007800
F0007800
F0007800
F0007800
F0007800
F0007800
F0007800
F0007800
F0007800
FFFFFF80
FFFFFF80
FFFFFF80
ENDCHAR
STARTCHAR 00C3
ENCODING 195
SWIDTH 540 0
DWIDTH 27 0
BBX 25 44 2 0
BITMAP
07C00000
0FFF0000
0FFF0000
001E0000
00000000
00000000
00000000
00000000
00F80000
03FF0000
0FFF8000
1FFFC000
1F03E000
3C01F000
7C00F000
78007000
78007800
70007800
70007800
70007800
F0007800
F0007800
F0007800
F0007800
F0007800
F0007800
F0007800
F0007800
F0007800
F0007800
F0007800
F0007800
F0007800
F0007800
F0007800
F0007800
F0007800
F0007800
F0007800
F0007800
F0007800
FFFFFF80
FFFFFF80
FFFFFF80
ENDCHAR
STARTCHAR 00C4
ENCODING 196
SWIDTH 540 0
DWIDTH 27 0
BBX 25 44 2 0
BITMAP
0F03E000
1F87E000
3F87F000
3F87F000
1F87F000
1F03E000
00008000
00000000
00F80000
03FF0000
0FFF8000
1FFFC000
1F03E000
3C01F000
7C00F000
78007000
78007800
70007800
70007800
70007800
F0007800
F0007800
F0007800
F0007800
F0007800
F0007800
F0007800
F0007800
F0007800
F0007800
F0007800
F0007800
F0007800
F0007800
F0007800
F0007800
F0007800
F0007800
F0007800
F0007800
F0007800
FFFFFF80
FFFFFF80
FFFFFF80
ENDCHAR
STARTCHAR 00C5
ENCODING 197
SWIDTH 540 0
DWIDTH 27 0
BBX 25 48 2 0
BITMAP
00780000
01FC0000
03CE0000
03070000
03070000
03070000
03070000
03CE0000
01FC0000
00780000
00000000
00000000
00F80000
03FF0000
0FFF8000
1FFFC000
1F03E000
3C01F000
7C00F000
78007000
78007800
70007800
70007800
70007800
F0007800
F0007800
F0007800
F0007800
F0007800
F0007800
F0007800
F0007800
F0007800
F0007800
F0007800
F0007800
F0007800
F0007800
F0007800
F0007800
F0007800
F0007800
F0007800
F0007800
F0007800
FFFFFF80
FFFFFF80
FFFFFF80
ENDCHAR
STARTCHAR 00C7
ENCODING 199
SWIDTH 680 0
DWIDTH 34 0
BBX 31 47 2 -11
BITMAP
0001F000
001FFF80
007FFFE0
01FFFFF0
03F803FC
07E0007E
0F80003E
1F00001E
3E000008
3C000000
7C000000
78000000
78000000
F0000000
F0000000
F0000000
E0000000
E0000000
E0000000
E0000000
E0000000
F0000000
F0000000
F0000000
78000000
78000000
7C000000
3C000000
3E000008
1F00001E
0F80003E
07E0007E
03F803FC
01FFFFF0
007FFFE0
001FFF80
0001F000
0001C000
0001E000
00007000
00001800
00001800
00081800
001C1800
000FF800
0007F000
00018000
ENDCHAR
STARTCHAR 00C8
ENCODING 200
SWIDTH 480 0
DWIDTH 24 0
BBX 23 45 1 0
BITMAP
078000
038000
01C000
00E000
00E000
007000
003800
000000
000000
000000
0FFFC0
0FFFC0
0FFFC0
0E0000
0E0000
0E0000
0E0000
0E0000
0E0000
0E0000
0E0000
0E0000
0E0000
0E0000
0E0000
0E0000
FFFFF0
FFFFF0
FFFFF0
0E0000
0E0000
0E0000
0E0000
0E0000
0E0000
0E0000
0E0000
0E0000
0E0000
0E0000
0E0000
0E0000
0FFFFE
0FFFFE
0FFFFE
ENDCHAR
STARTCHAR 00C9
ENCODING 201
SWIDTH 480 0
DWIDTH 24 0
BBX 23 45 1 0
BITMAP
000F00
000E00
001C00
003800
003800
007000
006000
000000
000000
000000
0FFFC0
0FFFC0
0FFFC0
0E0000
0E0000
0E0000
0E0000
0E0000
0E0000
0E0000
0E0000
0E0000
0E0000
0E0000
0E0000
0E0000
FFFFF0
FFFFF0
FFFFF0
0E0000
0E0000
0E0000
0E0000
0E0000
0E0000
0E0000
0E0000
0E0000
0E0000
0E0000
0E0000
0E0000
0FFFFE
0FFFFE
0FFFFE
ENDCHAR
STARTCHAR 00CA
ENCODING 202
SWIDTH 480 0
DWIDTH 24 0
BBX 23 45 1 0
BITMAP
00F800
00FC00
01DC00
03CE00
078F00
0F0780
0E0380
000000
000000
000000
0FFFC0
0FFFC0
0FFFC0
0E0000
0E0000
0E0000
0E0000
0E0000
0E0000
0E0000
0E0000
0E0000
0E0000
0E0000
0E0000
0E0000
FFFFF0
FFFFF0
FFFFF0
0E0000
0E0000
0E0000
0E0000
0E0000
0E0000
0E0000
0E0000
0E0000
0E0000
0E0000
0E0000
0E0000
0FFFFE
0FFFFE
0FFFFE
ENDCHAR
STARTCHAR 00CB
ENCODING 203
SWIDTH 480 0
DWIDTH 24 0
BBX 23 44 1 0
BITMAP
1F03C0
3F87E0
3F87F0
3F87F0
3F87E0
1F03E0
040100
000000
000000
0FFFC0
0FFFC0
0FFFC0
0E0000
0E0000
0E0000
0E0000
0E0000
0E0000
0E0000
0E0000
0E0000
0E0000
0E0000
0E0000
0E0000
FFFFF0
FFFFF0
FFFFF0
0E0000
0E0000
0E0000
0E0000
0E0000
0E0000
0E0000
0E0000
0E0000
0E0000
0E0000
0E0000
0E0000
0FFFFE
0FFFFE
0FFFFE
ENDCHAR
STARTCHAR 00CC
ENCODING 204
SWIDTH 160 0
DWIDTH 8 0
BBX 7 31 0 0
BITMAP
E0
F0
70
38
1C
1C
0E
00
00
1C
1C
1C
1C
1C
1C
1C
1C
1C
1C
1C
1C
1C
1C
1C
1C
1C
1C
1C
1C
1C
1C
ENDCHAR
STARTCHAR 00CD
ENCODING 205
SWIDTH 160 0
DWIDTH 8 0
BBX 7 31 2 0
BITMAP
0E
1C
1C
38
70
60
E0
00
00
70
70
70
70
70
70
70
70
70
70
70
70
70
70
70
70
70
70
70
70
70
70
ENDCHAR
STARTCHAR 00CE
ENCODING 206
SWIDTH 160 0
DWIDTH 8 0
BBX 15 31 -3 0
BITMAP
07C0
0FE0
1EF0
1C70
3838
701C
E00E
0000
0000
0380
0380
0380
0380
0380
0380
0380
0380
0380
0380
0380
0380
0380
0380
0380
0380
0380
0380
0380
0380
0380
0380
ENDCHAR
STARTCHAR 00CF
ENCODING 207
SWIDTH 160 0
DWIDTH 8 0
BBX 18 31 -4 0
BITMAP
380600
7C1F80
FE1F80
FE1FC0
FE1F80
FC1F80
380F00
000000
000000
01C000
01C000
01C000
01C000
01C000
01C000
01C000
01C000
01C000
01C000
01C000
01C000
01C000
01C000
01C000
01C000
01C000
01C000
01C000
01C000
01C000
01C000
ENDCHAR
STARTCHAR 00D1
ENCODING 209
SWIDTH 500 0
DWIDTH 25 0
BBX 22 44 1 0
BITMAP
03C000
07FF80
07FF80
000F00
000000
000000
000000
000000
400000
70003C
F8003C
FC003C
7F003C
7F803C
7FC03C
7BE03C
79F83C
78FC3C
787E3C
781FBC
780FFC
7807FC
7801FC
7800FC
78007C
78003C
78003C
78003C
78003C
78003C
78003C
78003C
78003C
78003C
78003C
78003C
78003C
78003C
78003C
78003C
78003C
78003C
78003C
78003C
ENDCHAR
STARTCHAR 00D2
ENCODING 210
SWIDTH 800 0
DWIDTH 40 0
BBX 37 46 2 -1
BITMAP
0007800000
0003800000
0001C00000
0001C00000
0000E00000
0000700000
0000300000
0000000000
0000000000
0001F80000
001FFF8000
007FFFE000
01FFFFF800
03F801FC00
07E0003F00
0F80001F80
1F00000F80
3E000007C0
3C000003E0
7C000001E0
78000000F0
78000000F0
F0000000F0
F000000078
F000000078
E000000078
E000000078
E000000078
E000000078
E000000078
F000000078
F000000078
F0000000F0
78000000F0
78000000F0
7C000001E0
3C000003E0
3E000007C0
1F00000F80
0F80001F80
07E0003F00
03F801FE00
01FFFFF800
007FFFF000
001FFF8000
0000F80000
ENDCHAR
STARTCHAR 00D3
ENCODING 211
SWIDTH 800 0
DWIDTH 40 0
BBX 37 46 2 -1
BITMAP
00000E0000
00001E0000
00001C0000
0000380000
0000700000
0000700000
0000E00000
0000000000
0000000000
0001F80000
001FFF8000
007FFFE000
01FFFFF800
03F801FC00
07E0003F00
0F80001F80
1F00000F80
3E000007C0
3C000003E0
7C000001E0
78000000F0
78000000F0
F0000000F0
F000000078
F000000078
E000000078
E000000078
E000000078
E000000078
E000000078
F000000078
F000000078
F0000000F0
78000000F0
78000000F0
7C000001E0
3C000003E0
3E000007C0
1F00000F80
0F80001F80
07E0003F00
03F801FE00
01FFFFF800
007FFFF000
001FFF8000
0000F80000
ENDCHAR
STARTCHAR 00D4
ENCODING 212
SWIDTH 800 0
DWIDTH 40 0
BBX 37 46 2 -1
BITMAP
0000F00000
0001F80000
0001FC0000
00039E0000
00070F0000
000F070000
001E038000
0000000000
0000000000
0001F80000
001FFF8000
007FFFE000
01FFFFF800
03F801FC00
07E0003F00
0F80001F80
1F00000F80
3E000007C0
3C000003E0
7C000001E0
78000000F0
78000000F0
F0000000F0
F000000078
F000000078
E000000078
E000000078
E000000078
E000000078
E000000078
F000000078
F000000078
F0000000F0
78000000F0
78000000F0
7C000001E0
3C000003E0
3E000007C0
1F00000F80
0F80001F80
07E0003F00
03F801FE00
01FFFFF800
007FFFF000
001FFF8000
0000F80000
ENDCHAR
STARTCHAR 00D5
ENCODING 213
SWIDTH 800 0
DWIDTH 40 0
BBX 37 45 2 -1
BITMAP
000F800000
000FFF0000
000FFF0000
00003C0000
0000000000
0000000000
0000000000
0000000000
0001F80000
001FFF8000
007FFFE000
01FFFFF800
03F801FC00
07E0003F00
0F80001F80
1F00000F80
3E000007C0
3C000003E0
7C000001E0
78000000F0
78000000F0
F0000000F0
F000000078
F000000078
E000000078
E000000078
E000000078
E000000078
E000000078
F000000078
F000000078
F0000000F0
78000000F0
78000000F0
7C000001E0
3C000003E0
3E000007C0
1F00000F80
0F80001F80
07E0003F00
03F801FE00
01FFFFF800
007FFFF000
001FFF8000
0000F80000
ENDCHAR
STARTCHAR 00D6
ENCODING 214
SWIDTH 800 0
DWIDTH 40 0
BBX 37 45 2 -1
BITMAP
001E03C000
003F07E000
003F8FE000
003F8FE000
003F07E000
001F07C000
0004008000
0000000000
0001F80000
001FFF8000
007FFFE000
01FFFFF800
03F801FC00
07E0003F00
0F80001F80
1F00000F80
3E000007C0
3C000003E0
7C000001E0
78000000F0
78000000F0
F0000000F0
F000000078
F000000078
E000000078
E000000078
E000000078
E000000078
E000000078
F000000078
F000000078
F0000000F0
78000000F0
78000000F0
7C000001E0
3C000003E0
3E000007C0
1F00000F80
0F80001F80
07E0003F00
03F801FE00
01FFFFF800
007FFFF000
001FFF8000
0000F80000
ENDCHAR
STARTCHAR 00D7
ENCODING 215
SWIDTH 500 0
DWIDTH 25 0
BBX 20 20 3 7
BITMAP
000040
6000E0
F001F0
7803E0
3C07C0
1E0F80
0F1F00
07BE00
03FC00
01F800
01F000
03F800
07FC00
0F9E00
1F0F00
3E0780
7C03C0
F801E0
F000E0
600040
ENDCHAR
STARTCHAR 00D8
ENCODING 216
SWIDTH 780 0
DWIDTH 39 0
BBX 37 37 1 -1
BITMAP
0000FC00C0
000FFFC1E0
003FFFF3C0
00FFFFFF80
01FC00FF80
07F0003F00
0FC0001F80
0F80003FC0
1F00007BE0
3E0000F1E0
3C0001E1F0
780001C0F0
780003C0F0
7800078078
F0000F0078
F0001E0078
F0003C0038
F000780038
F000700038
F000F00038
F001E00038
F003C00078
F007800078
780F000078
781E0000F0
7C3C0000F0
3C380001F0
3E780001E0
1FF00003E0
0FE00007C0
0FC0000F80
07E0003F00
0FFC00FE00
1EFFFFFC00
1E3FFFF000
3C0FFFC000
1800FC0000
ENDCHAR
STARTCHAR 00D9
ENCODING 217
SWIDTH 480 0
DWIDTH 24 0
BBX 21 46 2 -1
BITMAP
078000
038000
01C000
01E000
00E000
007000
003000
000000
000000
000000
F00078
F00078
F00078
F00078
F00078
F00078
F00078
F00078
F00078
F00078
F00078
F00078
F00078
F00078
F00078
F00078
F00078
F00078
F00078
F00078
F00078
F00078
F00078
F00078
F00078
F00078
F00078
F000F0
7800F0
7800F0
3C01E0
3E07E0
1FFFC0
0FFF80
07FE00
00F800
ENDCHAR
STARTCHAR 00DA
ENCODING 218
SWIDTH 480 0
DWIDTH 24 0
BBX 21 46 2 -1
BITMAP
000F00
001E00
001C00
003800
003800
007000
00E000
000000
000000
000000
F00078
F00078
F00078
F00078
F00078
F00078
F00078
F00078
F00078
F00078
F00078
F00078
F00078
F00078
F00078
F00078
F00078
F00078
F00078
F00078
F00078
F00078
F00078
F00078
F00078
F00078
F00078
F000F0
7800F0
7800F0
3C01E0
3E07E0
1FFFC0
0FFF80
07FE00
00F800
ENDCHAR
STARTCHAR 00DB
ENCODING 219
SWIDTH 480 0
DWIDTH 24 0
BBX 21 46 2 -1
BITMAP
00F800
00F800
01DC00
039E00
078F00
0F0780
0E0380
000000
000000
000000
F00078
F00078
F00078
F00078
F00078
F00078
F00078
F00078
F00078
F00078
F00078
F00078
F00078
F00078
F00078
F00078
F00078
F00078
F00078
F00078
F00078
F00078
F00078
F00078
F00078
F00078
F00078
F000F0
7800F0
7800F0
3C01E0
3E07E0
1FFFC0
0FFF80
07FE00
00F800
ENDCHAR
STARTCHAR 00DC
ENCODING 220
SWIDTH 480 0
DWIDTH 24 0
BBX 21 45 2 -1
BITMAP
1F03C0
3F07E0
3F87E0
3F8FE0
3F87E0
1F07C0
040000
000000
000000
F00078
F00078
F00078
F00078
F00078
F00078
F00078
F00078
F00078
F00078
F00078
F00078
F00078
F00078
F00078
F00078
F00078
F00078
F00078
F00078
F00078
F00078
F00078
F00078
F00078
F00078
F00078
F000F0
7800F0
7800F0
3C01E0
3E07E0
1FFFC0
0FFF80
07FE00
00F800
ENDCHAR
STARTCHAR 00DD
ENCODING 221
SWIDTH 480 0
DWIDTH 24 0
BBX 21 45 2 0
BITMAP
000E00
001E00
001C00
003800
007000
007000
00E000
000000
000000
000000
F00078
F00078
F00078
F00078
F00078
F00078
F00078
F00078
F00078
F00078
F00078
F00078
F00078
F00078
F00078
F00070
F00070
F000F0
F000F0
F000F0
7801E0
7C01E0
3E07C0
1FFFC0
0FFF80
07FE00
00F000
00F000
00F000
00F000
00F000
00F000
00F000
00F000
00F000
ENDCHAR
STARTCHAR 00E0
ENCODING 224
SWIDTH 540 0
DWIDTH 27 0
BBX 25 45 2 0
BITMAP
03800000
03C00000
01C00000
00E00000
00700000
00700000
00380000
00000000
00000000
00F80000
03FF0000
0FFF8000
1FFFC000
1F03E000
3C01F000
7C00F000
78007000
78007800
70007800
70007800
70007800
F0007800
F0007800
F0007800
F0007800
F0007800
F0007800
F0007800
F0007800
F0007800
F0007800
F0007800
F0007800
F0007800
F0007800
F0007800
F0007800
F0007800
F0007800
F0007800
F0007800
F0007800
FFFFFF80
FFFFFF80
FFFFFF80
ENDCHAR
STARTCHAR 00E1
ENCODING 225
SWIDTH 540 0
DWIDTH 27 0
BBX 25 45 2 0
BITMAP
000F0000
000E0000
001C0000
001C0000
00380000
00700000
00600000
00000000
00000000
00F80000
03FF0000
0FFF8000
1FFFC000
1F03E000
3C01F000
7C00F000
78007000
78007800
70007800
70007800
70007800
F0007800
F0007800
F0007800
F0007800
F0007800
F0007800
F0007800
F0007800
F0007800
F0007800
F0007800
F0007800
F0007800
F0007800
F0007800
F0007800
F0007800
F0007800
F0007800
F0007800
F0007800
FFFFFF80
FFFFFF80
FFFFFF80
ENDCHAR
STARTCHAR 00E2
ENCODING 226
SWIDTH 540 0
DWIDTH 27 0
BBX 25 45 2 0
BITMAP
00780000
00FC0000
01FE0000
03CE0000
03870000
07038000
0E03C000
00000000
00000000
00F80000
03FF0000
0FFF8000
1FFFC000
1F03E000
3C01F000
7C00F000
78007000
78007800
70007800
70007800
70007800
F0007800
F0007800
F0007800
F0007800
F0007800
F0007800
F0007800
F0007800
F0007800
F0007800
F0007800
F0007800
F0007800
F0007800
F0007800
F0007800
F0007800
F0007800
F0007800
F0007800
F0007800
FFFFFF80
FFFFFF80
FFFFFF80
ENDCHAR
STARTCHAR 00E3
ENCODING 227
SWIDTH 540 0
DWIDTH 27 0
BBX 25 44 2 0
BITMAP
07C00000
0FFF0000
0FFF0000
001E0000
00000000
00000000
00000000
00000000
00F80000
03FF0000
0FFF8000
1FFFC000
1F03E000
3C01F000
7C00F000
78007000
78007800
70007800
70007800
70007800
F0007800
F0007800
F0007800
F0007800
F0007800
F0007800
F0007800
F0007800
F0007800
F0007800
F0007800
F0007800
F0007800
F0007800
F0007800
F0007800
F0007800
F0007800
F0007800
F0007800
F0007800
FFFFFF80
FFFFFF80
FFFFFF80
ENDCHAR
STARTCHAR 00E4
ENCODING 228
SWIDTH 540 0
DWIDTH 27 0
BBX 25 44 2 0
BITMAP
0F03E000
1F87E000
3F87F000
3F87F000
1F87F000
1F03E000
00008000
00000000
00F80000
03FF0000
0FFF8000
1FFFC000
1F03E000
3C01F000
7C00F000
78007000
78007800
70007800
70007800
70007800
F0007800
F0007800
F0007800
F0007800
F0007800
F0007800
F0007800
F0007800
F0007800
F0007800
F0007800
F0007800
F0007800
F0007800
F0007800
F0007800
F0007800
F0007800
F0007800
F0007800
F0007800
FFFFFF80
FFFFFF80
FFFFFF80
ENDCHAR
STARTCHAR 00E5
ENCODING 229
SWIDTH 540 0
DWIDTH 27 0
BBX 25 48 2 0
BITMAP
00780000
01FC0000
03CE0000
03070000
03070000
03070000
03070000
03CE0000
01FC0000
00780000
00000000
00000000
00F80000
03FF0000
0FFF8000
1FFFC000
1F03E000
3C01F000
7C00F000
78007000
78007800
70007800
70007800
70007800
F0007800
F0007800
F0007800
F0007800
F0007800
F0007800
F0007800
F0007800
F0007800
F0007800
F0007800
F0007800
F0007800
F0007800
F0007800
F0007800
F0007800
F0007800
F0007800
F0007800
F0007800
FFFFFF80
FFFFFF80
FFFFFF80
ENDCHAR
STARTCHAR 00E7
ENCODING 231
SWIDTH 680 0
DWIDTH 34 0
BBX 31 47 2 -11
BITMAP
0001F000
001FFF80
007FFFE0
01FFFFF0
03F803FC
07E0007E
0F80003E
1F00001E
3E000008
3C000000
7C000000
78000000
78000000
F0000000
F0000000
F0000000
E0000000
E0000000
E0000000
E0000000
E0000000
F0000000
F0000000
F0000000
78000000
78000000
7C000000
3C000000
3E000008
1F00001E
0F80003E
07E0007E
03F803FC
01FFFFF0
007FFFE0
001FFF80
0001F000
0001C000
0001E000
00007000
00001800
00001800
00081800
001C1800
000FF800
0007F000
00018000
ENDCHAR
STARTCHAR 00E8
ENCODING 232
SWIDTH 480 0
DWIDTH 24 0
BBX 23 45 1 0
BITMAP
078000
038000
01C000
00E000
00E000
007000
003800
000000
000000
000000
0FFFC0
0FFFC0
0FFFC0
0E0000
0E0000
0E0000
0E0000
0E0000
0E0000
0E0000
0E0000
0E0000
0E0000
0E0000
0E0000
0E0000
FFFFF0
FFFFF0
FFFFF0
0E0000
0E0000
0E0000
0E0000
0E0000
0E0000
0E0000
0E0000
0E0000
0E0000
0E0000
0E0000
0E0000
0FFFFE
0FFFFE
0FFFFE
ENDCHAR
STARTCHAR 00E9
ENCODING 233
SWIDTH 480 0
DWIDTH 24 0
BBX 23 45 1 0
BITMAP
000F00
000E00
001C00
003800
003800
007000
006000
000000
000000
000000
0FFFC0
0FFFC0
0FFFC0
0E0000
0E0000
0E0000
0E0000
0E0000
0E0000
0E0000
0E0000
0E0000
0E0000
0E0000
0E0000
0E0000
FFFFF0
FFFFF0
FFFFF0
0E0000
0E0000
0E0000
0E0000
0E0000
0E0000
0E0000
0E0000
0E0000
0E0000
0E0000
0E0000
0E0000
0FFFFE
0FFFFE
0FFFFE
ENDCHAR
STARTCHAR 00EA
ENCODING 234
SWIDTH 480 0
DWIDTH 24 0
BBX 23 45 1 0
BITMAP
00F800
00FC00
01DC00
03CE00
078F00
0F0780
0E0380
000000
000000
000000
0FFFC0
0FFFC0
0FFFC0
0E0000
0E0000
0E0000
0E0000
0E0000
0E0000
0E0000
0E0000
0E0000
0E0000
0E0000
0E0000
0E0000
FFFFF0
FFFFF0
FFFFF0
0E0000
0E0000
0E0000
0E0000
0E0000
0E0000
0E0000
0E0000
0E0000
0E0000
0E0000
0E0000
0E0000
0FFFFE
0FFFFE
0FFFFE
ENDCHAR
STARTCHAR 00EB
ENCODING 235
SWIDTH 480 0
DWIDTH 24 0
BBX 23 44 1 0
BITMAP
1F03C0
3F87E0
3F87F0
3F87F0
3F87E0
1F03E0
040100
000000
000000
0FFFC0
0FFFC0
0FFFC0
0E0000
0E0000
0E0000
0E0000
0E0000
0E0000
0E0000
0E0000
0E0000
0E0000
0E0000
0E0000
0E0000
FFFFF0
FFFFF0
FFFFF0
0E0000
0E0000
0E0000
0E0000
0E0000
0E0000
0E0000
0E0000
0E0000
0E0000
0E0000
0E0000
0E0000
0FFFFE
0FFFFE
0FFFFE
ENDCHAR
STARTCHAR 00EC
ENCODING 236
SWIDTH 160 0
DWIDTH 8 0
BBX 7 31 0 0
BITMAP
E0
F0
70
38
1C
1C
0E
00
00
1C
1C
1C
1C
1C
1C
1C
1C
1C
1C
1C
1C
1C
1C
1C
1C
1C
1C
1C
1C
1C
1C
ENDCHAR
STARTCHAR 00ED
ENCODING 237
SWIDTH 160 0
DWIDTH 8 0
BBX 7 31 2 0
BITMAP
0E
1C
1C
38
70
60
E0
00
00
70
70
70
70
70
70
70
70
70
70
70
70
70
70
70
70
70
70
70
70
70
70
ENDCHAR
STARTCHAR 00EE
ENCODING 238
SWIDTH 160 0
DWIDTH 8 0
BBX 15 31 -3 0
BITMAP
07C0
0FE0
1EF0
1C70
3838
701C
E00E
0000
0000
0380
0380
0380
0380
0380
0380
0380
0380
0380
0380
0380
0380
0380
0380
0380
0380
0380
0380
0380
0380
0380
0380
ENDCHAR
STARTCHAR 00EF
ENCODING 239
SWIDTH 160 0
DWIDTH 8 0
BBX 18 31 -4 0
BITMAP
380600
7C1F80
FE1F80
FE1FC0
FE1F80
FC1F80
380F00
000000
000000
01C000
01C000
01C000
01C000
01C000
01C000
01C000
01C000
01C000
01C000
01C000
01C000
01C000
01C000
01C000
01C000
01C000
01C000
01C000
01C000
01C000
01C000
ENDCHAR
STARTCHAR 00F1
ENCODING 241
SWIDTH 500 0
DWIDTH 25 0
BBX 22 44 1 0
BITMAP
03C000
07FF80
07FF80
000F00
000000
000000
000000
000000
400000
70003C
F8003C
FC003C
7F003C
7F803C
7FC03C
7BE03C
79F83C
78FC3C
787E3C
781FBC
780FFC
7807FC
7801FC
7800FC
78007C
78003C
78003C
78003C
78003C
78003C
78003C
78003C
78003C
78003C
78003C
78003C
78003C
78003C
78003C
78003C
78003C
78003C
78003C
78003C
ENDCHAR
STARTCHAR 00F2
ENCODING 242
SWIDTH 800 0
DWIDTH 40 0
BBX 37 46 2 -1
BITMAP
0007800000
0003800000
0001C00000
0001C00000
0000E00000
0000700000
0000300000
0000000000
0000000000
0001F80000
001FFF8000
007FFFE000
01FFFFF800
03F801FC00
07E0003F00
0F80001F80
1F00000F80
3E000007C0
3C000003E0
7C000001E0
78000000F0
78000000F0
F0000000F0
F000000078
F000000078
E000000078
E000000078
E000000078
E000000078
E000000078
F000000078
F000000078
F0000000F0
78000000F0
78000000F0
7C000001E0
3C000003E0
3E000007C0
1F00000F80
0F80001F80
07E0003F00
03F801FE00
01FFFFF800
007FFFF000
001FFF8000
0000F80000
ENDCHAR
STARTCHAR 00F3
ENCODING 243
SWIDTH 800 0
DWIDTH 40 0
BBX 37 46 2 -1
BITMAP
00000E0000
00001E0000
00001C0000
0000380000
0000700000
0000700000
0000E00000
0000000000
0000000000
0001F80000
001FFF8000
007FFFE000
01FFFFF800
03F801FC00
07E0003F00
0F80001F80
1F00000F80
3E000007C0
3C000003E0
7C000001E0
78000000F0
78000000F0
F0000000F0
F000000078
F000000078
E000000078
E000000078
E000000078
E000000078
E000000078
F000000078
F000000078
F0000000F0
78000000F0
78000000F0
7C000001E0
3C000003E0
3E000007C0
1F00000F80
0F80001F80
07E0003F00
03F801FE00
01FFFFF800
007FFFF000
001FFF8000
0000F80000
ENDCHAR
STARTCHAR 00F4
ENCODING 244
SWIDTH 800 0
DWIDTH 40 0
BBX 37 46 2 -1
BITMAP
0000F00000
0001F80000
0001FC0000
00039E0000
00070F0000
000F070000
001E038000
0000000000
0000000000
0001F80000
001FFF8000
007FFFE000
01FFFFF800
03F801FC00
07E0003F00
0F80001F80
1F00000F80
3E000007C0
3C000003E0
7C000001E0
78000000F0
78000000F0
F0000000F0
F000000078
F000000078
E000000078
E000000078
E000000078
E000000078
E000000078
F000000078
F000000078
F0000000F0
78000000F0
78000000F0
7C000001E0
3C000003E0
3E000007C0
1F00000F80
0F80001F80
07E0003F00
03F801FE00
01FFFFF800
007FFFF000
001FFF8000
0000F80000
ENDCHAR
STARTCHAR 00F5
ENCODING 245
SWIDTH 800 0
DWIDTH 40 0
BBX 37 45 2 -1
BITMAP
000F800000
000FFF0000
000FFF0000
00003C0000
0000000000
0000000000
0000000000
0000000000
0001F80000
001FFF8000
007FFFE000
01FFFFF800
03F801FC00
07E0003F00
0F80001F80
1F00000F80
3E000007C0
3C000003E0
7C000001E0
78000000F0
78000000F0
F0000000F0
F000000078
F000000078
E000000078
E000000078
E000000078
E000000078
E000000078
F000000078
F000000078
F0000000F0
78000000F0
78000000F0
7C000001E0
3C000003E0
3E000007C0
1F00000F80
0F80001F80
07E0003F00
03F801FE00
01FFFFF800
007FFFF000
001FFF8000
0000F80000
ENDCHAR
STARTCHAR 00F6
ENCODING 246
SWIDTH 800 0
DWIDTH 40 0
BBX 37 45 2 -1
BITMAP
001E03C000
003F07E000
003F8FE000
003F8FE000
003F07E000
001F07C000
0004008000
0000000000
0001F80000
001FFF8000
007FFFE000
01FFFFF800
03F801FC00
07E0003F00
0F80001F80
1F00000F80
3E000007C0
3C000003E0
7C000001E0
78000000F0
78000000F0
F0000000F0
F000000078
F000000078
E000000078
E000000078
E000000078
E000000078
E000000078
F000000078
F000000078
F0000000F0
78000000F0
78000000F0
7C000001E0
3C000003E0
3E000007C0
1F00000F80
0F80001F80
07E0003F00
03F801FE00
01FFFFF800
007FFFF000
001FFF8000
0000F80000
ENDCHAR
STARTCHAR 00F7
ENCODING 247
SWIDTH 540 0
DWIDTH 27 0
BBX 22 22 3 5
BITMAP
002000
00F800
00FC00
00FC00
00FC00
007800
000000
000000
000000
FFFFFC
FFFFFC
FFFFFC
FFFFFC
000000
000000
000000
00F800
00FC00
00FC00
00FC00
00F800
002000
ENDCHAR
STARTCHAR 00F8
ENCODING 248
SWIDTH 780 0
DWIDTH 39 0
BBX 37 37 1 -1
BITMAP
0000FC00C0
000FFFC1E0
003FFFF3C0
00FFFFFF80
01FC00FF80
07F0003F00
0FC0001F80
0F80003FC0
1F00007BE0
3E0000F1E0
3C0001E1F0
780001C0F0
780003C0F0
7800078078
F0000F0078
F0001E0078
F0003C0038
F000780038
F000700038
F000F00038
F001E00038
F003C00078
F007800078
780F000078
781E0000F0
7C3C0000F0
3C380001F0
3E780001E0
1FF00003E0
0FE00007C0
0FC0000F80
07E0003F00
0FFC00FE00
1EFFFFFC00
1E3FFFF000
3C0FFFC000
1800FC0000
ENDCHAR
STARTCHAR 00F9
ENCODING 249
SWIDTH 480 0
DWIDTH 24 0
BBX 21 46 2 -1
BITMAP
078000
038000
01C000
01E000
00E000
007000
003000
000000
000000
000000
F00078
F00078
F00078
F00078
F00078
F00078
F00078
F00078
F00078
F00078
F00078
F00078
F00078
F00078
F00078
F00078
F00078
F00078
F00078
F00078
F00078
F00078
F00078
F00078
F00078
F00078
F00078
F000F0
7800F0
7800F0
3C01E0
3E07E0
1FFFC0
0FFF80
07FE00
00F800
ENDCHAR
STARTCHAR 00FA
ENCODING 250
SWIDTH 480 0
DWIDTH 24 0
BBX 21 46 2 -1
BITMAP
000F00
001E00
001C00
003800
003800
007000
00E000
000000
000000
000000
F00078
F00078
F00078
F00078
F00078
F00078
F00078
F00078
F00078
F00078
F00078
F00078
F00078
F00078
F00078
F00078
F00078
F00078
F00078
F00078
F00078
F00078
F00078
F00078
F00078
F00078
F00078
F000F0
7800F0
7800F0
3C01E0
3E07E0
1FFFC0
0FFF80
07FE00
00F800
ENDCHAR
STARTCHAR 00FB
ENCODING 251
SWIDTH 480 0
DWIDTH 24 0
BBX 21 46 2 -1
BITMAP
00F800
00F800
01DC00
039E00
078F00
0F0780
0E0380
000000
000000
000000
F00078
F00078
F00078
F00078
F00078
F00078
F00078
F00078
F00078
F00078
F00078
F00078
F00078
F00078
F00078
F00078
F00078
F00078
F00078
F00078
F00078
F00078
F00078
F00078
F00078
F00078
F00078
F000F0
7800F0
7800F0
3C01E0
3E07E0
1FFFC0
0FFF80
07FE00
00F800
ENDCHAR
STARTCHAR 00FC
ENCODING 252
SWIDTH 480 0
DWIDTH 24 0
BBX 21 45 2 -1
BITMAP
1F03C0
3F07E0
3F87E0
3F8FE0
3F87E0
1F07C0
040000
000000
000000
F00078
F00078
F00078
F00078
F00078
F00078
F00078
F00078
F00078
F00078
F00078
F00078
F00078
F00078
F00078
F00078
F00078
F00078
F00078
F00078
F00078
F00078
F00078
F00078
F00078
F00078
F00078
F000F0
7800F0
7800F0
3C01E0
3E07E0
1FFFC0
0FFF80
07FE00
00F800
ENDCHAR
STARTCHAR 00FD
ENCODING 253
SWIDTH 480 0
DWIDTH 24 0
BBX 21 45 2 0
BITMAP
000E00
001E00
001C00
003800
007000
007000
00E000
000000
000000
000000
F00078
F00078
F00078
F00078
F00078
F00078
F00078
F00078
F00078
F00078
F00078
F00078
F00078
F00078
F00078
F00070
F00070
F000F0
F000F0
F000F0
7801E0
7C01E0
3E07C0
1FFFC0
0FFF80
07FE00
00F000
00F000
00F000
00F000
00F000
00F000
00F000
00F000
00F000
ENDCHAR
STARTCHAR 00FF
ENCODING 255
SWIDTH 480 0
DWIDTH 24 0
BBX 21 44 2 0
BITMAP
1E03C0
3F07E0
3F8FE0
3F8FE0
3F0FE0
1F07C0
000100
000000
000000
F00078
F00078
F00078
F00078
F00078
F00078
F00078
F00078
F00078
F00078
F00078
F00078
F00078
F00078
F00078
F00070
F00070
F000F0
F000F0
F000F0
7801E0
7C01E0
3E07C0
1FFFC0
0FFF80
07FE00
00F000
00F000
00F000
00F000
00F000
00F000
00F000
00F000
00F000
ENDCHAR
STARTCHAR 0100
ENCODING 256
SWIDTH 540 0
DWIDTH 27 0
BBX 25 43 2 0
BITMAP
0FFFC000
0FFFC000
0FFFC000
00000000
00000000
00000000
00000000
00F80000
03FF0000
0FFF8000
1FFFC000
1F03E000
3C01F000
7C00F000
78007000
78007800
70007800
70007800
70007800
F0007800
F0007800
F0007800
F0007800
F0007800
F0007800
F0007800
F0007800
F0007800
F0007800
F0007800
F0007800
F0007800
F0007800
F0007800
F0007800
F0007800
F0007800
F0007800
F0007800
F0007800
FFFFFF80
FFFFFF80
FFFFFF80
ENDCHAR
STARTCHAR 0101
ENCODING 257
SWIDTH 540 0
DWIDTH 27 0
BBX 25 43 2 0
BITMAP
0FFFC000
0FFFC000
0FFFC000
00000000
00000000
00000000
00000000
00F80000
03FF0000
0FFF8000
1FFFC000
1F03E000
3C01F000
7C00F000
78007000
78007800
70007800
70007800
70007800
F0007800
F0007800
F0007800
F0007800
F0007800
F0007800
F0007800
F0007800
F0007800
F0007800
F0007800
F0007800
F0007800
F0007800
F0007800
F0007800
F0007800
F0007800
F0007800
F0007800
F0007800
FFFFFF80
FFFFFF80
FFFFFF80
ENDCHAR
STARTCHAR 0102
ENCODING 258
SWIDTH 540 0
DWIDTH 27 0
BBX 25 45 2 0
BITMAP
0E018000
0E018000
0E038000
07038000
03DF0000
01FE0000
00F80000
00000000
00000000
00F80000
03FF0000
0FFF8000
1FFFC000
1F03E000
3C01F000
7C00F000
78007000
78007800
70007800
70007800
70007800
F0007800
F0007800
F0007800
F0007800
F0007800
F0007800
F0007800
F0007800
F0007800
F0007800
F0007800
F0007800
F0007800
F0007800
F0007800
F0007800
F0007800
F0007800
F0007800
F0007800
F0007800
FFFFFF80
FFFFFF80
FFFFFF80
ENDCHAR
STARTCHAR 0103
ENCODING 259
SWIDTH 540 0
DWIDTH 27 0
BBX 25 45 2 0
BITMAP
0E018000
0E018000
0E038000
07038000
03DF0000
01FE0000
00F80000
00000000
00000000
00F80000
03FF0000
0FFF8000
1FFFC000
1F03E000
3C01F000
7C00F000
78007000
78007800
70007800
70007800
70007800
F0007800
F0007800
F0007800
F0007800
F0007800
F0007800
F0007800
F0007800
F0007800
F0007800
F0007800
F0007800
F0007800
F0007800
F0007800
F0007800
F0007800
F0007800
F0007800
F0007800
F0007800
FFFFFF80
FFFFFF80
FFFFFF80
ENDCHAR
STARTCHAR 0104
ENCODING 260
SWIDTH 540 0
DWIDTH 27 0
BBX 26 45 2 -9
BITMAP
00F80000
03FF0000
0FFF8000
1FFFC000
1F03E000
3C01F000
7C00F000
78007000
78007800
70007800
70007800
70007800
F0007800
F0007800
F0007800
F0007800
F0007800
F0007800
F0007800
F0007800
F0007800
F0007800
F0007800
F0007800
F0007800
F0007800
F0007800
F0007800
F0007800
F0007800
F0007800
F0007800
F0007800
FFFFFF80
FFFFFF80
FFFFFF80
00000E00
00001800
00003000
00003000
00007000
00003000
000038C0
00001FC0
00000F00
ENDCHAR
STARTCHAR 0105
ENCODING 261
SWIDTH 540 0
DWIDTH 27 0
BBX 26 45 2 -9
BITMAP
00F80000
03FF0000
0FFF8000
1FFFC000
1F03E000
3C01F000
7C00F000
78007000
78007800
70007800
70007800
70007800
F0007800
F0007800
F0007800
F0007800
F0007800
F0007800
F0007800
F0007800
F0007800
F0007800
F0007800
F0007800
F0007800
F0007800
F0007800
F0007800
F0007800
F0007800
F0007800
F0007800
F0007800
FFFFFF80
FFFFFF80
FFFFFF80
00000E00
00001800
00003000
00003000
00007000
00003000
000038C0
00001FC0
00000F00
ENDCHAR
STARTCHAR 0106
ENCODING 262
SWIDTH 680 0
DWIDTH 34 0
BBX 31 46 2 -1
BITMAP
00000E00
00001C00
00003C00
00003800
00007000
0000E000
0000E000
00000000
00000000
0001F000
001FFF80
007FFFE0
01FFFFF0
03F803FC
07E0007E
0F80003E
1F00001E
3E000008
3C000000
7C000000
78000000
78000000
F0000000
F0000000
F0000000
E0000000
E0000000
E0000000
E0000000
E0000000
F0000000
F0000000
F0000000
78000000
78000000
7C000000
3C000000
3E000008
1F00001E
0F80003E
07E0007E
03F803FC
01FFFFF0
007FFFE0
001FFF80
0001F000
ENDCHAR
STARTCHAR 0107
ENCODING 263
SWIDTH 680 0
DWIDTH 34 0
BBX 31 46 2 -1
BITMAP
00000E00
00001C00
00003C00
00003800
00007000
0000E000
0000E000
00000000
00000000
0001F000
001FFF80
007FFFE0
01FFFFF0
03F803FC
07E0007E
0F80003E
1F00001E
3E000008
3C000000
7C000000
78000000
78000000
F0000000
F0000000
F0000000
E0000000
E0000000
E0000000
E0000000
E0000000
F0000000
F0000000
F0000000
78000000
78000000
7C000000
3C000000
3E000008
1F00001E
0F80003E
07E0007E
03F803FC
01FFFFF0
007FFFE0
001FFF80
0001F000
ENDCHAR
STARTCHAR 010A
ENCODING 266
SWIDTH 680 0
DWIDTH 34 0
BBX 31 47 2 -1
BITMAP
00002000
0000F800
0001F800
0001FC00
0001FC00
0001F800
0000F000
00000000
00000000
00000000
0001F000
001FFF80
007FFFE0
01FFFFF0
03F803FC
07E0007E
0F80003E
1F00001E
3E000008
3C000000
7C000000
78000000
78000000
F0000000
F0000000
F0000000
E0000000
E0000000
E0000000
E0000000
E0000000
F0000000
F0000000
F0000000
78000000
78000000
7C000000
3C000000
3E000008
1F00001E
0F80003E
07E0007E
03F803FC
01FFFFF0
007FFFE0
001FFF80
0001F000
ENDCHAR
STARTCHAR 010B
ENCODING 267
SWIDTH 680 0
DWIDTH 34 0
BBX 31 47 2 -1
BITMAP
00002000
0000F800
0001F800
0001FC00
0001FC00
0001F800
0000F000
00000000
00000000
00000000
0001F000
001FFF80
007FFFE0
01FFFFF0
03F803FC
07E0007E
0F80003E
1F00001E
3E000008
3C000000
7C000000
78000000
78000000
F0000000
F0000000
F0000000
E0000000
E0000000
E0000000
E0000000
E0000000
F0000000
F0000000
F0000000
78000000
78000000
7C000000
3C000000
3E000008
1F00001E
0F80003E
07E0007E
03F803FC
01FFFFF0
007FFFE0
001FFF80
0001F000
ENDCHAR
STARTCHAR 010C
ENCODING 268
SWIDTH 680 0
DWIDTH 34 0
BBX 31 46 2 -1
BITMAP
001E0780
000E0700
00070E00
00039C00
0003FC00
0001F800
00000000
00000000
00000000
0001F000
001FFF80
007FFFE0
01FFFFF0
03F803FC
07E0007E
0F80003E
1F00001E
3E000008
3C000000
7C000000
78000000
78000000
F0000000
F0000000
F0000000
E0000000
E0000000
E0000000
E0000000
E0000000
F0000000
F0000000
F0000000
78000000
78000000
7C000000
3C000000
3E000008
1F00001E
0F80003E
07E0007E
03F803FC
01FFFFF0
007FFFE0
001FFF80
0001F000
ENDCHAR
STARTCHAR 010D
ENCODING 269
SWIDTH 680 0
DWIDTH 34 0
BBX 31 46 2 -1
BITMAP
001E0780
000E0700
00070E00
00039C00
0003FC00
0001F800
00000000
00000000
00000000
0001F000
001FFF80
007FFFE0
01FFFFF0
03F803FC
07E0007E
0F80003E
1F00001E
3E000008
3C000000
7C000000
78000000
78000000
F0000000
F0000000
F0000000
E0000000
E0000000
E0000000
E0000000
E0000000
F0000000
F0000000
F0000000
78000000
78000000
7C000000
3C000000
3E000008
1F00001E
0F80003E
07E0007E
03F803FC
01FFFFF0
007FFFE0
001FFF80
0001F000
ENDCHAR
STARTCHAR 010E
ENCODING 270
SWIDTH 620 0
DWIDTH 31 0
BBX 27 45 3 0
BITMAP
1E038000
0F070000
078F0000
039E0000
01FC0000
00F80000
00000000
00000000
00000000
00000000
FFF80000
FFFF8000
FFFFE000
E0FFF000
E001FC00
E0007E00
E0001F00
E0000F00
E0000780
E0000780
E00003C0
E00003C0
E00001E0
E00001E0
E00001E0
E00001E0
E00001E0
E00001E0
E00001E0
E00001E0
E00001E0
E00001E0
E00001E0
E00003C0
E00003C0
E00007C0
E0000780
E0000F00
E0003F00
E0007E00
E001FC00
FFFFF800
FFFFE000
FFFF8000
FFFC0000
ENDCHAR
STARTCHAR 010F
ENCODING 271
SWIDTH 620 0
DWIDTH 31 0
BBX 27 45 3 0
BITMAP
1E038000
0F070000
078F0000
039E0000
01FC0000
00F80000
00000000
00000000
00000000
00000000
FFF80000
FFFF8000
FFFFE000
E0FFF000
E001FC00
E0007E00
E0001F00
E0000F00
E0000780
E0000780
E00003C0
E00003C0
E00001E0
E00001E0
E00001E0
E00001E0
E00001E0
E00001E0
E00001E0
E00001E0
E00001E0
E00001E0
E00001E0
E00003C0
E00003C0
E00007C0
E0000780
E0000F00
E0003F00
E0007E00
E001FC00
FFFFF800
FFFFE000
FFFF8000
FFFC0000
ENDCHAR
STARTCHAR 0110
ENCODING 272
SWIDTH 660 0
DWIDTH 33 0
BBX 31 35 1 0
BITMAP
0FFF8000
0FFFF800
0FFFFE00
0E0FFF00
0E001FC0
0E0007E0
0E0001F0
0E0000F0
0E000078
0E000078
0E00003C
0E00003C
0E00001E
0E00001E
0E00001E
FFFF801E
FFFF801E
FFFF801E
FFFF801E
0E00001E
0E00001E
0E00001E
0E00001E
0E00003C
0E00003C
0E00007C
0E000078
0E0000F0
0E0003F0
0E0007E0
0E001FC0
0FFFFF80
0FFFFE00
0FFFF800
0FFFC000
ENDCHAR
STARTCHAR 0111
ENCODING 273
SWIDTH 660 0
DWIDTH 33 0
BBX 31 35 1 0
BITMAP
0FFF8000
0FFFF800
0FFFFE00
0E0FFF00
0E001FC0
0E0007E0
0E0001F0
0E0000F0
0E000078
0E000078
0E00003C
0E00003C
0E00001E
0E00001E
0E00001E
FFFF801E
FFFF801E
FFFF801E
FFFF801E
0E00001E
0E00001E
0E00001E
0E00001E
0E00003C
0E00003C
0E00007C
0E000078
0E0000F0
0E0003F0
0E0007E0
0E001FC0
0FFFFF80
0FFFFE00
0FFFF800
0FFFC000
ENDCHAR
STARTCHAR 0112
ENCODING 274
SWIDTH 480 0
DWIDTH 24 0
BBX 23 43 1 0
BITMAP
0FFFC0
0FFFC0
0FFFC0
000000
000000
000000
000000
000000
0FFFC0
0FFFC0
0FFFC0
0E0000
0E0000
0E0000
0E0000
0E0000
0E0000
0E0000
0E0000
0E0000
0E0000
0E0000
0E0000
0E0000
FFFFF0
FFFFF0
FFFFF0
0E0000
0E0000
0E0000
0E0000
0E0000
0E0000
0E0000
0E0000
0E0000
0E0000
0E0000
0E0000
0E0000
0FFFFE
0FFFFE
0FFFFE
ENDCHAR
STARTCHAR 0113
ENCODING 275
SWIDTH 480 0
DWIDTH 24 0
BBX 23 43 1 0
BITMAP
0FFFC0
0FFFC0
0FFFC0
000000
000000
000000
000000
000000
0FFFC0
0FFFC0
0FFFC0
0E0000
0E0000
0E0000
0E0000
0E0000
0E0000
0E0000
0E0000
0E0000
0E0000
0E0000
0E0000
0E0000
FFFFF0
FFFFF0
FFFFF0
0E0000
0E0000
0E0000
0E0000
0E0000
0E0000
0E0000
0E0000
0E0000
0E0000
0E0000
0E0000
0E0000
0FFFFE
0FFFFE
0FFFFE
ENDCHAR
STARTCHAR 0116
ENCODING 278
SWIDTH 480 0
DWIDTH 24 0
BBX 23 46 1 0
BITMAP
002000
00F800
00FC00
01FC00
01FC00
00FC00
007800
000000
000000
000000
000000
0FFFC0
0FFFC0
0FFFC0
0E0000
0E0000
0E0000
0E0000
0E0000
0E0000
0E0000
0E0000
0E0000
0E0000
0E0000
0E0000
0E0000
FFFFF0
FFFFF0
FFFFF0
0E0000
0E0000
0E0000
0E0000
0E0000
0E0000
0E0000
0E0000
0E0000
0E0000
0E0000
0E0000
0E0000
0FFFFE
0FFFFE
0FFFFE
ENDCHAR
STARTCHAR 0117
ENCODING 279
SWIDTH 480 0
DWIDTH 24 0
BBX 23 46 1 0
BITMAP
002000
00F800
00FC00
01FC00
01FC00
00FC00
007800
000000
000000
000000
000000
0FFFC0
0FFFC0
0FFFC0
0E0000
0E0000
0E0000
0E0000
0E0000
0E0000
0E0000
0E0000
0E0000
0E0000
0E0000
0E0000
0E0000
FFFFF0
FFFFF0
FFFFF0
0E0000
0E0000
0E0000
0E0000
0E0000
0E0000
0E0000
0E0000
0E0000
0E0000
0E0000
0E0000
0E0000
0FFFFE
0FFFFE
0FFFFE
ENDCHAR
STARTCHAR 0118
ENCODING 280
SWIDTH 480 0
DWIDTH 24 0
BBX 25 44 1 -9
BITMAP
0FFFC000
0FFFC000
0FFFC000
0E000000
0E000000
0E000000
0E000000
0E000000
0E000000
0E000000
0E000000
0E000000
0E000000
0E000000
0E000000
0E000000
FFFFF000
FFFFF000
FFFFF000
0E000000
0E000000
0E000000
0E000000
0E000000
0E000000
0E000000
0E000000
0E000000
0E000000
0E000000
0E000000
0E000000
0FFFFE00
0FFFFE00
0FFFFE00
00003800
00007000
00006000
0000C000
0000C000
0000C100
0000E380
00007F00
00003E00
ENDCHAR
STARTCHAR 0119
ENCODING 281
SWIDTH 480 0
DWIDTH 24 0
BBX 25 44 1 -9
BITMAP
0FFFC000
0FFFC000
0FFFC000
0E000000
0E000000
0E000000
0E000000
0E000000
0E000000
0E000000
0E000000
0E000000
0E000000
0E000000
0E000000
0E000000
FFFFF000
FFFFF000
FFFFF000
0E000000
0E000000
0E000000
0E000000
0E000000
0E000000
0E000000
0E000000
0E000000
0E000000
0E000000
0E000000
0E000000
0FFFFE00
0FFFFE00
0FFFFE00
00003800
00007000
00006000
0000C000
0000C000
0000C100
0000E380
00007F00
00003E00
ENDCHAR
STARTCHAR 011A
ENCODING 282
SWIDTH 480 0
DWIDTH 24 0
BBX 23 45 1 0
BITMAP
0E0380
070780
078F00
03DE00
01FC00
00F800
000000
000000
000000
000000
0FFFC0
0FFFC0
0FFFC0
0E0000
0E0000
0E0000
0E0000
0E0000
0E0000
0E0000
0E0000
0E0000
0E0000
0E0000
0E0000
0E0000
FFFFF0
FFFFF0
FFFFF0
0E0000
0E0000
0E0000
0E0000
0E0000
0E0000
0E0000
0E0000
0E0000
0E0000
0E0000
0E0000
0E0000
0FFFFE
0FFFFE
0FFFFE
ENDCHAR
STARTCHAR 011B
ENCODING 283
SWIDTH 480 0
DWIDTH 24 0
BBX 23 45 1 0
BITMAP
0E0380
070780
078F00
03DE00
01FC00
00F800
000000
000000
000000
000000
0FFFC0
0FFFC0
0FFFC0
0E0000
0E0000
0E0000
0E0000
0E0000
0E0000
0E0000
0E0000
0E0000
0E0000
0E0000
0E0000
0E0000
FFFFF0
FFFFF0
FFFFF0
0E0000
0E0000
0E0000
0E0000
0E0000
0E0000
0E0000
0E0000
0E0000
0E0000
0E0000
0E0000
0E0000
0FFFFE
0FFFFE
0FFFFE
ENDCHAR
STARTCHAR 011E
ENCODING 286
SWIDTH 820 0
DWIDTH 41 0
BBX 39 46 2 -1
BITMAP
001C038000
001C038000
000C070000
000E070000
0007FE0000
0003FC0000
0001F00000
0000000000
0000000000
0001F80000
001FFF8000
007FFFE000
01FFFFF800
03F801FC00
07E0007E00
0F80001F00
1F00000E00
3E00000400
3C00000000
7C00000000
7800000000
7800000000
F000000000
F000000000
F000000000
E000000000
E0007FFFFE
E0007FFFFE
E0007FFFFE
E0000000F0
F0000000F0
F0000000F0
F0000000F0
78000001E0
78000001E0
7C000003E0
3C000003C0
3E00000780
1F00000F80
0F80001F00
07E0007E00
03F801FC00
01FFFFF800
007FFFE000
001FFF8000
0000F80000
ENDCHAR
STARTCHAR 011F
ENCODING 287
SWIDTH 820 0
DWIDTH 41 0
BBX 39 46 2 -1
BITMAP
001C038000
001C038000
000C070000
000E070000
0007FE0000
0003FC0000
0001F00000
0000000000
0000000000
0001F80000
001FFF8000
007FFFE000
01FFFFF800
03F801FC00
07E0007E00
0F80001F00
1F00000E00
3E00000400
3C00000000
7C00000000
7800000000
7800000000
F000000000
F000000000
F000000000
E000000000
E0007FFFFE
E0007FFFFE
E0007FFFFE
E0000000F0
F0000000F0
F0000000F0
F0000000F0
78000001E0
78000001E0
7C000003E0
3C000003C0
3E00000780
1F00000F80
0F80001F00
07E0007E00
03F801FC00
01FFFFF800
007FFFE000
001FFF8000
0000F80000
ENDCHAR
STARTCHAR 0120
ENCODING 288
SWIDTH 820 0
DWIDTH 41 0
BBX 39 47 2 -1
BITMAP
0000600000
0000F80000
0001FC0000
0001FC0000
0001FC0000
0001F80000
0000F00000
0000000000
0000000000
0000000000
0001F80000
001FFF8000
007FFFE000
01FFFFF800
03F801FC00
07E0007E00
0F80001F00
1F00000E00
3E00000400
3C00000000
7C00000000
7800000000
7800000000
F000000000
F000000000
F000000000
E000000000
E0007FFFFE
E0007FFFFE
E0007FFFFE
E0000000F0
F0000000F0
F0000000F0
F0000000F0
78000001E0
78000001E0
7C000003E0
3C000003C0
3E00000780
1F00000F80
0F80001F00
07E0007E00
03F801FC00
01FFFFF800
007FFFE000
001FFF8000
0000F80000
ENDCHAR
STARTCHAR 0121
ENCODING 289
SWIDTH 820 0
DWIDTH 41 0
BBX 39 47 2 -1
BITMAP
0000600000
0000F80000
0001FC0000
0001FC0000
0001FC0000
0001F80000
0000F00000
0000000000
0000000000
0000000000
0001F80000
001FFF8000
007FFFE000
01FFFFF800
03F801FC00
07E0007E00
0F80001F00
1F00000E00
3E00000400
3C00000000
7C00000000
7800000000
7800000000
F000000000
F000000000
F000000000
E000000000
E0007FFFFE
E0007FFFFE
E0007FFFFE
E0000000F0
F0000000F0
F0000000F0
F0000000F0
78000001E0
78000001E0
7C000003E0
3C000003C0
3E00000780
1F00000F80
0F80001F00
07E0007E00
03F801FC00
01FFFFF800
007FFFE000
001FFF8000
0000F80000
ENDCHAR
STARTCHAR 0124
ENCODING 292
SWIDTH 540 0
DWIDTH 27 0
BBX 24 45 1 0
BITMAP
000F00
001F80
003F80
0079C0
00F0E0
00E0F0
01C078
000000
000000
000000
0E000F
0E000F
0E000F
0E000F
0E000F
0E000F
0E000F
0E000F
0E000F
0E000F
0E000F
0E000F
0E000F
0E000F
FFFFFF
FFFFFF
FFFFFF
0E000F
0E000F
0E000F
0E000F
0E000F
0E000F
0E000F
0E000F
0E000F
0E000F
0E000F
0E000F
0E000F
0E000F
0E000F
0E000F
0E000F
0E000F
ENDCHAR
STARTCHAR 0125
ENCODING 293
SWIDTH 540 0
DWIDTH 27 0
BBX 24 45 1 0
BITMAP
000F00
001F80
003F80
0079C0
00F0E0
00E0F0
01C078
000000
000000
000000
0E000F
0E000F
0E000F
0E000F
0E000F
0E000F
0E000F
0E000F
0E000F
0E000F
0E000F
0E000F
0E000F
0E000F
FFFFFF
FFFFFF
FFFFFF
0E000F
0E000F
0E000F
0E000F
0E000F
0E000F
0E000F
0E000F
0E000F
0E000F
0E000F
0E000F
0E000F
0E000F
0E000F
0E000F
0E000F
0E000F
ENDCHAR
STARTCHAR 0128
ENCODING 296
SWIDTH 160 0
DWIDTH 8 0
BBX 12 30 -2 0
BITMAP
FE30
FFF0
87F0
0000
0000
0000
0000
0000
0700
0700
0700
0700
0700
0700
0700
0700
0700
0700
0700
0700
0700
0700
0700
0700
0700
0700
0700
0700
0700
0700
ENDCHAR
STARTCHAR 0129
ENCODING 297
SWIDTH 160 0
DWIDTH 8 0
BBX 12 30 -2 0
BITMAP
FE30
FFF0
87F0
0000
0000
0000
0000
0000
0700
0700
0700
0700
0700
0700
0700
0700
0700
0700
0700
0700
0700
0700
0700
0700
0700
0700
0700
0700
0700
0700
ENDCHAR
STARTCHAR 012A
ENCODING 298
SWIDTH 160 0
DWIDTH 8 0
BBX 14 29 -3 0
BITMAP
FFFC
FFFC
FFFC
0000
0000
0000
0000
0380
0380
0380
0380
0380
0380
0380
0380
0380
0380
0380
0380
0380
0380
0380
0380
0380
0380
0380
0380
0380
0380
ENDCHAR
STARTCHAR 012B
ENCODING 299
SWIDTH 160 0
DWIDTH 8 0
BBX 14 29 -3 0
BITMAP
FFFC
FFFC
FFFC
0000
0000
0000
0000
0380
0380
0380
0380
0380
0380
0380
0380
0380
0380
0380
0380
0380
0380
0380
0380
0380
0380
0380
0380
0380
0380
ENDCHAR
STARTCHAR 012E
ENCODING 302
SWIDTH 160 0
DWIDTH 8 0
BBX 11 48 -1 -8
BITMAP
0400
0400
0C00
0C00
FFE0
7F80
1F00
1F00
3F00
3100
4080
0000
0000
0000
0000
0000
0000
1E00
1E00
1E00
1E00
1E00
1E00
1E00
1E00
1E00
1E00
1E00
1E00
1E00
1E00
1E00
1E00
1E00
1E00
1E00
1E00
1E00
1E00
3800
7000
E000
C000
C000
C100
E380
7F00
3C00
ENDCHAR
STARTCHAR 012F
ENCODING 303
SWIDTH 160 0
DWIDTH 8 0
BBX 11 48 -1 -8
BITMAP
0400
0400
0C00
0C00
FFE0
7F80
1F00
1F00
3F00
3100
4080
0000
0000
0000
0000
0000
0000
1E00
1E00
1E00
1E00
1E00
1E00
1E00
1E00
1E00
1E00
1E00
1E00
1E00
1E00
1E00
1E00
1E00
1E00
1E00
1E00
1E00
1E00
3800
7000
E000
C000
C000
C100
E380
7F00
3C00
ENDCHAR
STARTCHAR 0130
ENCODING 304
SWIDTH 160 0
DWIDTH 8 0
BBX 7 32 1 0
BITMAP
3C
7E
FE
FE
FE
7C
38
00
00
00
38
38
38
38
38
38
38
38
38
38
38
38
38
38
38
38
38
38
38
38
38
38
ENDCHAR
STARTCHAR 0139
ENCODING 313
SWIDTH 420 0
DWIDTH 21 0
BBX 18 45 2 0
BITMAP
0F0000
1E0000
1C0000
380000
380000
700000
E00000
000000
000000
000000
700000
700000
700000
700000
700000
700000
700000
700000
700000
700000
700000
700000
700000
700000
700000
700000
700000
700000
700000
700000
700000
700000
700000
700000
700000
700000
700000
700000
700000
700000
700000
7FFFC0
7FFFC0
7FFFC0
7FFFC0
ENDCHAR
STARTCHAR 013A
ENCODING 314
SWIDTH 420 0
DWIDTH 21 0
BBX 18 45 2 0
BITMAP
0F0000
1E0000
1C0000
380000
380000
700000
E00000
000000
000000
000000
700000
700000
700000
700000
700000
700000
700000
700000
700000
700000
700000
700000
700000
700000
700000
700000
700000
700000
700000
700000
700000
700000
700000
700000
700000
700000
700000
700000
700000
700000
700000
7FFFC0
7FFFC0
7FFFC0
7FFFC0
ENDCHAR
STARTCHAR 013D
ENCODING 317
SWIDTH 420 0
DWIDTH 21 0
BBX 22 45 -2 0
BITMAP
E03800
F07000
78F000
3DE000
1FC000
0F8000
000000
000000
000000
000000
070000
070000
070000
070000
070000
070000
070000
070000
070000
070000
070000
070000
070000
070000
070000
070000
070000
070000
070000
070000
070000
070000
070000
070000
070000
070000
070000
070000
070000
070000
070000
07FFFC
07FFFC
07FFFC
07FFFC
ENDCHAR
STARTCHAR 013E
ENCODING 318
SWIDTH 420 0
DWIDTH 21 0
BBX 22 45 -2 0
BITMAP
E03800
F07000
78F000
3DE000
1FC000
0F8000
000000
000000
000000
000000
070000
070000
070000
070000
070000
070000
070000
070000
070000
070000
070000
070000
070000
070000
070000
070000
070000
070000
070000
070000
070000
070000
070000
070000
070000
070000
070000
070000
070000
070000
070000
07FFFC
07FFFC
07FFFC
07FFFC
ENDCHAR
STARTCHAR 0141
ENCODING 321
SWIDTH 460 0
DWIDTH 23 0
BBX 23 35 0 0
BITMAP
078000
078000
078000
078000
078000
078000
078000
078000
078000
078000
078000
078000
078000
078E00
07BE00
07FC00
07F000
0FC000
3F8000
FF8000
778000
478000
078000
078000
078000
078000
078000
078000
078000
078000
078000
07FFFE
07FFFE
07FFFE
07FFFE
ENDCHAR
STARTCHAR 0142
ENCODING 322
SWIDTH 460 0
DWIDTH 23 0
BBX 23 35 0 0
BITMAP
078000
078000
078000
078000
078000
078000
078000
078000
078000
078000
078000
078000
078000
078E00
07BE00
07FC00
07F000
0FC000
3F8000
FF8000
778000
478000
078000
078000
078000
078000
078000
078000
078000
078000
078000
07FFFE
07FFFE
07FFFE
07FFFE
ENDCHAR
STARTCHAR 0143
ENCODING 323
SWIDTH 500 0
DWIDTH 25 0
BBX 22 45 1 0
BITMAP
000780
000700
000E00
001C00
001C00
003800
007000
000000
000000
400000
70003C
F8003C
FC003C
7F003C
7F803C
7FC03C
7BE03C
79F83C
78FC3C
787E3C
781FBC
780FFC
7807FC
7801FC
7800FC
78007C
78003C
78003C
78003C
78003C
78003C
78003C
78003C
78003C
78003C
78003C
78003C
78003C
78003C
78003C
78003C
78003C
78003C
78003C
78003C
ENDCHAR
STARTCHAR 0144
ENCODING 324
SWIDTH 500 0
DWIDTH 25 0
BBX 22 45 1 0
BITMAP
000780
000700
000E00
001C00
001C00
003800
007000
000000
000000
400000
70003C
F8003C
FC003C
7F003C
7F803C
7FC03C
7BE03C
79F83C
78FC3C
787E3C
781FBC
780FFC
7807FC
7801FC
7800FC
78007C
78003C
78003C
78003C
78003C
78003C
78003C
78003C
78003C
78003C
78003C
78003C
78003C
78003C
78003C
78003C
78003C
78003C
78003C
78003C
ENDCHAR
STARTCHAR 0147
ENCODING 327
SWIDTH 500 0
DWIDTH 25 0
BBX 22 45 1 0
BITMAP
0701C0
078380
03C780
01EF00
00FE00
007C00
000000
000000
000000
400000
70003C
F8003C
FC003C
7F003C
7F803C
7FC03C
7BE03C
79F83C
78FC3C
787E3C
781FBC
780FFC
7807FC
7801FC
7800FC
78007C
78003C
78003C
78003C
78003C
78003C
78003C
78003C
78003C
78003C
78003C
78003C
78003C
78003C
78003C
78003C
78003C
78003C
78003C
78003C
ENDCHAR
STARTCHAR 0148
ENCODING 328
SWIDTH 500 0
DWIDTH 25 0
BBX 22 45 1 0
BITMAP
0701C0
078380
03C780
01EF00
00FE00
007C00
000000
000000
000000
400000
70003C
F8003C
FC003C
7F003C
7F803C
7FC03C
7BE03C
79F83C
78FC3C
787E3C
781FBC
780FFC
7807FC
7801FC
7800FC
78007C
78003C
78003C
78003C
78003C
78003C
78003C
78003C
78003C
78003C
78003C
78003C
78003C
78003C
78003C
78003C
78003C
78003C
78003C
78003C
ENDCHAR
STARTCHAR 014C
ENCODING 332
SWIDTH 800 0
DWIDTH 40 0
BBX 37 44 2 -1
BITMAP
001FFF8000
001FFF8000
001FFF8000
0000000000
0000000000
0000000000
0000000000
0001F80000
001FFF8000
007FFFE000
01FFFFF800
03F801FC00
07E0003F00
0F80001F80
1F00000F80
3E000007C0
3C000003E0
7C000001E0
78000000F0
78000000F0
F0000000F0
F000000078
F000000078
E000000078
E000000078
E000000078
E000000078
E000000078
F000000078
F000000078
F0000000F0
78000000F0
78000000F0
7C000001E0
3C000003E0
3E000007C0
1F00000F80
0F80001F80
07E0003F00
03F801FE00
01FFFFF800
007FFFF000
001FFF8000
0000F80000
ENDCHAR
STARTCHAR 014D
ENCODING 333
SWIDTH 800 0
DWIDTH 40 0
BBX 37 44 2 -1
BITMAP
001FFF8000
001FFF8000
001FFF8000
0000000000
0000000000
0000000000
0000000000
0001F80000
001FFF8000
007FFFE000
01FFFFF800
03F801FC00
07E0003F00
0F80001F80
1F00000F80
3E000007C0
3C000003E0
7C000001E0
78000000F0
78000000F0
F0000000F0
F000000078
F000000078
E000000078
E000000078
E000000078
E000000078
E000000078
F000000078
F000000078
F0000000F0
78000000F0
78000000F0
7C000001E0
3C000003E0
3E000007C0
1F00000F80
0F80001F80
07E0003F00
03F801FE00
01FFFFF800
007FFFF000
001FFF8000
0000F80000
ENDCHAR
STARTCHAR 0150
ENCODING 336
SWIDTH 800 0
DWIDTH 40 0
BBX 37 46 2 -1
BITMAP
0000F07000
0000E0E000
0001C1E000
000381C000
0003838000
0007070000
000E070000
0000000000
0000000000
0001F80000
001FFF8000
007FFFE000
01FFFFF800
03F801FC00
07E0003F00
0F80001F80
1F00000F80
3E000007C0
3C000003E0
7C000001E0
78000000F0
78000000F0
F0000000F0
F000000078
F000000078
E000000078
E000000078
E000000078
E000000078
E000000078
F000000078
F000000078
F0000000F0
78000000F0
78000000F0
7C000001E0
3C000003E0
3E000007C0
1F00000F80
0F80001F80
07E0003F00
03F801FE00
01FFFFF800
007FFFF000
001FFF8000
0000F80000
ENDCHAR
STARTCHAR 0151
ENCODING 337
SWIDTH 800 0
DWIDTH 40 0
BBX 37 46 2 -1
BITMAP
0000F07000
0000E0E000
0001C1E000
000381C000
0003838000
0007070000
000E070000
0000000000
0000000000
0001F80000
001FFF8000
007FFFE000
01FFFFF800
03F801FC00
07E0003F00
0F80001F80
1F00000F80
3E000007C0
3C000003E0
7C000001E0
78000000F0
78000000F0
F0000000F0
F000000078
F000000078
E000000078
E000000078
E000000078
E000000078
E000000078
F000000078
F000000078
F0000000F0
78000000F0
78000000F0
7C000001E0
3C000003E0
3E000007C0
1F00000F80
0F80001F80
07E0003F00
03F801FE00
01FFFFF800
007FFFF000
001FFF8000
0000F80000
ENDCHAR
STARTCHAR 0154
ENCODING 340
SWIDTH 560 0
DWIDTH 28 0
BBX 26 45 1 0
BITMAP
0001C000
00038000
00078000
00070000
000E0000
001C0000
001C0000
00000000
00000000
00000000
0FFFC000
0FFFF800
0FFFFC00
0E03FE00
0E003F00
0E000F80
0E000780
0E0003C0
0E0003C0
0E0003C0
0E0003C0
0E0003C0
0E0003C0
0E000380
0E000780
0E000F80
0E003F00
FFFFFE00
FFFFFC00
FFFFF000
FFFFF800
0E00FC00
0E003C00
0E001E00
0E001E00
0E000F00
0E000F00
0E000F00
0E000F00
0E000700
0E000700
0E000700
0E000700
0E000700
0E000700
ENDCHAR
STARTCHAR 0155
ENCODING 341
SWIDTH 560 0
DWIDTH 28 0
BBX 26 45 1 0
BITMAP
0001C000
00038000
00078000
00070000
000E0000
001C0000
001C0000
00000000
00000000
00000000
0FFFC000
0FFFF800
0FFFFC00
0E03FE00
0E003F00
0E000F80
0E000780
0E0003C0
0E0003C0
0E0003C0
0E0003C0
0E0003C0
0E0003C0
0E000380
0E000780
0E000F80
0E003F00
FFFFFE00
FFFFFC00
FFFFF000
FFFFF800
0E00FC00
0E003C00
0E001E00
0E001E00
0E000F00
0E000F00
0E000F00
0E000F00
0E000700
0E000700
0E000700
0E000700
0E000700
0E000700
ENDCHAR
STARTCHAR 0158
ENCODING 344
SWIDTH 560 0
DWIDTH 28 0
BBX 26 45 1 0
BITMAP
0380F000
01C0E000
00E1C000
00738000
007F8000
003F0000
00000000
00000000
00000000
00000000
0FFFC000
0FFFF800
0FFFFC00
0E03FE00
0E003F00
0E000F80
0E000780
0E0003C0
0E0003C0
0E0003C0
0E0003C0
0E0003C0
0E0003C0
0E000380
0E000780
0E000F80
0E003F00
FFFFFE00
FFFFFC00
FFFFF000
FFFFF800
0E00FC00
0E003C00
0E001E00
0E001E00
0E000F00
0E000F00
0E000F00
0E000F00
0E000700
0E000700
0E000700
0E000700
0E000700
0E000700
ENDCHAR
STARTCHAR 0159
ENCODING 345
SWIDTH 560 0
DWIDTH 28 0
BBX 26 45 1 0
BITMAP
0380F000
01C0E000
00E1C000
00738000
007F8000
003F0000
00000000
00000000
00000000
00000000
0FFFC000
0FFFF800
0FFFFC00
0E03FE00
0E003F00
0E000F80
0E000780
0E0003C0
0E0003C0
0E0003C0
0E0003C0
0E0003C0
0E0003C0
0E000380
0E000780
0E000F80
0E003F00
FFFFFE00
FFFFFC00
FFFFF000
FFFFF800
0E00FC00
0E003C00
0E001E00
0E001E00
0E000F00
0E000F00
0E000F00
0E000F00
0E000700
0E000700
0E000700
0E000700
0E000700
0E000700
ENDCHAR
STARTCHAR 015A
ENCODING 346
SWIDTH 480 0
DWIDTH 24 0
BBX 22 46 1 -1
BITMAP
000700
000E00
001E00
001C00
003800
003000
007000
000000
000000
00FC00
03FF00
07FFC0
0FFFE0
1F03E0
1E00F0
3C00F0
3C0078
3C0078
3C0060
3C0000
1E0000
1F0000
0F8000
07C000
03F000
01FC00
00FE00
003F80
000FC0
0007E0
0001F0
0000F8
000078
000078
00003C
10003C
F0003C
78003C
78003C
7C0078
3E00F8
3F01F0
1FFFF0
0FFFE0
03FF80
007C00
ENDCHAR
STARTCHAR 015B
ENCODING 347
SWIDTH 480 0
DWIDTH 24 0
BBX 22 46 1 -1
BITMAP
000700
000E00
001E00
001C00
003800
003000
007000
000000
000000
00FC00
03FF00
07FFC0
0FFFE0
1F03E0
1E00F0
3C00F0
3C0078
3C0078
3C0060
3C0000
1E0000
1F0000
0F8000
07C000
03F000
01FC00
00FE00
003F80
000FC0
0007E0
0001F0
0000F8
000078
000078
00003C
10003C
F0003C
78003C
78003C
7C0078
3E00F8
3F01F0
1FFFF0
0FFFE0
03FF80
007C00
ENDCHAR
STARTCHAR 015E
ENCODING 350
SWIDTH 480 0
DWIDTH 24 0
BBX 22 47 1 -11
BITMAP
00FC00
03FF00
07FFC0
0FFFE0
1F03E0
1E00F0
3C00F0
3C0078
3C0078
3C0060
3C0000
1E0000
1F0000
0F8000
07C000
03F000
01FC00
00FE00
003F80
000FC0
0007E0
0001F0
0000F8
000078
000078
00003C
10003C
F0003C
78003C
78003C
7C0078
3E00F8
3F01F0
1FFFF0
0FFFC0
03FF80
007C00
003000
003C00
000E00
000600
000300
020300
070700
03FE00
01FC00
002000
ENDCHAR
STARTCHAR 015F
ENCODING 351
SWIDTH 480 0
DWIDTH 24 0
BBX 22 47 1 -11
BITMAP
00FC00
03FF00
07FFC0
0FFFE0
1F03E0
1E00F0
3C00F0
3C0078
3C0078
3C0060
3C0000
1E0000
1F0000
0F8000
07C000
03F000
01FC00
00FE00
003F80
000FC0
0007E0
0001F0
0000F8
000078
000078
00003C
10003C
F0003C
78003C
78003C
7C0078
3E00F8
3F01F0
1FFFF0
0FFFC0
03FF80
007C00
003000
003C00
000E00
000600
000300
020300
070700
03FE00
01FC00
002000
ENDCHAR
STARTCHAR 0160
ENCODING 352
SWIDTH 480 0
DWIDTH 24 0
BBX 22 46 1 -1
BITMAP
0F03C0
070380
038700
01CE00
01FE00
00FC00
000000
000000
000000
00FC00
03FF00
07FFC0
0FFFE0
1F03E0
1E00F0
3C00F0
3C0078
3C0078
3C0060
3C0000
1E0000
1F0000
0F8000
07C000
03F000
01FC00
00FE00
003F80
000FC0
0007E0
0001F0
0000F8
000078
000078
00003C
10003C
F0003C
78003C
78003C
7C0078
3E00F8
3F01F0
1FFFF0
0FFFE0
03FF80
007C00
ENDCHAR
STARTCHAR 0161
ENCODING 353
SWIDTH 480 0
DWIDTH 24 0
BBX 22 46 1 -1
BITMAP
0F03C0
070380
038700
01CE00
01FE00
00FC00
000000
000000
000000
00FC00
03FF00
07FFC0
0FFFE0
1F03E0
1E00F0
3C00F0
3C0078
3C0078
3C0060
3C0000
1E0000
1F0000
0F8000
07C000
03F000
01FC00
00FE00
003F80
000FC0
0007E0
0001F0
0000F8
000078
000078
00003C
10003C
F0003C
78003C
78003C
7C0078
3E00F8
3F01F0
1FFFF0
0FFFE0
03FF80
007C00
ENDCHAR
STARTCHAR 0162
ENCODING 354
SWIDTH 480 0
DWIDTH 24 0
BBX 23 46 1 -11
BITMAP
FFFFFE
FFFFFE
FFFFFE
007800
007800
007800
007800
007800
007800
007800
007800
007800
007800
007800
007800
007800
007800
007800
007800
007800
007800
007800
007800
007800
007800
007800
007800
007800
007800
007800
007800
007800
007800
007800
007800
003000
007000
007C00
000E00
000600
000600
020600
070600
03FE00
01FC00
002000
ENDCHAR
STARTCHAR 0163
ENCODING 355
SWIDTH 480 0
DWIDTH 24 0
BBX 23 46 1 -11
BITMAP
FFFFFE
FFFFFE
FFFFFE
007800
007800
007800
007800
007800
007800
007800
007800
007800
007800
007800
007800
007800
007800
007800
007800
007800
007800
007800
007800
007800
007800
007800
007800
007800
007800
007800
007800
007800
007800
007800
007800
003000
007000
007C00
000E00
000600
000600
020600
070600
03FE00
01FC00
002000
ENDCHAR
STARTCHAR 0164
ENCODING 356
SWIDTH 480 0
DWIDTH 24 0
BBX 23 45 1 0
BITMAP
0F01C0
078380
03C700
01CF00
00FE00
00FC00
000000
000000
000000
000000
FFFFFE
FFFFFE
FFFFFE
007800
007800
007800
007800
007800
007800
007800
007800
007800
007800
007800
007800
007800
007800
007800
007800
007800
007800
007800
007800
007800
007800
007800
007800
007800
007800
007800
007800
007800
007800
007800
007800
ENDCHAR
STARTCHAR 0165
ENCODING 357
SWIDTH 480 0
DWIDTH 24 0
BBX 23 45 1 0
BITMAP
0F01C0
078380
03C700
01CF00
00FE00
00FC00
000000
000000
000000
000000
FFFFFE
FFFFFE
FFFFFE
007800
007800
007800
007800
007800
007800
007800
007800
007800
007800
007800
007800
007800
007800
007800
007800
007800
007800
007800
007800
007800
007800
007800
007800
007800
007800
007800
007800
007800
007800
007800
007800
ENDCHAR
STARTCHAR 0168
ENCODING 360
SWIDTH 480 0
DWIDTH 24 0
BBX 21 45 2 -1
BITMAP
0F8000
0FFF00
0FFF00
001C00
000000
000000
000000
000000
000000
F00078
F00078
F00078
F00078
F00078
F00078
F00078
F00078
F00078
F00078
F00078
F00078
F00078
F00078
F00078
F00078
F00078
F00078
F00078
F00078
F00078
F00078
F00078
F00078
F00078
F00078
F00078
F000F0
7800F0
7800F0
3C01E0
3E07E0
1FFFC0
0FFF80
07FE00
00F800
ENDCHAR
STARTCHAR 0169
ENCODING 361
SWIDTH 480 0
DWIDTH 24 0
BBX 21 45 2 -1
BITMAP
0F8000
0FFF00
0FFF00
001C00
000000
000000
000000
000000
000000
F00078
F00078
F00078
F00078
F00078
F00078
F00078
F00078
F00078
F00078
F00078
F00078
F00078
F00078
F00078
F00078
F00078
F00078
F00078
F00078
F00078
F00078
F00078
F00078
F00078
F00078
F00078
F000F0
7800F0
7800F0
3C01E0
3E07E0
1FFFC0
0FFF80
07FE00
00F800
ENDCHAR
STARTCHAR 016A
ENCODING 362
SWIDTH 480 0
DWIDTH 24 0
BBX 21 44 2 -1
BITMAP
1FFF80
1FFF80
1FFF80
000000
000000
000000
000000
000000
F00078
F00078
F00078
F00078
F00078
F00078
F00078
F00078
F00078
F00078
F00078
F00078
F00078
F00078
F00078
F00078
F00078
F00078
F00078
F00078
F00078
F00078
F00078
F00078
F00078
F00078
F00078
F000F0
7800F0
7800F0
3C01E0
3E07E0
1FFFC0
0FFF80
07FE00
00F800
ENDCHAR
STARTCHAR 016B
ENCODING 363
SWIDTH 480 0
DWIDTH 24 0
BBX 21 44 2 -1
BITMAP
1FFF80
1FFF80
1FFF80
000000
000000
000000
000000
000000
F00078
F00078
F00078
F00078
F00078
F00078
F00078
F00078
F00078
F00078
F00078
F00078
F00078
F00078
F00078
F00078
F00078
F00078
F00078
F00078
F00078
F00078
F00078
F00078
F00078
F00078
F00078
F000F0
7800F0
7800F0
3C01E0
3E07E0
1FFFC0
0FFF80
07FE00
00F800
ENDCHAR
STARTCHAR 016E
ENCODING 366
SWIDTH 480 0
DWIDTH 24 0
BBX 21 49 2 -1
BITMAP
00F000
01FC00
039E00
030600
070600
070600
030600
038E00
01FC00
00F800
000000
000000
000000
F00078
F00078
F00078
F00078
F00078
F00078
F00078
F00078
F00078
F00078
F00078
F00078
F00078
F00078
F00078
F00078
F00078
F00078
F00078
F00078
F00078
F00078
F00078
F00078
F00078
F00078
F00078
F000F0
7800F0
7800F0
3C01E0
3E07E0
1FFFC0
0FFF80
07FE00
00F800
ENDCHAR
STARTCHAR 016F
ENCODING 367
SWIDTH 480 0
DWIDTH 24 0
BBX 21 49 2 -1
BITMAP
00F000
01FC00
039E00
030600
070600
070600
030600
038E00
01FC00
00F800
000000
000000
000000
F00078
F00078
F00078
F00078
F00078
F00078
F00078
F00078
F00078
F00078
F00078
F00078
F00078
F00078
F00078
F00078
F00078
F00078
F00078
F00078
F00078
F00078
F00078
F00078
F00078
F00078
F00078
F000F0
7800F0
7800F0
3C01E0
3E07E0
1FFFC0
0FFF80
07FE00
00F800
ENDCHAR
STARTCHAR 0170
ENCODING 368
SWIDTH 480 0
DWIDTH 24 0
BBX 21 46 2 -1
BITMAP
00F070
00E0F0
01C0E0
03C1C0
038380
070300
060700
000000
000000
000000
F00078
F00078
F00078
F00078
F00078
F00078
F00078
F00078
F00078
F00078
F00078
F00078
F00078
F00078
F00078
F00078
F00078
F00078
F00078
F00078
F00078
F00078
F00078
F00078
F00078
F00078
F00078
F000F0
7800F0
7800F0
3C01E0
3E07E0
1FFFC0
0FFF80
07FE00
00F800
ENDCHAR
STARTCHAR 0171
ENCODING 369
SWIDTH 480 0
DWIDTH 24 0
BBX 21 46 2 -1
BITMAP
00F070
00E0F0
01C0E0
03C1C0
038380
070300
060700
000000
000000
000000
F00078
F00078
F00078
F00078
F00078
F00078
F00078
F00078
F00078
F00078
F00078
F00078
F00078
F00078
F00078
F00078
F00078
F00078
F00078
F00078
F00078
F00078
F00078
F00078
F00078
F00078
F00078
F000F0
7800F0
7800F0
3C01E0
3E07E0
1FFFC0
0FFF80
07FE00
00F800
ENDCHAR
STARTCHAR 0172
ENCODING 370
SWIDTH 480 0
DWIDTH 24 0
BBX 21 44 2 -9
BITMAP
F00078
F00078
F00078
F00078
F00078
F00078
F00078
F00078
F00078
F00078
F00078
F00078
F00078
F00078
F00078
F00078
F00078
F00078
F00078
F00078
F00078
F00078
F00078
F00078
F00078
F00078
F00078
F000F0
7800F0
7800F0
3C01E0
3E07E0
1FFFC0
0FFF80
07FE00
00F800
00C000
018000
038000
030000
038000
038600
01FE00
00FC00
ENDCHAR
STARTCHAR 0173
ENCODING 371
SWIDTH 480 0
DWIDTH 24 0
BBX 21 44 2 -9
BITMAP
F00078
F00078
F00078
F00078
F00078
F00078
F00078
F00078
F00078
F00078
F00078
F00078
F00078
F00078
F00078
F00078
F00078
F00078
F00078
F00078
F00078
F00078
F00078
F00078
F00078
F00078
F00078
F000F0
7800F0
7800F0
3C01E0
3E07E0
1FFFC0
0FFF80
07FE00
00F800
00C000
018000
038000
030000
038000
038600
01FE00
00FC00
ENDCHAR
STARTCHAR 0176
ENCODING 374
SWIDTH 480 0
DWIDTH 24 0
BBX 21 45 2 0
BITMAP
00F000
01F800
03FC00
039E00
070E00
0E0700
1E0380
000000
000000
000000
F00078
F00078
F00078
F00078
F00078
F00078
F00078
F00078
F00078
F00078
F00078
F00078
F00078
F00078
F00078
F00070
F00070
F000F0
F000F0
F000F0
7801E0
7C01E0
3E07C0
1FFFC0
0FFF80
07FE00
00F000
00F000
00F000
00F000
00F000
00F000
00F000
00F000
00F000
ENDCHAR
STARTCHAR 0177
ENCODING 375
SWIDTH 480 0
DWIDTH 24 0
BBX 21 45 2 0
BITMAP
00F000
01F800
03FC00
039E00
070E00
0E0700
1E0380
000000
000000
000000
F00078
F00078
F00078
F00078
F00078
F00078
F00078
F00078
F00078
F00078
F00078
F00078
F00078
F00078
F00078
F00070
F00070
F000F0
F000F0
F000F0
7801E0
7C01E0
3E07C0
1FFFC0
0FFF80
07FE00
00F000
00F000
00F000
00F000
00F000
00F000
00F000
00F000
00F000
ENDCHAR
STARTCHAR 0178
ENCODING 376
SWIDTH 480 0
DWIDTH 24 0
BBX 21 44 2 0
BITMAP
1E03C0
3F07E0
3F8FE0
3F8FE0
3F0FE0
1F07C0
000100
000000
000000
F00078
F00078
F00078
F00078
F00078
F00078
F00078
F00078
F00078
F00078
F00078
F00078
F00078
F00078
F00078
F00070
F00070
F000F0
F000F0
F000F0
7801E0
7C01E0
3E07C0
1FFFC0
0FFF80
07FE00
00F000
00F000
00F000
00F000
00F000
00F000
00F000
00F000
00F000
ENDCHAR
STARTCHAR 0179
ENCODING 377
SWIDTH 480 0
DWIDTH 24 0
BBX 23 45 1 0
BITMAP
000780
000700
000E00
001C00
001C00
003800
007000
000000
000000
000000
FFFFFE
FFFFFE
FFFFFC
00003C
000078
0000F8
0000F0
0001E0
0001E0
0003C0
0007C0
000780
000F00
000F00
001E00
003E00
003C00
007800
00F800
00F000
01F000
01E000
03C000
07C000
078000
0F8000
0F0000
1E0000
3E0000
3C0000
7C0000
7FFFFC
FFFFFC
FFFFFC
FFFFFC
ENDCHAR
STARTCHAR 017A
ENCODING 378
SWIDTH 480 0
DWIDTH 24 0
BBX 23 45 1 0
BITMAP
000780
000700
000E00
001C00
001C00
003800
007000
000000
000000
000000
FFFFFE
FFFFFE
FFFFFC
00003C
000078
0000F8
0000F0
0001E0
0001E0
0003C0
0007C0
000780
000F00
000F00
001E00
003E00
003C00
007800
00F800
00F000
01F000
01E000
03C000
07C000
078000
0F8000
0F0000
1E0000
3E0000
3C0000
7C0000
7FFFFC
FFFFFC
FFFFFC
FFFFFC
ENDCHAR
STARTCHAR 017B
ENCODING 379
SWIDTH 480 0
DWIDTH 24 0
BBX 23 46 1 0
BITMAP
001800
007C00
00FE00
00FE00
00FE00
007E00
003C00
000000
000000
000000
000000
FFFFFE
FFFFFE
FFFFFC
00003C
000078
0000F8
0000F0
0001E0
0001E0
0003C0
0007C0
000780
000F00
000F00
001E00
003E00
003C00
007800
00F800
00F000
01F000
01E000
03C000
07C000
078000
0F8000
0F0000
1E0000
3E0000
3C0000
7C0000
7FFFFC
FFFFFC
FFFFFC
FFFFFC
ENDCHAR
STARTCHAR 017C
ENCODING 380
SWIDTH 480 0
DWIDTH 24 0
BBX 23 46 1 0
BITMAP
001800
007C00
00FE00
00FE00
00FE00
007E00
003C00
000000
000000
000000
000000
FFFFFE
FFFFFE
FFFFFC
00003C
000078
0000F8
0000F0
0001E0
0001E0
0003C0
0007C0
000780
000F00
000F00
001E00
003E00
003C00
007800
00F800
00F000
01F000
01E000
03C000
07C000
078000
0F8000
0F0000
1E0000
3E0000
3C0000
7C0000
7FFFFC
FFFFFC
FFFFFC
FFFFFC
ENDCHAR
STARTCHAR 017D
ENCODING 381
SWIDTH 480 0
DWIDTH 24 0
BBX 23 45 1 0
BITMAP
0701C0
0383C0
03C780
01EF00
00FE00
007C00
000000
000000
000000
000000
FFFFFE
FFFFFE
FFFFFC
00003C
000078
0000F8
0000F0
0001E0
0001E0
0003C0
0007C0
000780
000F00
000F00
001E00
003E00
003C00
007800
00F800
00F000
01F000
01E000
03C000
07C000
078000
0F8000
0F0000
1E0000
3E0000
3C0000
7C0000
7FFFFC
FFFFFC
FFFFFC
FFFFFC
ENDCHAR
STARTCHAR 017E
ENCODING 382
SWIDTH 480 0
DWIDTH 24 0
BBX 23 45 1 0
BITMAP
0701C0
0383C0
03C780
01EF00
00FE00
007C00
000000
000000
000000
000000
FFFFFE
FFFFFE
FFFFFC
00003C
000078
0000F8
0000F0
0001E0
0001E0
0003C0
0007C0
000780
000F00
000F00
001E00
003E00
003C00
007800
00F800
00F000
01F000
01E000
03C000
07C000
078000
0F8000
0F0000
1E0000
3E0000
3C0000
7C0000
7FFFFC
FFFFFC
FFFFFC
FFFFFC
ENDCHAR
STARTCHAR 01A0
ENCODING 416
SWIDTH 800 0
DWIDTH 40 0
BBX 37 41 2 -1
BITMAP
0000000700
0000000700
0000000700
0000000700
0001F80E00
001FFFBE00
007FFFF800
01FFFFF800
03F801FC00
07E0003F00
0F80001F80
1F00000F80
3E000007C0
3C000003E0
7C000001E0
78000000F0
78000000F0
F0000000F0
F000000078
F000000078
E000000078
E000000078
E000000078
E000000078
E000000078
F000000078
F000000078
F0000000F0
78000000F0
78000000F0
7C000001E0
3C000003E0
3E000007C0
1F00000F80
0F80001F80
07E0003F00
03F801FE00
01FFFFF800
007FFFF000
001FFF8000
0000F80000
ENDCHAR
STARTCHAR 01A1
ENCODING 417
SWIDTH 800 0
DWIDTH 40 0
BBX 37 41 2 -1
BITMAP
0000000700
0000000700
0000000700
0000000700
0001F80E00
001FFFBE00
007FFFF800
01FFFFF800
03F801FC00
07E0003F00
0F80001F80
1F00000F80
3E000007C0
3C000003E0
7C000001E0
78000000F0
78000000F0
F0000000F0
F000000078
F000000078
E000000078
E000000078
E000000078
E000000078
E000000078
F000000078
F000000078
F0000000F0
78000000F0
78000000F0
7C000001E0
3C000003E0
3E000007C0
1F00000F80
0F80001F80
07E0003F00
03F801FE00
01FFFFF800
007FFFF000
001FFF8000
0000F80000
ENDCHAR
STARTCHAR 01AF
ENCODING 431
SWIDTH 480 0
DWIDTH 24 0
BBX 24 41 2 -1
BITMAP
000007
000007
000007
000007
00000E
F0007E
F00078
F00078
F00078
F00078
F00078
F00078
F00078
F00078
F00078
F00078
F00078
F00078
F00078
F00078
F00078
F00078
F00078
F00078
F00078
F00078
F00078
F00078
F00078
F00078
F00078
F00078
F000F0
7800F0
7800F0
3C01E0
3E07E0
1FFFC0
0FFF80
07FE00
00F800
ENDCHAR
STARTCHAR 01B0
ENCODING 432
SWIDTH 480 0
DWIDTH 24 0
BBX 24 41 2 -1
BITMAP
000007
000007
000007
000007
00000E
F0007E
F00078
F00078
F00078
F00078
F00078
F00078
F00078
F00078
F00078
F00078
F00078
F00078
F00078
F00078
F00078
F00078
F00078
F00078
F00078
F00078
F00078
F00078
F00078
F00078
F00078
F00078
F000F0
7800F0
7800F0
3C01E0
3E07E0
1FFFC0
0FFF80
07FE00
00F800
ENDCHAR
STARTCHAR 01CD
ENCODING 461
SWIDTH 540 0
DWIDTH 27 0
BBX 25 45 2 0
BITMAP
0E03C000
07078000
03870000
03CE0000
01FC0000
00FC0000
00000000
00000000
00000000
00F80000
03FF0000
0FFF8000
1FFFC000
1F03E000
3C01F000
7C00F000
78007000
78007800
70007800
70007800
70007800
F0007800
F0007800
F0007800
F0007800
F0007800
F0007800
F0007800
F0007800
F0007800
F0007800
F0007800
F0007800
F0007800
F0007800
F0007800
F0007800
F0007800
F0007800
F0007800
F0007800
F0007800
FFFFFF80
FFFFFF80
FFFFFF80
ENDCHAR
STARTCHAR 01CE
ENCODING 462
SWIDTH 540 0
DWIDTH 27 0
BBX 25 45 2 0
BITMAP
0E03C000
07078000
03870000
03CE0000
01FC0000
00FC0000
00000000
00000000
00000000
00F80000
03FF0000
0FFF8000
1FFFC000
1F03E000
3C01F000
7C00F000
78007000
78007800
70007800
70007800
70007800
F0007800
F0007800
F0007800
F0007800
F0007800
F0007800
F0007800
F0007800
F0007800
F0007800
F0007800
F0007800
F0007800
F0007800
F0007800
F0007800
F0007800
F0007800
F0007800
F0007800
F0007800
FFFFFF80
FFFFFF80
FFFFFF80
ENDCHAR
STARTCHAR 01CF
ENCODING 463
SWIDTH 160 0
DWIDTH 8 0
BBX 15 32 -3 0
BITMAP
F01E
701C
3838
1C70
1EE0
0FE0
07C0
0000
0000
0000
0380
0380
0380
0380
0380
0380
0380
0380
0380
0380
0380
0380
0380
0380
0380
0380
0380
0380
0380
0380
0380
0380
ENDCHAR
STARTCHAR 01D0
ENCODING 464
SWIDTH 160 0
DWIDTH 8 0
BBX 15 32 -3 0
BITMAP
F01E
701C
3838
1C70
1EE0
0FE0
07C0
0000
0000
0000
0380
0380
0380
0380
0380
0380
0380
0380
0380
0380
0380
0380
0380
0380
0380
0380
0380
0380
0380
0380
0380
0380
ENDCHAR
STARTCHAR 01D1
ENCODING 465
SWIDTH 800 0
DWIDTH 40 0
BBX 37 46 2 -1
BITMAP
001E038000
000F070000
00078E0000
00039E0000
0001FC0000
0001F80000
0000000000
0000000000
0000000000
0001F80000
001FFF8000
007FFFE000
01FFFFF800
03F801FC00
07E0003F00
0F80001F80
1F00000F80
3E000007C0
3C000003E0
7C000001E0
78000000F0
78000000F0
F0000000F0
F000000078
F000000078
E000000078
E000000078
E000000078
E000000078
E000000078
F000000078
F000000078
F0000000F0
78000000F0
78000000F0
7C000001E0
3C000003E0
3E000007C0
1F00000F80
0F80001F80
07E0003F00
03F801FE00
01FFFFF800
007FFFF000
001FFF8000
0000F80000
ENDCHAR
STARTCHAR 01D2
ENCODING 466
SWIDTH 800 0
DWIDTH 40 0
BBX 37 46 2 -1
BITMAP
001E038000
000F070000
00078E0000
00039E0000
0001FC0000
0001F80000
0000000000
0000000000
0000000000
0001F80000
001FFF8000
007FFFE000
01FFFFF800
03F801FC00
07E0003F00
0F80001F80
1F00000F80
3E000007C0
3C000003E0
7C000001E0
78000000F0
78000000F0
F0000000F0
F000000078
F000000078
E000000078
E000000078
E000000078
E000000078
E000000078
F000000078
F000000078
F0000000F0
78000000F0
78000000F0
7C000001E0
3C000003E0
3E000007C0
1F00000F80
0F80001F80
07E0003F00
03F801FE00
01FFFFF800
007FFFF000
001FFF8000
0000F80000
ENDCHAR
STARTCHAR 01D3
ENCODING 467
SWIDTH 480 0
DWIDTH 24 0
BBX 21 46 2 -1
BITMAP
0E0380
0F0700
078F00
03DE00
01FC00
00F800
000000
000000
000000
000000
F00078
F00078
F00078
F00078
F00078
F00078
F00078
F00078
F00078
F00078
F00078
F00078
F00078
F00078
F00078
F00078
F00078
F00078
F00078
F00078
F00078
F00078
F00078
F00078
F00078
F00078
F00078
F000F0
7800F0
7800F0
3C01E0
3E07E0
1FFFC0
0FFF80
07FE00
00F800
ENDCHAR
STARTCHAR 01D4
ENCODING 468
SWIDTH 480 0
DWIDTH 24 0
BBX 21 46 2 -1
BITMAP
0E0380
0F0700
078F00
03DE00
01FC00
00F800
000000
000000
000000
000000
F00078
F00078
F00078
F00078
F00078
F00078
F00078
F00078
F00078
F00078
F00078
F00078
F00078
F00078
F00078
F00078
F00078
F00078
F00078
F00078
F00078
F00078
F00078
F00078
F00078
F00078
F00078
F000F0
7800F0
7800F0
3C01E0
3E07E0
1FFFC0
0FFF80
07FE00
00F800
ENDCHAR
STARTCHAR 02C6
ENCODING 710
SWIDTH 280 0
DWIDTH 14 0
BBX 14 7 0 38
BITMAP
0780
0FC0
0FE0
1CF0
3878
7838
F01C
ENDCHAR
STARTCHAR 02C7
ENCODING 711
SWIDTH 280 0
DWIDTH 14 0
BBX 14 6 0 39
BITMAP
F01C
7838
3C78
1CF0
0FE0
07C0
ENDCHAR
STARTCHAR 02D8
ENCODING 728
SWIDTH 260 0
DWIDTH 13 0
BBX 13 7 0 38
BITMAP
E018
E038
E038
7078
7DF0
3FE0
0F80
ENDCHAR
STARTCHAR 02D9
ENCODING 729
SWIDTH 120 0
DWIDTH 6 0
BBX 7 7 0 39
BITMAP
3C
7E
FE
FE
FE
7C
38
ENDCHAR
STARTCHAR 02DA
ENCODING 730
SWIDTH 180 0
DWIDTH 9 0
BBX 10 10 0 38
BITMAP
1E00
7F80
7380
E1C0
C0C0
C0C0
E1C0
7380
7F80
1E00
ENDCHAR
STARTCHAR 02DB
ENCODING 731
SWIDTH 180 0
DWIDTH 9 0
BBX 9 10 0 -9
BITMAP
0E00
3800
7000
6000
C000
C000
C100
E380
7F00
1E00
ENDCHAR
STARTCHAR 02DC
ENCODING 732
SWIDTH 220 0
DWIDTH 11 0
BBX 12 4 0 40
BITMAP
7C00
FFF0
FFF0
01E0
ENDCHAR
STARTCHAR 02DD
ENCODING 733
SWIDTH 320 0
DWIDTH 16 0
BBX 16 7 0 38
BITMAP
0F07
1E0E
1C1E
381C
3838
7070
E070
ENDCHAR
STARTCHAR 0300
ENCODING 768
SWIDTH 0 0
DWIDTH 0 0
BBX 8 7 -8 38
BITMAP
F0
78
38
1C
1C
0E
07
ENDCHAR
STARTCHAR 0301
ENCODING 769
SWIDTH 0 0
DWIDTH 0 0
BBX 7 7 -7 38
BITMAP
1E
1C
38
38
70
E0
C0
ENDCHAR
STARTCHAR 0302
ENCODING 770
SWIDTH 0 0
DWIDTH 0 0
BBX 14 7 -14 38
BITMAP
0780
0FC0
1FC0
3CE0
7870
7078
E03C
ENDCHAR
STARTCHAR 0303
ENCODING 771
SWIDTH 0 0
DWIDTH 0 0
BBX 12 4 -12 40
BITMAP
7C00
FFF0
FFF0
01E0
ENDCHAR
STARTCHAR 0304
ENCODING 772
SWIDTH 0 0
DWIDTH 0 0
BBX 14 3 -14 40
BITMAP
FFFC
FFFC
FFFC
ENDCHAR
STARTCHAR 0306
ENCODING 774
SWIDTH 0 0
DWIDTH 0 0
BBX 13 7 -13 38
BITMAP
C038
C038
E038
F070
7DF0
3FE0
0F80
ENDCHAR
STARTCHAR 0307
ENCODING 775
SWIDTH 0 0
DWIDTH 0 0
BBX 7 7 -7 39
BITMAP
3C
7E
FE
FE
FE
7E
38
ENDCHAR
STARTCHAR 0308
ENCODING 776
SWIDTH 0 0
DWIDTH 0 0
BBX 17 7 -17 37
BITMAP
780F00
FC1F80
FE3F80
FE3F80
FC1F80
7C1F00
000400
ENDCHAR
STARTCHAR 0309
ENCODING 777
SWIDTH 0 0
DWIDTH 0 0
BBX 4 9 -4 38
BITMAP
70
70
70
70
60
E0
E0
E0
60
ENDCHAR
STARTCHAR 030A
ENCODING 778
SWIDTH 0 0
DWIDTH 0 0
BBX 10 10 -10 38
BITMAP
1E00
3F80
7380
E1C0
C0C0
C0C0
E1C0
7380
7F80
1E00
ENDCHAR
STARTCHAR 030B
ENCODING 779
SWIDTH 0 0
DWIDTH 0 0
BBX 16 7 -16 38
BITMAP
0F0F
1E0E
1C1C
381C
3838
7070
E060
ENDCHAR
STARTCHAR 030C
ENCODING 780
SWIDTH 0 0
DWIDTH 0 0
BBX 14 6 -14 39
BITMAP
E03C
7078
78F0
3CE0
1FC0
0F80
ENDCHAR
STARTCHAR 031B
ENCODING 795
SWIDTH 0 0
DWIDTH 0 0
BBX 6 7 -6 33
BITMAP
1C
1C
1C
1C
38
F0
E0
ENDCHAR
STARTCHAR 0323
ENCODING 803
SWIDTH 0 0
DWIDTH 0 0
BBX 7 7 -7 -13
BITMAP
10
7C
FE
FE
FE
FE
7C
ENDCHAR
STARTCHAR 0326
ENCODING 806
SWIDTH 0 0
DWIDTH 0 0
BBX 6 8 -6 -11
BITMAP
3C
38
38
70
70
E0
E0
C0
ENDCHAR
STARTCHAR 0327
ENCODING 807
SWIDTH 0 0
DWIDTH 0 0
BBX 10 10 -10 -11
BITMAP
0E00
0C00
0F00
0380
01C0
00C0
C0C0
C1C0
FF80
3F00
ENDCHAR
STARTCHAR 0328
ENCODING 808
SWIDTH 0 0
DWIDTH 0 0
BBX 9 10 -9 -9
BITMAP
0E00
3800
7000
E000
C000
C000
C100
E380
7F00
3E00
ENDCHAR
STARTCHAR 0335
ENCODING 821
SWIDTH 0 0
DWIDTH 0 0
BBX 16 3 -16 10
BITMAP
FFFF
FFFF
FFFF
ENDCHAR
STARTCHAR 1EA0
ENCODING 7840
SWIDTH 540 0
DWIDTH 27 0
BBX 25 49 2 -13
BITMAP
00F80000
03FF0000
0FFF8000
1FFFC000
1F03E000
3C01F000
7C00F000
78007000
78007800
70007800
70007800
70007800
F0007800
F0007800
F0007800
F0007800
F0007800
F0007800
F0007800
F0007800
F0007800
F0007800
F0007800
F0007800
F0007800
F0007800
F0007800
F0007800
F0007800
F0007800
F0007800
F0007800
F0007800
FFFFFF80
FFFFFF80
FFFFFF80
00000000
00000000
00000000
00000000
00000000
00000000
00000000
00F80000
00FC0000
01FC0000
01FC0000
00FC0000
00780000
ENDCHAR
STARTCHAR 1EA1
ENCODING 7841
SWIDTH 540 0
DWIDTH 27 0
BBX 25 49 2 -13
BITMAP
00F80000
03FF0000
0FFF8000
1FFFC000
1F03E000
3C01F000
7C00F000
78007000
78007800
70007800
70007800
70007800
F0007800
F0007800
F0007800
F0007800
F0007800
F0007800
F0007800
F0007800
F0007800
F0007800
F0007800
F0007800
F0007800
F0007800
F0007800
F0007800
F0007800
F0007800
F0007800
F0007800
F0007800
FFFFFF80
FFFFFF80
FFFFFF80
00000000
00000000
00000000
00000000
00000000
00000000
00000000
00F80000
00FC0000
01FC0000
01FC0000
00FC0000
00780000
ENDCHAR
STARTCHAR 1EA2
ENCODING 7842
SWIDTH 540 0
DWIDTH 27 0
BBX 25 47 2 0
BITMAP
00300000
00380000
00380000
00300000
00700000
00600000
00600000
00600000
00700000
00000000
00000000
00F80000
03FF0000
0FFF8000
1FFFC000
1F03E000
3C01F000
7C00F000
78007000
78007800
70007800
70007800
70007800
F0007800
F0007800
F0007800
F0007800
F0007800
F0007800
F0007800
F0007800
F0007800
F0007800
F0007800
F0007800
F0007800
F0007800
F0007800
F0007800
F0007800
F0007800
F0007800
F0007800
F0007800
FFFFFF80
FFFFFF80
FFFFFF80
ENDCHAR
STARTCHAR 1EA3
ENCODING 7843
SWIDTH 540 0
DWIDTH 27 0
BBX 25 47 2 0
BITMAP
00300000
00380000
00380000
00300000
00700000
00600000
00600000
00600000
00700000
00000000
00000000
00F80000
03FF0000
0FFF8000
1FFFC000
1F03E000
3C01F000
7C00F000
78007000
78007800
70007800
70007800
70007800
F0007800
F0007800
F0007800
F0007800
F0007800
F0007800
F0007800
F0007800
F0007800
F0007800
F0007800
F0007800
F0007800
F0007800
F0007800
F0007800
F0007800
F0007800
F0007800
F0007800
F0007800
FFFFFF80
FFFFFF80
FFFFFF80
ENDCHAR
STARTCHAR 1EA4
ENCODING 7844
SWIDTH 540 0
DWIDTH 27 0
BBX 25 49 2 0
BITMAP
00000F00
00000E00
00001C00
00001C00
00783800
00FC7000
01FE6000
03CE0000
03870000
07038000
0E03C000
00000000
00000000
00F80000
03FF0000
0FFF8000
1FFFC000
1F03E000
3C01F000
7C00F000
78007000
78007800
70007800
70007800
70007800
F0007800
F0007800
F0007800
F0007800
F0007800
F0007800
F0007800
F0007800
F0007800
F0007800
F0007800
F0007800
F0007800
F0007800
F0007800
F0007800
F0007800
F0007800
F0007800
F0007800
F0007800
FFFFFF80
FFFFFF80
FFFFFF80
ENDCHAR
STARTCHAR 1EA5
ENCODING 7845
SWIDTH 540 0
DWIDTH 27 0
BBX 25 49 2 0
BITMAP
00000F00
00000E00
00001C00
00001C00
00783800
00FC7000
01FE6000
03CE0000
03870000
07038000
0E03C000
00000000
00000000
00F80000
03FF0000
0FFF8000
1FFFC000
1F03E000
3C01F000
7C00F000
78007000
78007800
70007800
70007800
70007800
F0007800
F0007800
F0007800
F0007800
F0007800
F0007800
F0007800
F0007800
F0007800
F0007800
F0007800
F0007800
F0007800
F0007800
F0007800
F0007800
F0007800
F0007800
F0007800
F0007800
F0007800
FFFFFF80
FFFFFF80
FFFFFF80
ENDCHAR
STARTCHAR 1EA6
ENCODING 7846
SWIDTH 540 0
DWIDTH 27 0
BBX 28 49 -1 0
BITMAP
E0000000
70000000
78000000
38000000
1C0F0000
0E1F8000
063FC000
0079C000
00F0E000
00E07000
01C07800
00000000
00000000
001F0000
007FE000
01FFF000
03FFF800
03E07C00
07803E00
0F801E00
0F000E00
0F000F00
0E000F00
0E000F00
0E000F00
1E000F00
1E000F00
1E000F00
1E000F00
1E000F00
1E000F00
1E000F00
1E000F00
1E000F00
1E000F00
1E000F00
1E000F00
1E000F00
1E000F00
1E000F00
1E000F00
1E000F00
1E000F00
1E000F00
1E000F00
1E000F00
1FFFFFF0
1FFFFFF0
1FFFFFF0
ENDCHAR
STARTCHAR 1EA7
ENCODING 7847
SWIDTH 540 0
DWIDTH 27 0
BBX 28 49 -1 0
BITMAP
E0000000
70000000
78000000
38000000
1C0F0000
0E1F8000
063FC000
0079C000
00F0E000
00E07000
01C07800
00000000
00000000
001F0000
007FE000
01FFF000
03FFF800
03E07C00
07803E00
0F801E00
0F000E00
0F000F00
0E000F00
0E000F00
0E000F00
1E000F00
1E000F00
1E000F00
1E000F00
1E000F00
1E000F00
1E000F00
1E000F00
1E000F00
1E000F00
1E000F00
1E000F00
1E000F00
1E000F00
1E000F00
1E000F00
1E000F00
1E000F00
1E000F00
1E000F00
1E000F00
1FFFFFF0
1FFFFFF0
1FFFFFF0
ENDCHAR
STARTCHAR 1EA8
ENCODING 7848
SWIDTH 540 0
DWIDTH 27 0
BBX 25 51 2 0
BITMAP
00003000
00003000
00003000
00007000
00007000
00006000
00786000
00FC6000
01FE7000
03CE0000
03870000
07038000
0E03C000
00000000
00000000
00F80000
03FF0000
0FFF8000
1FFFC000
1F03E000
3C01F000
7C00F000
78007000
78007800
70007800
70007800
70007800
F0007800
F0007800
F0007800
F0007800
F0007800
F0007800
F0007800
F0007800
F0007800
F0007800
F0007800
F0007800
F0007800
F0007800
F0007800
F0007800
F0007800
F0007800
F0007800
F0007800
F0007800
FFFFFF80
FFFFFF80
FFFFFF80
ENDCHAR
STARTCHAR 1EA9
ENCODING 7849
SWIDTH 540 0
DWIDTH 27 0
BBX 25 51 2 0
BITMAP
00003000
00003000
00003000
00007000
00007000
00006000
00786000
00FC6000
01FE7000
03CE0000
03870000
07038000
0E03C000
00000000
00000000
00F80000
03FF0000
0FFF8000
1FFFC000
1F03E000
3C01F000
7C00F000
78007000
78007800
70007800
70007800
70007800
F0007800
F0007800
F0007800
F0007800
F0007800
F0007800
F0007800
F0007800
F0007800
F0007800
F0007800
F0007800
F0007800
F0007800
F0007800
F0007800
F0007800
F0007800
F0007800
F0007800
F0007800
FFFFFF80
FFFFFF80
FFFFFF80
ENDCHAR
STARTCHAR 1EAA
ENCODING 7850
SWIDTH 540 0
DWIDTH 27 0
BBX 25 49 2 1
BITMAP
001FC600
001FFE00
0000FE00
00000000
00780000
00FC0000
01FE0000
03CE0000
03870000
07038000
0E03C000
00000000
00000000
00F80000
03FF0000
0FFF8000
1FFFC000
1F03E000
3C01F000
7C00F000
78007000
78007800
70007800
70007800
70007800
F0007800
F0007800
F0007800
F0007800
F0007800
F0007800
F0007800
F0007800
F0007800
F0007800
F0007800
F0007800
F0007800
F0007800
F0007800
F0007800
F0007800
F0007800
F0007800
F0007800
F0007800
FFFFFF80
FFFFFF80
FFFFFF80
ENDCHAR
STARTCHAR 1EAB
ENCODING 7851
SWIDTH 540 0
DWIDTH 27 0
BBX 25 49 2 1
BITMAP
001FC600
001FFE00
0000FE00
00000000
00780000
00FC0000
01FE0000
03CE0000
03870000
07038000
0E03C000
00000000
00000000
00F80000
03FF0000
0FFF8000
1FFFC000
1F03E000
3C01F000
7C00F000
78007000
78007800
70007800
70007800
70007800
F0007800
F0007800
F0007800
F0007800
F0007800
F0007800
F0007800
F0007800
F0007800
F0007800
F0007800
F0007800
F0007800
F0007800
F0007800
F0007800
F0007800
F0007800
F0007800
F0007800
F0007800
FFFFFF80
FFFFFF80
FFFFFF80
ENDCHAR
STARTCHAR 1EAC
ENCODING 7852
SWIDTH 540 0
DWIDTH 27 0
BBX 25 58 2 -13
BITMAP
00780000
00FC0000
01FE0000
03CE0000
03870000
07038000
0E03C000
00000000
00000000
00F80000
03FF0000
0FFF8000
1FFFC000
1F03E000
3C01F000
7C00F000
78007000
78007800
70007800
70007800
70007800
F0007800
F0007800
F0007800
F0007800
F0007800
F0007800
F0007800
F0007800
F0007800
F0007800
F0007800
F0007800
F0007800
F0007800
F0007800
F0007800
F0007800
F0007800
F0007800
F0007800
F0007800
FFFFFF80
FFFFFF80
FFFFFF80
00000000
00000000
00000000
00000000
00000000
00000000
00000000
00F80000
00FC0000
01FC0000
01FC0000
00FC0000
00780000
ENDCHAR
STARTCHAR 1EAD
ENCODING 7853
SWIDTH 540 0
DWIDTH 27 0
BBX 25 58 2 -13
BITMAP
00780000
00FC0000
01FE0000
03CE0000
03870000
07038000
0E03C000
00000000
00000000
00F80000
03FF0000
0FFF8000
1FFFC000
1F03E000
3C01F000
7C00F000
78007000
78007800
70007800
70007800
70007800
F0007800
F0007800
F0007800
F0007800
F0007800
F0007800
F0007800
F0007800
F0007800
F0007800
F0007800
F0007800
F0007800
F0007800
F0007800
F0007800
F0007800
F0007800
F0007800
F0007800
F0007800
FFFFFF80
FFFFFF80
FFFFFF80
00000000
00000000
00000000
00000000
00000000
00000000
00000000
00F80000
00FC0000
01FC0000
01FC0000
00FC0000
00780000
ENDCHAR
STARTCHAR 1EAE
ENCODING 7854
SWIDTH 540 0
DWIDTH 27 0
BBX 25 51 2 0
BITMAP
00078000
00070000
000E0000
001C0000
001C0000
00380000
0E718000
0E018000
0E038000
07038000
03DF0000
01FE0000
00F80000
00000000
00000000
00F80000
03FF0000
0FFF8000
1FFFC000
1F03E000
3C01F000
7C00F000
78007000
78007800
70007800
70007800
70007800
F0007800
F0007800
F0007800
F0007800
F0007800
F0007800
F0007800
F0007800
F0007800
F0007800
F0007800
F0007800
F0007800
F0007800
F0007800
F0007800
F0007800
F0007800
F0007800
F0007800
F0007800
FFFFFF80
FFFFFF80
FFFFFF80
ENDCHAR
STARTCHAR 1EAF
ENCODING 7855
SWIDTH 540 0
DWIDTH 27 0
BBX 25 51 2 0
BITMAP
00078000
00070000
000E0000
001C0000
001C0000
00380000
0E718000
0E018000
0E038000
07038000
03DF0000
01FE0000
00F80000
00000000
00000000
00F80000
03FF0000
0FFF8000
1FFFC000
1F03E000
3C01F000
7C00F000
78007000
78007800
70007800
70007800
70007800
F0007800
F0007800
F0007800
F0007800
F0007800
F0007800
F0007800
F0007800
F0007800
F0007800
F0007800
F0007800
F0007800
F0007800
F0007800
F0007800
F0007800
F0007800
F0007800
F0007800
F0007800
FFFFFF80
FFFFFF80
FFFFFF80
ENDCHAR
STARTCHAR 1EB0
ENCODING 7856
SWIDTH 540 0
DWIDTH 27 0
BBX 25 51 2 0
BITMAP
0F000000
07000000
03800000
03800000
01C00000
00E00000
0E618000
0E018000
0E038000
07038000
03DF0000
01FE0000
00F80000
00000000
00000000
00F80000
03FF0000
0FFF8000
1FFFC000
1F03E000
3C01F000
7C00F000
78007000
78007800
70007800
70007800
70007800
F0007800
F0007800
F0007800
F0007800
F0007800
F0007800
F0007800
F0007800
F0007800
F0007800
F0007800
F0007800
F0007800
F0007800
F0007800
F0007800
F0007800
F0007800
F0007800
F0007800
F0007800
FFFFFF80
FFFFFF80
FFFFFF80
ENDCHAR
STARTCHAR 1EB1
ENCODING 7857
SWIDTH 540 0
DWIDTH 27 0
BBX 25 51 2 0
BITMAP
0F000000
07000000
03800000
03800000
01C00000
00E00000
0E618000
0E018000
0E038000
07038000
03DF0000
01FE0000
00F80000
00000000
00000000
00F80000
03FF0000
0FFF8000
1FFFC000
1F03E000
3C01F000
7C00F000
78007000
78007800
70007800
70007800
70007800
F0007800
F0007800
F0007800
F0007800
F0007800
F0007800
F0007800
F0007800
F0007800
F0007800
F0007800
F0007800
F0007800
F0007800
F0007800
F0007800
F0007800
F0007800
F0007800
F0007800
F0007800
FFFFFF80
FFFFFF80
FFFFFF80
ENDCHAR
STARTCHAR 1EB2
ENCODING 7858
SWIDTH 540 0
DWIDTH 27 0
BBX 25 52 2 0
BITMAP
00380000
00180000
00180000
00180000
00380000
00300000
00700000
0E318000
0E318000
0E3B8000
07038000
03DF0000
01FE0000
00F80000
00000000
00000000
00F80000
03FF0000
0FFF8000
1FFFC000
1F03E000
3C01F000
7C00F000
78007000
78007800
70007800
70007800
70007800
F0007800
F0007800
F0007800
F0007800
F0007800
F0007800
F0007800
F0007800
F0007800
F0007800
F0007800
F0007800
F0007800
F0007800
F0007800
F0007800
F0007800
F0007800
F0007800
F0007800
F0007800
FFFFFF80
FFFFFF80
FFFFFF80
ENDCHAR
STARTCHAR 1EB3
ENCODING 7859
SWIDTH 540 0
DWIDTH 27 0
BBX 25 52 2 0
BITMAP
00380000
00180000
00180000
00180000
00380000
00300000
00700000
0E318000
0E318000
0E3B8000
07038000
03DF0000
01FE0000
00F80000
00000000
00000000
00F80000
03FF0000
0FFF8000
1FFFC000
1F03E000
3C01F000
7C00F000
78007000
78007800
70007800
70007800
70007800
F0007800
F0007800
F0007800
F0007800
F0007800
F0007800
F0007800
F0007800
F0007800
F0007800
F0007800
F0007800
F0007800
F0007800
F0007800
F0007800
F0007800
F0007800
F0007800
F0007800
F0007800
FFFFFF80
FFFFFF80
FFFFFF80
ENDCHAR
STARTCHAR 1EB4
ENCODING 7860
SWIDTH 540 0
DWIDTH 27 0
BBX 25 50 2 0
BITMAP
03C00000
07FF8000
07FF8000
001F0000
00000000
0E018000
0E018000
0E038000
07038000
03DF0000
01FE0000
00F80000
00000000
00000000
00F80000
03FF0000
0FFF8000
1FFFC000
1F03E000
3C01F000
7C00F000
78007000
78007800
70007800
70007800
70007800
F0007800
F0007800
F0007800
F0007800
F0007800
F0007800
F0007800
F0007800
F0007800
F0007800
F0007800
F0007800
F0007800
F0007800
F0007800
F0007800
F0007800
F0007800
F0007800
F0007800
F0007800
FFFFFF80
FFFFFF80
FFFFFF80
ENDCHAR
STARTCHAR 1EB5
ENCODING 7861
SWIDTH 540 0
DWIDTH 27 0
BBX 25 50 2 0
BITMAP
03C00000
07FF8000
07FF8000
001F0000
00000000
0E018000
0E018000
0E038000
07038000
03DF0000
01FE0000
00F80000
00000000
00000000
00F80000
03FF0000
0FFF8000
1FFFC000
1F03E000
3C01F000
7C00F000
78007000
78007800
70007800
70007800
70007800
F0007800
F0007800
F0007800
F0007800
F0007800
F0007800
F0007800
F0007800
F0007800
F0007800
F0007800
F0007800
F0007800
F0007800
F0007800
F0007800
F0007800
F0007800
F0007800
F0007800
F0007800
FFFFFF80
FFFFFF80
FFFFFF80
ENDCHAR
STARTCHAR 1EB6
ENCODING 7862
SWIDTH 540 0
DWIDTH 27 0
BBX 25 58 2 -13
BITMAP
0E018000
0E018000
0E038000
07038000
03DF0000
01FE0000
00F80000
00000000
00000000
00F80000
03FF0000
0FFF8000
1FFFC000
1F03E000
3C01F000
7C00F000
78007000
78007800
70007800
70007800
70007800
F0007800
F0007800
F0007800
F0007800
F0007800
F0007800
F0007800
F0007800
F0007800
F0007800
F0007800
F0007800
F0007800
F0007800
F0007800
F0007800
F0007800
F0007800
F0007800
F0007800
F0007800
FFFFFF80
FFFFFF80
FFFFFF80
00000000
00000000
00000000
00000000
00000000
00000000
00000000
00F80000
00FC0000
01FC0000
01FC0000
00FC0000
00780000
ENDCHAR
STARTCHAR 1EB7
ENCODING 7863
SWIDTH 540 0
DWIDTH 27 0
BBX 25 58 2 -13
BITMAP
0E018000
0E018000
0E038000
07038000
03DF0000
01FE0000
00F80000
00000000
00000000
00F80000
03FF0000
0FFF8000
1FFFC000
1F03E000
3C01F000
7C00F000
78007000
78007800
70007800
70007800
70007800
F0007800
F0007800
F0007800
F0007800
F0007800
F0007800
F0007800
F0007800
F0007800
F0007800
F0007800
F0007800
F0007800
F0007800
F0007800
F0007800
F0007800
F0007800
F0007800
F0007800
F0007800
FFFFFF80
FFFFFF80
FFFFFF80
00000000
00000000
00000000
00000000
00000000
00000000
00000000
00F80000
00FC0000
01FC0000
01FC0000
00FC0000
00780000
ENDCHAR
STARTCHAR 1EB8
ENCODING 7864
SWIDTH 480 0
DWIDTH 24 0
BBX 23 48 1 -13
BITMAP
0FFFC0
0FFFC0
0FFFC0
0E0000
0E0000
0E0000
0E0000
0E0000
0E0000
0E0000
0E0000
0E0000
0E0000
0E0000
0E0000
0E0000
FFFFF0
FFFFF0
FFFFF0
0E0000
0E0000
0E0000
0E0000
0E0000
0E0000
0E0000
0E0000
0E0000
0E0000
0E0000
0E0000
0E0000
0FFFFE
0FFFFE
0FFFFE
000000
000000
000000
000000
000000
000000
000000
000F80
001F80
001FC0
001F80
001F80
000F00
ENDCHAR
STARTCHAR 1EB9
ENCODING 7865
SWIDTH 480 0
DWIDTH 24 0
BBX 23 48 1 -13
BITMAP
0FFFC0
0FFFC0
0FFFC0
0E0000
0E0000
0E0000
0E0000
0E0000
0E0000
0E0000
0E0000
0E0000
0E0000
0E0000
0E0000
0E0000
FFFFF0
FFFFF0
FFFFF0
0E0000
0E0000
0E0000
0E0000
0E0000
0E0000
0E0000
0E0000
0E0000
0E0000
0E0000
0E0000
0E0000
0FFFFE
0FFFFE
0FFFFE
000000
000000
000000
000000
000000
000000
000000
000F80
001F80
001FC0
001F80
001F80
000F00
ENDCHAR
STARTCHAR 1EBA
ENCODING 7866
SWIDTH 480 0
DWIDTH 24 0
BBX 23 47 1 0
BITMAP
003000
003000
003000
007000
007000
006000
00E000
006000
007000
000000
000000
000000
0FFFC0
0FFFC0
0FFFC0
0E0000
0E0000
0E0000
0E0000
0E0000
0E0000
0E0000
0E0000
0E0000
0E0000
0E0000
0E0000
0E0000
FFFFF0
FFFFF0
FFFFF0
0E0000
0E0000
0E0000
0E0000
0E0000
0E0000
0E0000
0E0000
0E0000
0E0000
0E0000
0E0000
0E0000
0FFFFE
0FFFFE
0FFFFE
ENDCHAR
STARTCHAR 1EBB
ENCODING 7867
SWIDTH 480 0
DWIDTH 24 0
BBX 23 47 1 0
BITMAP
003000
003000
003000
007000
007000
006000
00E000
006000
007000
000000
000000
000000
0FFFC0
0FFFC0
0FFFC0
0E0000
0E0000
0E0000
0E0000
0E0000
0E0000
0E0000
0E0000
0E0000
0E0000
0E0000
0E0000
0E0000
FFFFF0
FFFFF0
FFFFF0
0E0000
0E0000
0E0000
0E0000
0E0000
0E0000
0E0000
0E0000
0E0000
0E0000
0E0000
0E0000
0E0000
0FFFFE
0FFFFE
0FFFFE
ENDCHAR
STARTCHAR 1EBC
ENCODING 7868
SWIDTH 480 0
DWIDTH 24 0
BBX 23 44 1 0
BITMAP
078000
0FFF00
0FFF00
001E00
000000
000000
000000
000000
000000
0FFFC0
0FFFC0
0FFFC0
0E0000
0E0000
0E0000
0E0000
0E0000
0E0000
0E0000
0E0000
0E0000
0E0000
0E0000
0E0000
0E0000
FFFFF0
FFFFF0
FFFFF0
0E0000
0E0000
0E0000
0E0000
0E0000
0E0000
0E0000
0E0000
0E0000
0E0000
0E0000
0E0000
0E0000
0FFFFE
0FFFFE
0FFFFE
ENDCHAR
STARTCHAR 1EBD
ENCODING 7869
SWIDTH 480 0
DWIDTH 24 0
BBX 23 44 1 0
BITMAP
078000
0FFF00
0FFF00
001E00
000000
000000
000000
000000
000000
0FFFC0
0FFFC0
0FFFC0
0E0000
0E0000
0E0000
0E0000
0E0000
0E0000
0E0000
0E0000
0E0000
0E0000
0E0000
0E0000
0E0000
FFFFF0
FFFFF0
FFFFF0
0E0000
0E0000
0E0000
0E0000
0E0000
0E0000
0E0000
0E0000
0E0000
0E0000
0E0000
0E0000
0E0000
0FFFFE
0FFFFE
0FFFFE
ENDCHAR
STARTCHAR 1EBE
ENCODING 7870
SWIDTH 480 0
DWIDTH 24 0
BBX 24 49 1 0
BITMAP
00000F
00000E
00001C
000038
00F838
00FC70
01DCE0
03CE00
078F00
0F0780
0E0380
000000
000000
000000
0FFFC0
0FFFC0
0FFFC0
0E0000
0E0000
0E0000
0E0000
0E0000
0E0000
0E0000
0E0000
0E0000
0E0000
0E0000
0E0000
0E0000
FFFFF0
FFFFF0
FFFFF0
0E0000
0E0000
0E0000
0E0000
0E0000
0E0000
0E0000
0E0000
0E0000
0E0000
0E0000
0E0000
0E0000
0FFFFE
0FFFFE
0FFFFE
ENDCHAR
STARTCHAR 1EBF
ENCODING 7871
SWIDTH 480 0
DWIDTH 24 0
BBX 24 49 1 0
BITMAP
00000F
00000E
00001C
000038
00F838
00FC70
01DCE0
03CE00
078F00
0F0780
0E0380
000000
000000
000000
0FFFC0
0FFFC0
0FFFC0
0E0000
0E0000
0E0000
0E0000
0E0000
0E0000
0E0000
0E0000
0E0000
0E0000
0E0000
0E0000
0E0000
FFFFF0
FFFFF0
FFFFF0
0E0000
0E0000
0E0000
0E0000
0E0000
0E0000
0E0000
0E0000
0E0000
0E0000
0E0000
0E0000
0E0000
0FFFFE
0FFFFE
0FFFFE
ENDCHAR
STARTCHAR 1EC0
ENCODING 7872
SWIDTH 480 0
DWIDTH 24 0
BBX 26 49 -2 0
BITMAP
E0000000
F0000000
70000000
38000000
1C1F0000
1C1F8000
0E3B8000
0079C000
00F1E000
01E0F000
01C07000
00000000
00000000
00000000
01FFF800
01FFF800
01FFF800
01C00000
01C00000
01C00000
01C00000
01C00000
01C00000
01C00000
01C00000
01C00000
01C00000
01C00000
01C00000
01C00000
1FFFFE00
1FFFFE00
1FFFFE00
01C00000
01C00000
01C00000
01C00000
01C00000
01C00000
01C00000
01C00000
01C00000
01C00000
01C00000
01C00000
01C00000
01FFFFC0
01FFFFC0
01FFFFC0
ENDCHAR
STARTCHAR 1EC1
ENCODING 7873
SWIDTH 480 0
DWIDTH 24 0
BBX 26 49 -2 0
BITMAP
E0000000
F0000000
70000000
38000000
1C1F0000
1C1F8000
0E3B8000
0079C000
00F1E000
01E0F000
01C07000
00000000
00000000
00000000
01FFF800
01FFF800
01FFF800
01C00000
01C00000
01C00000
01C00000
01C00000
01C00000
01C00000
01C00000
01C00000
01C00000
01C00000
01C00000
01C00000
1FFFFE00
1FFFFE00
1FFFFE00
01C00000
01C00000
01C00000
01C00000
01C00000
01C00000
01C00000
01C00000
01C00000
01C00000
01C00000
01C00000
01C00000
01FFFFC0
01FFFFC0
01FFFFC0
ENDCHAR
STARTCHAR 1EC2
ENCODING 7874
SWIDTH 480 0
DWIDTH 24 0
BBX 23 51 1 0
BITMAP
000070
000030
000070
000070
000060
0000E0
00F8E0
00FCE0
01DC60
03CE00
078F00
0F0780
0E0380
000000
000000
000000
0FFFC0
0FFFC0
0FFFC0
0E0000
0E0000
0E0000
0E0000
0E0000
0E0000
0E0000
0E0000
0E0000
0E0000
0E0000
0E0000
0E0000
FFFFF0
FFFFF0
FFFFF0
0E0000
0E0000
0E0000
0E0000
0E0000
0E0000
0E0000
0E0000
0E0000
0E0000
0E0000
0E0000
0E0000
0FFFFE
0FFFFE
0FFFFE
ENDCHAR
STARTCHAR 1EC3
ENCODING 7875
SWIDTH 480 0
DWIDTH 24 0
BBX 23 51 1 0
BITMAP
000070
000030
000070
000070
000060
0000E0
00F8E0
00FCE0
01DC60
03CE00
078F00
0F0780
0E0380
000000
000000
000000
0FFFC0
0FFFC0
0FFFC0
0E0000
0E0000
0E0000
0E0000
0E0000
0E0000
0E0000
0E0000
0E0000
0E0000
0E0000
0E0000
0E0000
FFFFF0
FFFFF0
FFFFF0
0E0000
0E0000
0E0000
0E0000
0E0000
0E0000
0E0000
0E0000
0E0000
0E0000
0E0000
0E0000
0E0000
0FFFFE
0FFFFE
0FFFFE
ENDCHAR
STARTCHAR 1EC4
ENCODING 7876
SWIDTH 480 0
DWIDTH 24 0
BBX 23 50 1 0
BITMAP
000400
003FC4
003FFC
0020FC
000000
00F800
00FC00
01DC00
03CE00
078F00
0F0780
0E0380
000000
000000
000000
0FFFC0
0FFFC0
0FFFC0
0E0000
0E0000
0E0000
0E0000
0E0000
0E0000
0E0000
0E0000
0E0000
0E0000
0E0000
0E0000
0E0000
FFFFF0
FFFFF0
FFFFF0
0E0000
0E0000
0E0000
0E0000
0E0000
0E0000
0E0000
0E0000
0E0000
0E0000
0E0000
0E0000
0E0000
0FFFFE
0FFFFE
0FFFFE
ENDCHAR
STARTCHAR 1EC5
ENCODING 7877
SWIDTH 480 0
DWIDTH 24 0
BBX 23 50 1 0
BITMAP
000400
003FC4
003FFC
0020FC
000000
00F800
00FC00
01DC00
03CE00
078F00
0F0780
0E0380
000000
000000
000000
0FFFC0
0FFFC0
0FFFC0
0E0000
0E0000
0E0000
0E0000
0E0000
0E0000
0E0000
0E0000
0E0000
0E0000
0E0000
0E0000
0E0000
FFFFF0
FFFFF0
FFFFF0
0E0000
0E0000
0E0000
0E0000
0E0000
0E0000
0E0000
0E0000
0E0000
0E0000
0E0000
0E0000
0E0000
0FFFFE
0FFFFE
0FFFFE
ENDCHAR
STARTCHAR 1EC6
ENCODING 7878
SWIDTH 480 0
DWIDTH 24 0
BBX 23 58 1 -13
BITMAP
00F800
00FC00
01DC00
03CE00
078F00
0F0780
0E0380
000000
000000
000000
0FFFC0
0FFFC0
0FFFC0
0E0000
0E0000
0E0000
0E0000
0E0000
0E0000
0E0000
0E0000
0E0000
0E0000
0E0000
0E0000
0E0000
FFFFF0
FFFFF0
FFFFF0
0E0000
0E0000
0E0000
0E0000
0E0000
0E0000
0E0000
0E0000
0E0000
0E0000
0E0000
0E0000
0E0000
0FFFFE
0FFFFE
0FFFFE
000000
000000
000000
000000
000000
000000
000000
000F80
001F80
001FC0
001F80
001F80
000F00
ENDCHAR
STARTCHAR 1EC7
ENCODING 7879
SWIDTH 480 0
DWIDTH 24 0
BBX 23 58 1 -13
BITMAP
00F800
00FC00
01DC00
03CE00
078F00
0F0780
0E0380
000000
000000
000000
0FFFC0
0FFFC0
0FFFC0
0E0000
0E0000
0E0000
0E0000
0E0000
0E0000
0E0000
0E0000
0E0000
0E0000
0E0000
0E0000
0E0000
FFFFF0
FFFFF0
FFFFF0
0E0000
0E0000
0E0000
0E0000
0E0000
0E0000
0E0000
0E0000
0E0000
0E0000
0E0000
0E0000
0E0000
0FFFFE
0FFFFE
0FFFFE
000000
000000
000000
000000
000000
000000
000000
000F80
001F80
001FC0
001F80
001F80
000F00
ENDCHAR
STARTCHAR 1EC8
ENCODING 7880
SWIDTH 160 0
DWIDTH 8 0
BBX 4 34 2 0
BITMAP
70
30
30
70
70
60
E0
E0
60
70
00
00
70
70
70
70
70
70
70
70
70
70
70
70
70
70
70
70
70
70
70
70
70
70
ENDCHAR
STARTCHAR 1EC9
ENCODING 7881
SWIDTH 160 0
DWIDTH 8 0
BBX 4 34 2 0
BITMAP
70
30
30
70
70
60
E0
E0
60
70
00
00
70
70
70
70
70
70
70
70
70
70
70
70
70
70
70
70
70
70
70
70
70
70
ENDCHAR
STARTCHAR 1ECA
ENCODING 7882
SWIDTH 160 0
DWIDTH 8 0
BBX 11 52 -1 -12
BITMAP
0400
0400
0C00
0C00
FFE0
7F80
1F00
1F00
3F00
3100
4080
0000
0000
0000
0000
0000
0000
1E00
1E00
1E00
1E00
1E00
1E00
1E00
1E00
1E00
1E00
1E00
1E00
1E00
1E00
1E00
1E00
1E00
1E00
1E00
1E00
1E00
1E00
0000
0000
0000
0000
0000
0000
0000
1F00
3F00
3F80
3F80
3F00
1E00
ENDCHAR
STARTCHAR 1ECB
ENCODING 7883
SWIDTH 160 0
DWIDTH 8 0
BBX 11 52 -1 -12
BITMAP
0400
0400
0C00
0C00
FFE0
7F80
1F00
1F00
3F00
3100
4080
0000
0000
0000
0000
0000
0000
1E00
1E00
1E00
1E00
1E00
1E00
1E00
1E00
1E00
1E00
1E00
1E00
1E00
1E00
1E00
1E00
1E00
1E00
1E00
1E00
1E00
1E00
0000
0000
0000
0000
0000
0000
0000
1F00
3F00
3F80
3F80
3F00
1E00
ENDCHAR
STARTCHAR 1ECC
ENCODING 7884
SWIDTH 800 0
DWIDTH 40 0
BBX 37 49 2 -13
BITMAP
0001F80000
001FFF8000
007FFFE000
01FFFFF800
03F801FC00
07E0003F00
0F80001F80
1F00000F80
3E000007C0
3C000003E0
7C000001E0
78000000F0
78000000F0
F0000000F0
F000000078
F000000078
E000000078
E000000078
E000000078
E000000078
E000000078
F000000078
F000000078
F0000000F0
78000000F0
78000000F0
7C000001E0
3C000003E0
3E000007C0
1F00000F80
0F80001F80
07E0003F00
03F801FE00
01FFFFF800
007FFFF000
001FFF8000
0000F80000
0000000000
0000000000
0000000000
0000000000
0000000000
0000000000
0000F80000
0001F80000
0001FC0000
0001FC0000
0001F80000
0000F80000
ENDCHAR
STARTCHAR 1ECD
ENCODING 7885
SWIDTH 800 0
DWIDTH 40 0
BBX 37 49 2 -13
BITMAP
0001F80000
001FFF8000
007FFFE000
01FFFFF800
03F801FC00
07E0003F00
0F80001F80
1F00000F80
3E000007C0
3C000003E0
7C000001E0
78000000F0
78000000F0
F0000000F0
F000000078
F000000078
E000000078
E000000078
E000000078
E000000078
E000000078
F000000078
F000000078
F0000000F0
78000000F0
78000000F0
7C000001E0
3C000003E0
3E000007C0
1F00000F80
0F80001F80
07E0003F00
03F801FE00
01FFFFF800
007FFFF000
001FFF8000
0000F80000
0000000000
0000000000
0000000000
0000000000
0000000000
0000000000
0000F80000
0001F80000
0001FC0000
0001FC0000
0001F80000
0000F80000
ENDCHAR
STARTCHAR 1ECE
ENCODING 7886
SWIDTH 800 0
DWIDTH 40 0
BBX 37 48 2 -1
BITMAP
0000700000
0000300000
0000700000
0000700000
0000600000
0000E00000
0000E00000
0000E00000
0000600000
0000000000
0000000000
0001F80000
001FFF8000
007FFFE000
01FFFFF800
03F801FC00
07E0003F00
0F80001F80
1F00000F80
3E000007C0
3C000003E0
7C000001E0
78000000F0
78000000F0
F0000000F0
F000000078
F000000078
E000000078
E000000078
E000000078
E000000078
E000000078
F000000078
F000000078
F0000000F0
78000000F0
78000000F0
7C000001E0
3C000003E0
3E000007C0
1F00000F80
0F80001F80
07E0003F00
03F801FE00
01FFFFF800
007FFFF000
001FFF8000
0000F80000
ENDCHAR
STARTCHAR 1ECF
ENCODING 7887
SWIDTH 800 0
DWIDTH 40 0
BBX 37 48 2 -1
BITMAP
0000700000
0000300000
0000700000
0000700000
0000600000
0000E00000
0000E00000
0000E00000
0000600000
0000000000
0000000000
0001F80000
001FFF8000
007FFFE000
01FFFFF800
03F801FC00
07E0003F00
0F80001F80
1F00000F80
3E000007C0
3C000003E0
7C000001E0
78000000F0
78000000F0
F0000000F0
F000000078
F000000078
E000000078
E000000078
E000000078
E000000078
E000000078
F000000078
F000000078
F0000000F0
78000000F0
78000000F0
7C000001E0
3C000003E0
3E000007C0
1F00000F80
0F80001F80
07E0003F00
03F801FE00
01FFFFF800
007FFFF000
001FFF8000
0000F80000
ENDCHAR
STARTCHAR 1ED0
ENCODING 7888
SWIDTH 800 0
DWIDTH 40 0
BBX 37 50 2 -1
BITMAP
0000000E00
0000001E00
0000001C00
0000003800
0000F07000
0001F87000
0001FCE000
00039E0000
00070F0000
000F070000
001E038000
0000000000
0000000000
0001F80000
001FFF8000
007FFFE000
01FFFFF800
03F801FC00
07E0003F00
0F80001F80
1F00000F80
3E000007C0
3C000003E0
7C000001E0
78000000F0
78000000F0
F0000000F0
F000000078
F000000078
E000000078
E000000078
E000000078
E000000078
E000000078
F000000078
F000000078
F0000000F0
78000000F0
78000000F0
7C000001E0
3C000003E0
3E000007C0
1F00000F80
0F80001F80
07E0003F00
03F801FE00
01FFFFF800
007FFFF000
001FFF8000
0000F80000
ENDCHAR
STARTCHAR 1ED1
ENCODING 7889
SWIDTH 800 0
DWIDTH 40 0
BBX 37 50 2 -1
BITMAP
0000000E00
0000001E00
0000001C00
0000003800
0000F07000
0001F87000
0001FCE000
00039E0000
00070F0000
000F070000
001E038000
0000000000
0000000000
0001F80000
001FFF8000
007FFFE000
01FFFFF800
03F801FC00
07E0003F00
0F80001F80
1F00000F80
3E000007C0
3C000003E0
7C000001E0
78000000F0
78000000F0
F0000000F0
F000000078
F000000078
E000000078
E000000078
E000000078
E000000078
E000000078
F000000078
F000000078
F0000000F0
78000000F0
78000000F0
7C000001E0
3C000003E0
3E000007C0
1F00000F80
0F80001F80
07E0003F00
03F801FE00
01FFFFF800
007FFFF000
001FFF8000
0000F80000
ENDCHAR
STARTCHAR 1ED2
ENCODING 7890
SWIDTH 800 0
DWIDTH 40 0
BBX 37 50 2 -1
BITMAP
0F00000000
0780000000
0380000000
01C0000000
01C0F00000
00E1F80000
0071FC0000
00039E0000
00070F0000
000F070000
001E038000
0000000000
0000000000
0001F80000
001FFF8000
007FFFE000
01FFFFF800
03F801FC00
07E0003F00
0F80001F80
1F00000F80
3E000007C0
3C000003E0
7C000001E0
78000000F0
78000000F0
F0000000F0
F000000078
F000000078
E000000078
E000000078
E000000078
E000000078
E000000078
F000000078
F000000078
F0000000F0
78000000F0
78000000F0
7C000001E0
3C000003E0
3E000007C0
1F00000F80
0F80001F80
07E0003F00
03F801FE00
01FFFFF800
007FFFF000
001FFF8000
0000F80000
ENDCHAR
STARTCHAR 1ED3
ENCODING 7891
SWIDTH 800 0
DWIDTH 40 0
BBX 37 50 2 -1
BITMAP
0F00000000
0780000000
0380000000
01C0000000
01C0F00000
00E1F80000
0071FC0000
00039E0000
00070F0000
000F070000
001E038000
0000000000
0000000000
0001F80000
001FFF8000
007FFFE000
01FFFFF800
03F801FC00
07E0003F00
0F80001F80
1F00000F80
3E000007C0
3C000003E0
7C000001E0
78000000F0
78000000F0
F0000000F0
F000000078
F000000078
E000000078
E000000078
E000000078
E000000078
E000000078
F000000078
F000000078
F0000000F0
78000000F0
78000000F0
7C000001E0
3C000003E0
3E000007C0
1F00000F80
0F80001F80
07E0003F00
03F801FE00
01FFFFF800
007FFFF000
001FFF8000
0000F80000
ENDCHAR
STARTCHAR 1ED4
ENCODING 7892
SWIDTH 800 0
DWIDTH 40 0
BBX 37 52 2 -1
BITMAP
0000007000
0000007000
0000007000
0000006000
000000E000
000000E000
0000F0E000
0001F8E000
0001FC6000
00039E0000
00070F0000
000F070000
001E038000
0000000000
0000000000
0001F80000
001FFF8000
007FFFE000
01FFFFF800
03F801FC00
07E0003F00
0F80001F80
1F00000F80
3E000007C0
3C000003E0
7C000001E0
78000000F0
78000000F0
F0000000F0
F000000078
F000000078
E000000078
E000000078
E000000078
E000000078
E000000078
F000000078
F000000078
F0000000F0
78000000F0
78000000F0
7C000001E0
3C000003E0
3E000007C0
1F00000F80
0F80001F80
07E0003F00
03F801FE00
01FFFFF800
007FFFF000
001FFF8000
0000F80000
ENDCHAR
STARTCHAR 1ED5
ENCODING 7893
SWIDTH 800 0
DWIDTH 40 0
BBX 37 52 2 -1
BITMAP
0000007000
0000007000
0000007000
0000006000
000000E000
000000E000
0000F0E000
0001F8E000
0001FC6000
00039E0000
00070F0000
000F070000
001E038000
0000000000
0000000000
0001F80000
001FFF8000
007FFFE000
01FFFFF800
03F801FC00
07E0003F00
0F80001F80
1F00000F80
3E000007C0
3C000003E0
7C000001E0
78000000F0
78000000F0
F0000000F0
F000000078
F000000078
E000000078
E000000078
E000000078
E000000078
E000000078
F000000078
F000000078
F0000000F0
78000000F0
78000000F0
7C000001E0
3C000003E0
3E000007C0
1F00000F80
0F80001F80
07E0003F00
03F801FE00
01FFFFF800
007FFFF000
001FFF8000
0000F80000
ENDCHAR
STARTCHAR 1ED6
ENCODING 7894
SWIDTH 800 0
DWIDTH 40 0
BBX 37 50 2 0
BITMAP
00003F8400
00003FFC00
000020FC00
0000000000
0000F00000
0001F80000
0001FC0000
00039E0000
00070F0000
000F070000
001E038000
0000000000
0000000000
0001F80000
001FFF8000
007FFFE000
01FFFFF800
03F801FC00
07E0003F00
0F80001F80
1F00000F80
3E000007C0
3C000003E0
7C000001E0
78000000F0
78000000F0
F0000000F0
F000000078
F000000078
E000000078
E000000078
E000000078
E000000078
E000000078
F000000078
F000000078
F0000000F0
78000000F0
78000000F0
7C000001E0
3C000003E0
3E000007C0
1F00000F80
0F80001F80
07E0003F00
03F801FE00
01FFFFF800
007FFFF000
001FFF8000
0000F80000
ENDCHAR
STARTCHAR 1ED7
ENCODING 7895
SWIDTH 800 0
DWIDTH 40 0
BBX 37 50 2 0
BITMAP
00003F8400
00003FFC00
000020FC00
0000000000
0000F00000
0001F80000
0001FC0000
00039E0000
00070F0000
000F070000
001E038000
0000000000
0000000000
0001F80000
001FFF8000
007FFFE000
01FFFFF800
03F801FC00
07E0003F00
0F80001F80
1F00000F80
3E000007C0
3C000003E0
7C000001E0
78000000F0
78000000F0
F0000000F0
F000000078
F000000078
E000000078
E000000078
E000000078
E000000078
E000000078
F000000078
F000000078
F0000000F0
78000000F0
78000000F0
7C000001E0
3C000003E0
3E000007C0
1F00000F80
0F80001F80
07E0003F00
03F801FE00
01FFFFF800
007FFFF000
001FFF8000
0000F80000
ENDCHAR
STARTCHAR 1ED8
ENCODING 7896
SWIDTH 800 0
DWIDTH 40 0
BBX 37 58 2 -13
BITMAP
0000F00000
0001F80000
0001FC0000
00039E0000
00070F0000
000F070000
001E038000
0000000000
0000000000
0001F80000
001FFF8000
007FFFE000
01FFFFF800
03F801FC00
07E0003F00
0F80001F80
1F00000F80
3E000007C0
3C000003E0
7C000001E0
78000000F0
78000000F0
F0000000F0
F000000078
F000000078
E000000078
E000000078
E000000078
E000000078
E000000078
F000000078
F000000078
F0000000F0
78000000F0
78000000F0
7C000001E0
3C000003E0
3E000007C0
1F00000F80
0F80001F80
07E0003F00
03F801FE00
01FFFFF800
007FFFF000
001FFF8000
0000F80000
0000000000
0000000000
0000000000
0000000000
0000000000
0000000000
0000F80000
0001F80000
0001FC0000
0001FC0000
0001F80000
0000F80000
ENDCHAR
STARTCHAR 1ED9
ENCODING 7897
SWIDTH 800 0
DWIDTH 40 0
BBX 37 58 2 -13
BITMAP
0000F00000
0001F80000
0001FC0000
00039E0000
00070F0000
000F070000
001E038000
0000000000
0000000000
0001F80000
001FFF8000
007FFFE000
01FFFFF800
03F801FC00
07E0003F00
0F80001F80
1F00000F80
3E000007C0
3C000003E0
7C000001E0
78000000F0
78000000F0
F0000000F0
F000000078
F000000078
E000000078
E000000078
E000000078
E000000078
E000000078
F000000078
F000000078
F0000000F0
78000000F0
78000000F0
7C000001E0
3C000003E0
3E000007C0
1F00000F80
0F80001F80
07E0003F00
03F801FE00
01FFFFF800
007FFFF000
001FFF8000
0000F80000
0000000000
0000000000
0000000000
0000000000
0000000000
0000000000
0000F80000
0001F80000
0001FC0000
0001FC0000
0001F80000
0000F80000
ENDCHAR
STARTCHAR 1EDA
ENCODING 7898
SWIDTH 800 0
DWIDTH 40 0
BBX 37 46 2 -1
BITMAP
00000E0000
00001E0000
00001C0000
0000380000
0000700000
0000700700
0000E00700
0000000700
0000000700
0001F80E00
001FFFBE00
007FFFF800
01FFFFF800
03F801FC00
07E0003F00
0F80001F80
1F00000F80
3E000007C0
3C000003E0
7C000001E0
78000000F0
78000000F0
F0000000F0
F000000078
F000000078
E000000078
E000000078
E000000078
E000000078
E000000078
F000000078
F000000078
F0000000F0
78000000F0
78000000F0
7C000001E0
3C000003E0
3E000007C0
1F00000F80
0F80001F80
07E0003F00
03F801FE00
01FFFFF800
007FFFF000
001FFF8000
0000F80000
ENDCHAR
STARTCHAR 1EDB
ENCODING 7899
SWIDTH 800 0
DWIDTH 40 0
BBX 37 46 2 -1
BITMAP
00000E0000
00001E0000
00001C0000
0000380000
0000700000
0000700700
0000E00700
0000000700
0000000700
0001F80E00
001FFFBE00
007FFFF800
01FFFFF800
03F801FC00
07E0003F00
0F80001F80
1F00000F80
3E000007C0
3C000003E0
7C000001E0
78000000F0
78000000F0
F0000000F0
F000000078
F000000078
E000000078
E000000078
E000000078
E000000078
E000000078
F000000078
F000000078
F0000000F0
78000000F0
78000000F0
7C000001E0
3C000003E0
3E000007C0
1F00000F80
0F80001F80
07E0003F00
03F801FE00
01FFFFF800
007FFFF000
001FFF8000
0000F80000
ENDCHAR
STARTCHAR 1EDC
ENCODING 7900
SWIDTH 800 0
DWIDTH 40 0
BBX 37 46 2 -1
BITMAP
0007800000
0003800000
0001C00000
0001C00000
0000E00000
0000700700
0000300700
0000000700
0000000700
0001F80E00
001FFFBE00
007FFFF800
01FFFFF800
03F801FC00
07E0003F00
0F80001F80
1F00000F80
3E000007C0
3C000003E0
7C000001E0
78000000F0
78000000F0
F0000000F0
F000000078
F000000078
E000000078
E000000078
E000000078
E000000078
E000000078
F000000078
F000000078
F0000000F0
78000000F0
78000000F0
7C000001E0
3C000003E0
3E000007C0
1F00000F80
0F80001F80
07E0003F00
03F801FE00
01FFFFF800
007FFFF000
001FFF8000
0000F80000
ENDCHAR
STARTCHAR 1EDD
ENCODING 7901
SWIDTH 800 0
DWIDTH 40 0
BBX 37 46 2 -1
BITMAP
0007800000
0003800000
0001C00000
0001C00000
0000E00000
0000700700
0000300700
0000000700
0000000700
0001F80E00
001FFFBE00
007FFFF800
01FFFFF800
03F801FC00
07E0003F00
0F80001F80
1F00000F80
3E000007C0
3C000003E0
7C000001E0
78000000F0
78000000F0
F0000000F0
F000000078
F000000078
E000000078
E000000078
E000000078
E000000078
E000000078
F000000078
F000000078
F0000000F0
78000000F0
78000000F0
7C000001E0
3C000003E0
3E000007C0
1F00000F80
0F80001F80
07E0003F00
03F801FE00
01FFFFF800
007FFFF000
001FFF8000
0000F80000
ENDCHAR
STARTCHAR 1EDE
ENCODING 7902
SWIDTH 800 0
DWIDTH 40 0
BBX 37 48 2 -1
BITMAP
0000700000
0000300000
0000700000
0000700000
0000600000
0000E00000
0000E00000
0000E00700
0000600700
0000000700
0000000700
0001F80E00
001FFFBE00
007FFFF800
01FFFFF800
03F801FC00
07E0003F00
0F80001F80
1F00000F80
3E000007C0
3C000003E0
7C000001E0
78000000F0
78000000F0
F0000000F0
F000000078
F000000078
E000000078
E000000078
E000000078
E000000078
E000000078
F000000078
F000000078
F0000000F0
78000000F0
78000000F0
7C000001E0
3C000003E0
3E000007C0
1F00000F80
0F80001F80
07E0003F00
03F801FE00
01FFFFF800
007FFFF000
001FFF8000
0000F80000
ENDCHAR
STARTCHAR 1EDF
ENCODING 7903
SWIDTH 800 0
DWIDTH 40 0
BBX 37 48 2 -1
BITMAP
0000700000
0000300000
0000700000
0000700000
0000600000
0000E00000
0000E00000
0000E00700
0000600700
0000000700
0000000700
0001F80E00
001FFFBE00
007FFFF800
01FFFFF800
03F801FC00
07E0003F00
0F80001F80
1F00000F80
3E000007C0
3C000003E0
7C000001E0
78000000F0
78000000F0
F0000000F0
F000000078
F000000078
E000000078
E000000078
E000000078
E000000078
E000000078
F000000078
F000000078
F0000000F0
78000000F0
78000000F0
7C000001E0
3C000003E0
3E000007C0
1F00000F80
0F80001F80
07E0003F00
03F801FE00
01FFFFF800
007FFFF000
001FFF8000
0000F80000
ENDCHAR
STARTCHAR 1EE0
ENCODING 7904
SWIDTH 800 0
DWIDTH 40 0
BBX 37 45 2 -1
BITMAP
000F800000
000FFF0000
000FFF0000
00003C0000
0000000700
0000000700
0000000700
0000000700
0001F80E00
001FFFBE00
007FFFF800
01FFFFF800
03F801FC00
07E0003F00
0F80001F80
1F00000F80
3E000007C0
3C000003E0
7C000001E0
78000000F0
78000000F0
F0000000F0
F000000078
F000000078
E000000078
E000000078
E000000078
E000000078
E000000078
F000000078
F000000078
F0000000F0
78000000F0
78000000F0
7C000001E0
3C000003E0
3E000007C0
1F00000F80
0F80001F80
07E0003F00
03F801FE00
01FFFFF800
007FFFF000
001FFF8000
0000F80000
ENDCHAR
STARTCHAR 1EE1
ENCODING 7905
SWIDTH 800 0
DWIDTH 40 0
BBX 37 45 2 -1
BITMAP
000F800000
000FFF0000
000FFF0000
00003C0000
0000000700
0000000700
0000000700
0000000700
0001F80E00
001FFFBE00
007FFFF800
01FFFFF800
03F801FC00
07E0003F00
0F80001F80
1F00000F80
3E000007C0
3C000003E0
7C000001E0
78000000F0
78000000F0
F0000000F0
F000000078
F000000078
E000000078
E000000078
E000000078
E000000078
E000000078
F000000078
F000000078
F0000000F0
78000000F0
78000000F0
7C000001E0
3C000003E0
3E000007C0
1F00000F80
0F80001F80
07E0003F00
03F801FE00
01FFFFF800
007FFFF000
001FFF8000
0000F80000
ENDCHAR
STARTCHAR 1EE2
ENCODING 7906
SWIDTH 800 0
DWIDTH 40 0
BBX 37 53 2 -13
BITMAP
0000000700
0000000700
0000000700
0000000700
0001F80E00
001FFFBE00
007FFFF800
01FFFFF800
03F801FC00
07E0003F00
0F80001F80
1F00000F80
3E000007C0
3C000003E0
7C000001E0
78000000F0
78000000F0
F0000000F0
F000000078
F000000078
E000000078
E000000078
E000000078
E000000078
E000000078
F000000078
F000000078
F0000000F0
78000000F0
78000000F0
7C000001E0
3C000003E0
3E000007C0
1F00000F80
0F80001F80
07E0003F00
03F801FE00
01FFFFF800
007FFFF000
001FFF8000
0000F80000
0000000000
0000000000
0000000000
0000000000
0000000000
0000000000
0000F80000
0001F80000
0001FC0000
0001FC0000
0001F80000
0000F80000
ENDCHAR
STARTCHAR 1EE3
ENCODING 7907
SWIDTH 800 0
DWIDTH 40 0
BBX 37 53 2 -13
BITMAP
0000000700
0000000700
0000000700
0000000700
0001F80E00
001FFFBE00
007FFFF800
01FFFFF800
03F801FC00
07E0003F00
0F80001F80
1F00000F80
3E000007C0
3C000003E0
7C000001E0
78000000F0
78000000F0
F0000000F0
F000000078
F000000078
E000000078
E000000078
E000000078
E000000078
E000000078
F000000078
F000000078
F0000000F0
78000000F0
78000000F0
7C000001E0
3C000003E0
3E000007C0
1F00000F80
0F80001F80
07E0003F00
03F801FE00
01FFFFF800
007FFFF000
001FFF8000
0000F80000
0000000000
0000000000
0000000000
0000000000
0000000000
0000000000
0000F80000
0001F80000
0001FC0000
0001FC0000
0001F80000
0000F80000
ENDCHAR
STARTCHAR 1EE4
ENCODING 7908
SWIDTH 480 0
DWIDTH 24 0
BBX 21 48 2 -13
BITMAP
F00078
F00078
F00078
F00078
F00078
F00078
F00078
F00078
F00078
F00078
F00078
F00078
F00078
F00078
F00078
F00078
F00078
F00078
F00078
F00078
F00078
F00078
F00078
F00078
F00078
F00078
F00078
F000F0
7800F0
7800F0
3C01E0
3E07E0
1FFFC0
0FFF80
07FE00
00F800
000000
000000
000000
000000
000000
000000
00F800
01FC00
01FC00
01FC00
01FC00
00F800
ENDCHAR
STARTCHAR 1EE5
ENCODING 7909
SWIDTH 480 0
DWIDTH 24 0
BBX 21 48 2 -13
BITMAP
F00078
F00078
F00078
F00078
F00078
F00078
F00078
F00078
F00078
F00078
F00078
F00078
F00078
F00078
F00078
F00078
F00078
F00078
F00078
F00078
F00078
F00078
F00078
F00078
F00078
F00078
F00078
F000F0
7800F0
7800F0
3C01E0
3E07E0
1FFFC0
0FFF80
07FE00
00F800
000000
000000
000000
000000
000000
000000
00F800
01FC00
01FC00
01FC00
01FC00
00F800
ENDCHAR
STARTCHAR 1EE6
ENCODING 7910
SWIDTH 480 0
DWIDTH 24 0
BBX 21 48 2 -1
BITMAP
007000
003000
003000
007000
006000
00E000
00E000
006000
006000
000000
000000
000000
F00078
F00078
F00078
F00078
F00078
F00078
F00078
F00078
F00078
F00078
F00078
F00078
F00078
F00078
F00078
F00078
F00078
F00078
F00078
F00078
F00078
F00078
F00078
F00078
F00078
F00078
F00078
F000F0
7800F0
7800F0
3C01E0
3E07E0
1FFFC0
0FFF80
07FE00
00F800
ENDCHAR
STARTCHAR 1EE7
ENCODING 7911
SWIDTH 480 0
DWIDTH 24 0
BBX 21 48 2 -1
BITMAP
007000
003000
003000
007000
006000
00E000
00E000
006000
006000
000000
000000
000000
F00078
F00078
F00078
F00078
F00078
F00078
F00078
F00078
F00078
F00078
F00078
F00078
F00078
F00078
F00078
F00078
F00078
F00078
F00078
F00078
F00078
F00078
F00078
F00078
F00078
F00078
F00078
F000F0
7800F0
7800F0
3C01E0
3E07E0
1FFFC0
0FFF80
07FE00
00F800
ENDCHAR
STARTCHAR 1EE8
ENCODING 7912
SWIDTH 480 0
DWIDTH 24 0
BBX 24 46 2 -1
BITMAP
000F00
001E00
001C00
003800
003800
007007
00E007
000007
000007
00000E
F0007E
F00078
F00078
F00078
F00078
F00078
F00078
F00078
F00078
F00078
F00078
F00078
F00078
F00078
F00078
F00078
F00078
F00078
F00078
F00078
F00078
F00078
F00078
F00078
F00078
F00078
F00078
F000F0
7800F0
7800F0
3C01E0
3E07E0
1FFFC0
0FFF80
07FE00
00F800
ENDCHAR
STARTCHAR 1EE9
ENCODING 7913
SWIDTH 480 0
DWIDTH 24 0
BBX 24 46 2 -1
BITMAP
000F00
001E00
001C00
003800
003800
007007
00E007
000007
000007
00000E
F0007E
F00078
F00078
F00078
F00078
F00078
F00078
F00078
F00078
F00078
F00078
F00078
F00078
F00078
F00078
F00078
F00078
F00078
F00078
F00078
F00078
F00078
F00078
F00078
F00078
F00078
F00078
F000F0
7800F0
7800F0
3C01E0
3E07E0
1FFFC0
0FFF80
07FE00
00F800
ENDCHAR
STARTCHAR 1EEA
ENCODING 7914
SWIDTH 480 0
DWIDTH 24 0
BBX 24 46 2 -1
BITMAP
078000
038000
01C000
01E000
00E000
007007
003007
000007
000007
00000E
F0007E
F00078
F00078
F00078
F00078
F00078
F00078
F00078
F00078
F00078
F00078
F00078
F00078
F00078
F00078
F00078
F00078
F00078
F00078
F00078
F00078
F00078
F00078
F00078
F00078
F00078
F00078
F000F0
7800F0
7800F0
3C01E0
3E07E0
1FFFC0
0FFF80
07FE00
00F800
ENDCHAR
STARTCHAR 1EEB
ENCODING 7915
SWIDTH 480 0
DWIDTH 24 0
BBX 24 46 2 -1
BITMAP
078000
038000
01C000
01E000
00E000
007007
003007
000007
000007
00000E
F0007E
F00078
F00078
F00078
F00078
F00078
F00078
F00078
F00078
F00078
F00078
F00078
F00078
F00078
F00078
F00078
F00078
F00078
F00078
F00078
F00078
F00078
F00078
F00078
F00078
F00078
F00078
F000F0
7800F0
7800F0
3C01E0
3E07E0
1FFFC0
0FFF80
07FE00
00F800
ENDCHAR
STARTCHAR 1EEC
ENCODING 7916
SWIDTH 480 0
DWIDTH 24 0
BBX 24 48 2 -1
BITMAP
007000
003000
003000
007000
006000
00E000
00E000
006007
006007
000007
000007
00000E
F0007E
F00078
F00078
F00078
F00078
F00078
F00078
F00078
F00078
F00078
F00078
F00078
F00078
F00078
F00078
F00078
F00078
F00078
F00078
F00078
F00078
F00078
F00078
F00078
F00078
F00078
F00078
F000F0
7800F0
7800F0
3C01E0
3E07E0
1FFFC0
0FFF80
07FE00
00F800
ENDCHAR
STARTCHAR 1EED
ENCODING 7917
SWIDTH 480 0
DWIDTH 24 0
BBX 24 48 2 -1
BITMAP
007000
003000
003000
007000
006000
00E000
00E000
006007
006007
000007
000007
00000E
F0007E
F00078
F00078
F00078
F00078
F00078
F00078
F00078
F00078
F00078
F00078
F00078
F00078
F00078
F00078
F00078
F00078
F00078
F00078
F00078
F00078
F00078
F00078
F00078
F00078
F00078
F00078
F000F0
7800F0
7800F0
3C01E0
3E07E0
1FFFC0
0FFF80
07FE00
00F800
ENDCHAR
STARTCHAR 1EEE
ENCODING 7918
SWIDTH 480 0
DWIDTH 24 0
BBX 24 45 2 -1
BITMAP
0F8000
0FFF00
0FFF00
001C00
000007
000007
000007
000007
00000E
F0007E
F00078
F00078
F00078
F00078
F00078
F00078
F00078
F00078
F00078
F00078
F00078
F00078
F00078
F00078
F00078
F00078
F00078
F00078
F00078
F00078
F00078
F00078
F00078
F00078
F00078
F00078
F000F0
7800F0
7800F0
3C01E0
3E07E0
1FFFC0
0FFF80
07FE00
00F800
ENDCHAR
STARTCHAR 1EEF
ENCODING 7919
SWIDTH 480 0
DWIDTH 24 0
BBX 24 45 2 -1
BITMAP
0F8000
0FFF00
0FFF00
001C00
000007
000007
000007
000007
00000E
F0007E
F00078
F00078
F00078
F00078
F00078
F00078
F00078
F00078
F00078
F00078
F00078
F00078
F00078
F00078
F00078
F00078
F00078
F00078
F00078
F00078
F00078
F00078
F00078
F00078
F00078
F00078
F000F0
7800F0
7800F0
3C01E0
3E07E0
1FFFC0
0FFF80
07FE00
00F800
ENDCHAR
STARTCHAR 1EF0
ENCODING 7920
SWIDTH 480 0
DWIDTH 24 0
BBX 24 53 2 -13
BITMAP
000007
000007
000007
000007
00000E
F0007E
F00078
F00078
F00078
F00078
F00078
F00078
F00078
F00078
F00078
F00078
F00078
F00078
F00078
F00078
F00078
F00078
F00078
F00078
F00078
F00078
F00078
F00078
F00078
F00078
F00078
F00078
F000F0
7800F0
7800F0
3C01E0
3E07E0
1FFFC0
0FFF80
07FE00
00F800
000000
000000
000000
000000
000000
000000
00F800
01FC00
01FC00
01FC00
01FC00
00F800
ENDCHAR
STARTCHAR 1EF1
ENCODING 7921
SWIDTH 480 0
DWIDTH 24 0
BBX 24 53 2 -13
BITMAP
000007
000007
000007
000007
00000E
F0007E
F00078
F00078
F00078
F00078
F00078
F00078
F00078
F00078
F00078
F00078
F00078
F00078
F00078
F00078
F00078
F00078
F00078
F00078
F00078
F00078
F00078
F00078
F00078
F00078
F00078
F00078
F000F0
7800F0
7800F0
3C01E0
3E07E0
1FFFC0
0FFF80
07FE00
00F800
000000
000000
000000
000000
000000
000000
00F800
01FC00
01FC00
01FC00
01FC00
00F800
ENDCHAR
STARTCHAR 1EF2
ENCODING 7922
SWIDTH 480 0
DWIDTH 24 0
BBX 21 45 2 0
BITMAP
070000
038000
03C000
01C000
00E000
007000
007000
000000
000000
000000
F00078
F00078
F00078
F00078
F00078
F00078
F00078
F00078
F00078
F00078
F00078
F00078
F00078
F00078
F00078
F00070
F00070
F000F0
F000F0
F000F0
7801E0
7C01E0
3E07C0
1FFFC0
0FFF80
07FE00
00F000
00F000
00F000
00F000
00F000
00F000
00F000
00F000
00F000
ENDCHAR
STARTCHAR 1EF3
ENCODING 7923
SWIDTH 480 0
DWIDTH 24 0
BBX 21 45 2 0
BITMAP
070000
038000
03C000
01C000
00E000
007000
007000
000000
000000
000000
F00078
F00078
F00078
F00078
F00078
F00078
F00078
F00078
F00078
F00078
F00078
F00078
F00078
F00078
F00078
F00070
F00070
F000F0
F000F0
F000F0
7801E0
7C01E0
3E07C0
1FFFC0
0FFF80
07FE00
00F000
00F000
00F000
00F000
00F000
00F000
00F000
00F000
00F000
ENDCHAR
STARTCHAR 1EF4
ENCODING 7924
SWIDTH 480 0
DWIDTH 24 0
BBX 21 48 2 -13
BITMAP
F00078
F00078
F00078
F00078
F00078
F00078
F00078
F00078
F00078
F00078
F00078
F00078
F00078
F00078
F00078
F00070
F00070
F000F0
F000F0
F000F0
7801E0
7C01E0
3E07C0
1FFFC0
0FFF80
07FE00
00F000
00F000
00F000
00F000
00F000
00F000
00F000
00F000
00F000
000000
000000
000000
000000
000000
000000
000000
00F800
01F800
01FC00
01FC00
01F800
00F000
ENDCHAR
STARTCHAR 1EF5
ENCODING 7925
SWIDTH 480 0
DWIDTH 24 0
BBX 21 48 2 -13
BITMAP
F00078
F00078
F00078
F00078
F00078
F00078
F00078
F00078
F00078
F00078
F00078
F00078
F00078
F00078
F00078
F00070
F00070
F000F0
F000F0
F000F0
7801E0
7C01E0
3E07C0
1FFFC0
0FFF80
07FE00
00F000
00F000
00F000
00F000
00F000
00F000
00F000
00F000
00F000
000000
000000
000000
000000
000000
000000
000000
00F800
01F800
01FC00
01FC00
01F800
00F000
ENDCHAR
STARTCHAR 1EF6
ENCODING 7926
SWIDTH 480 0
DWIDTH 24 0
BBX 21 47 2 0
BITMAP
007000
007000
007000
007000
006000
00E000
00E000
00E000
006000
000000
000000
000000
F00078
F00078
F00078
F00078
F00078
F00078
F00078
F00078
F00078
F00078
F00078
F00078
F00078
F00078
F00078
F00070
F00070
F000F0
F000F0
F000F0
7801E0
7C01E0
3E07C0
1FFFC0
0FFF80
07FE00
00F000
00F000
00F000
00F000
00F000
00F000
00F000
00F000
00F000
ENDCHAR
STARTCHAR 1EF7
ENCODING 7927
SWIDTH 480 0
DWIDTH 24 0
BBX 21 47 2 0
BITMAP
007000
007000
007000
007000
006000
00E000
00E000
00E000
006000
000000
000000
000000
F00078
F00078
F00078
F00078
F00078
F00078
F00078
F00078
F00078
F00078
F00078
F00078
F00078
F00078
F00078
F00070
F00070
F000F0
F000F0
F000F0
7801E0
7C01E0
3E07C0
1FFFC0
0FFF80
07FE00
00F000
00F000
00F000
00F000
00F000
00F000
00F000
00F000
00F000
ENDCHAR
STARTCHAR 1EF8
ENCODING 7928
SWIDTH 480 0
DWIDTH 24 0
BBX 21 44 2 0
BITMAP
0F8000
1FFE00
1FFE00
003C00
000000
000000
000000
000000
000000
F00078
F00078
F00078
F00078
F00078
F00078
F00078
F00078
F00078
F00078
F00078
F00078
F00078
F00078
F00078
F00070
F00070
F000F0
F000F0
F000F0
7801E0
7C01E0
3E07C0
1FFFC0
0FFF80
07FE00
00F000
00F000
00F000
00F000
00F000
00F000
00F000
00F000
00F000
ENDCHAR
STARTCHAR 1EF9
ENCODING 7929
SWIDTH 480 0
DWIDTH 24 0
BBX 21 44 2 0
BITMAP
0F8000
1FFE00
1FFE00
003C00
000000
000000
000000
000000
000000
F00078
F00078
F00078
F00078
F00078
F00078
F00078
F00078
F00078
F00078
F00078
F00078
F00078
F00078
F00078
F00070
F00070
F000F0
F000F0
F000F0
7801E0
7C01E0
3E07C0
1FFFC0
0FFF80
07FE00
00F000
00F000
00F000
00F000
00F000
00F000
00F000
00F000
00F000
ENDCHAR
STARTCHAR 2013
ENCODING 8211
SWIDTH 560 0
DWIDTH 28 0
BBX 23 3 3 12
BITMAP
FFFFFE
FFFFFE
FFFFFE
ENDCHAR
STARTCHAR 2014
ENCODING 8212
SWIDTH 780 0
DWIDTH 39 0
BBX 34 3 3 12
BITMAP
FFFFFFFFC0
FFFFFFFFC0
FFFFFFFFC0
ENDCHAR
STARTCHAR 2018
ENCODING 8216
SWIDTH 220 0
DWIDTH 11 0
BBX 5 10 3 25
BITMAP
18
18
38
38
38
70
70
F0
F0
F0
ENDCHAR
STARTCHAR 2019
ENCODING 8217
SWIDTH 220 0
DWIDTH 11 0
BBX 5 10 3 25
BITMAP
78
78
78
70
70
F0
E0
E0
C0
C0
ENDCHAR
STARTCHAR 201A
ENCODING 8218
SWIDTH 220 0
DWIDTH 11 0
BBX 5 10 3 -6
BITMAP
78
78
78
70
70
F0
E0
E0
E0
C0
ENDCHAR
STARTCHAR 201C
ENCODING 8220
SWIDTH 380 0
DWIDTH 19 0
BBX 14 10 3 25
BITMAP
1C1C
1C1C
1C18
3838
3838
3878
7878
7870
F0F0
F0F0
ENDCHAR
STARTCHAR 201D
ENCODING 8221
SWIDTH 380 0
DWIDTH 19 0
BBX 13 10 3 25
BITMAP
7878
7878
7878
7070
7070
F0F0
E0E0
E0E0
C0C0
C0C0
ENDCHAR
STARTCHAR 201E
ENCODING 8222
SWIDTH 400 0
DWIDTH 20 0
BBX 14 10 3 -6
BITMAP
783C
783C
783C
7038
7038
F078
E070
E070
E060
C060
ENDCHAR
STARTCHAR 2020
ENCODING 8224
SWIDTH 400 0
DWIDTH 20 0
BBX 15 24 3 12
BITMAP
0380
0380
0380
0380
0380
FFFE
FFFE
FFFE
0380
0380
0380
0380
0380
0380
0380
0380
0380
0380
0380
0380
0380
0380
0380
0380
ENDCHAR
STARTCHAR 2021
ENCODING 8225
SWIDTH 400 0
DWIDTH 20 0
BBX 15 24 3 12
BITMAP
0380
0380
0380
0380
0380
FFFE
FFFE
FFFE
0380
0380
0380
0380
0380
0380
0380
FFFE
FFFE
FFFE
0380
0380
0380
0380
0380
0380
ENDCHAR
STARTCHAR 2022
ENCODING 8226
SWIDTH 300 0
DWIDTH 15 0
BBX 10 10 3 9
BITMAP
1C00
7F00
FF80
FFC0
FFC0
FFC0
FFC0
FF80
7F80
3F00
ENDCHAR
STARTCHAR 2026
ENCODING 8230
SWIDTH 640 0
DWIDTH 32 0
BBX 27 7 3 -1
BITMAP
781E0780
FC3F0FC0
FC3F8FE0
FE3F8FE0
FC3F0FC0
7C1F07C0
00080000
ENDCHAR
STARTCHAR 2030
ENCODING 8240
SWIDTH 1240 0
DWIDTH 62 0
BBX 57 36 3 0
BITMAP
0080000000000000
0FF0000F00000000
3FFC000E00000000
7E7E001C00000000
781E003C00000000
F00F003800000000
E007007000000000
E00700F000000000
E00781E000000000
E00781C000000000
E007038000000000
E007078000000000
F00F070000000000
781E0E0000000000
3FFC1E0000000000
1FF81C0000000000
07E0380000000000
0000780000000000
0000F00000000000
0000E00000000000
0001C07F0007F000
0003C1FF801FF800
000383FFE03FFE00
000707C1E07C1E00
000F0700F0700F00
000E0F0070F00700
001C0E0078E00780
003C0E0078E00780
00780E0078E00780
00700E0078E00780
00E00F0070F00700
01E00F00F0F00F00
01C00781F0781F00
038003FFE03FFE00
078001FFC01FFC00
070000FF000FF000
ENDCHAR
STARTCHAR 2039
ENCODING 8249
SWIDTH 340 0
DWIDTH 17 0
BBX 12 22 3 4
BITMAP
01E0
01C0
03C0
0780
0F00
0E00
1E00
3C00
7800
7000
F000
F000
7800
3C00
3C00
1E00
0F00
0780
0380
03C0
01E0
00F0
ENDCHAR
STARTCHAR 203A
ENCODING 8250
SWIDTH 340 0
DWIDTH 17 0
BBX 12 22 3 4
BITMAP
F000
7800
3C00
3C00
1E00
0F00
0780
0780
03C0
01E0
00F0
01E0
01C0
03C0
0780
0F00
0E00
1E00
3C00
7800
F000
E000
ENDCHAR
STARTCHAR 2044
ENCODING 8260
SWIDTH 640 0
DWIDTH 32 0
BBX 27 35 3 0
BITMAP
000000E0
000001C0
000003C0
00000380
00000700
00000F00
00001E00
00001C00
00003800
00007800
00007000
0000E000
0001E000
0001C000
00038000
00078000
000F0000
000E0000
001C0000
003C0000
00380000
00700000
00F00000
00E00000
01C00000
03C00000
07800000
07000000
0E000000
1E000000
1C000000
38000000
78000000
70000000
E0000000
ENDCHAR
STARTCHAR 20AC
ENCODING 8364
SWIDTH 640 0
DWIDTH 32 0
BBX 27 36 3 0
BITMAP
0000FFE0
0003FFE0
000FFFE0
001FE060
007F0000
00FC0000
00F80000
01F00000
03E00000
03C00000
07800000
07800000
07800000
FFFFFC00
FFFFFC00
FFFFFC00
0F000000
0F000000
0F000000
FFFFFC00
FFFFFC00
FFFFFC00
07800000
07800000
07800000
03C00000
03E00000
01F00000
00F80000
00FC0000
007F0000
001FE060
000FFFE0
0003FFE0
0000FFE0
00000600
ENDCHAR
STARTCHAR 2122
ENCODING 8482
SWIDTH 760 0
DWIDTH 38 0
BBX 33 20 3 16
BITMAP
FFF0000000
FFFC030380
FFFE03C380
0E1F83E380
0E07C3FB80
0E07F3FF80
0E07FB9F80
0E073F8F80
0E071F8380
0E07078380
0E07038380
0E07038380
0E07038380
0E07038380
0E07038380
0E07038380
0E07038380
0E07038380
0E07038380
0E07038380
ENDCHAR
STARTCHAR 2190
ENCODING 8592
SWIDTH 820 0
DWIDTH 41 0
BBX 36 22 3 7
BITMAP
0030000000
0078000000
00F0000000
01E0000000
03C0000000
0780000000
0F00000000
1E00000000
3C00000000
7FFFFFFFF0
FFFFFFFFF0
FFFFFFFFF0
7FFFFFFFF0
3C00000000
1E00000000
0F00000000
0780000000
03C0000000
01E0000000
00F0000000
0078000000
0030000000
ENDCHAR
STARTCHAR 2191
ENCODING 8593
SWIDTH 560 0
DWIDTH 28 0
BBX 23 36 3 0
BITMAP
001000
003800
007C00
00FE00
01FF00
03FF80
07FFC0
0F7BE0
1E79F0
3C78F8
78787C
F0783E
60781C
007808
007800
007800
007800
007800
007800
007800
007800
007800
007800
007800
007800
007800
007800
007800
007800
007800
007800
007800
007800
007800
007800
007800
ENDCHAR
STARTCHAR 2192
ENCODING 8594
SWIDTH 820 0
DWIDTH 41 0
BBX 35 22 3 7
BITMAP
0000018000
000003C000
000001E000
000000F000
0000007800
0000003C00
0000001E00
0000000F00
0000000780
FFFFFFFFC0
FFFFFFFFE0
FFFFFFFFE0
FFFFFFFFC0
0000000780
0000000F00
0000001E00
0000003C00
0000007800
000000F000
000001E000
000003C000
0000018000
ENDCHAR
STARTCHAR 2193
ENCODING 8595
SWIDTH 560 0
DWIDTH 28 0
BBX 23 36 3 -1
BITMAP
007800
007800
007800
007800
007800
007800
007800
007800
007800
007800
007800
007800
007800
007800
007800
007800
007800
007800
007800
007800
007800
007800
007808
60781C
F0783E
78787C
3C78F8
1E79F0
0F7BE0
07FFC0
03FF80
01FF00
00FE00
007C00
003800
001000
ENDCHAR
STARTCHAR 2194
ENCODING 8596
SWIDTH 860 0
DWIDTH 43 0
BBX 38 22 3 7
BITMAP
0030003000
0078007800
00F0007C00
01E0003E00
03C0001F00
0780000F80
0F000007C0
1E000003E0
3C000001F0
7FFFFFFFF8
FFFFFFFFFC
FFFFFFFFFC
7FFFFFFFF8
3C000001F0
1E000003E0
0F000007C0
0780000F80
03C0001F00
01E0003E00
00F0007C00
0078007800
0030003000
ENDCHAR
STARTCHAR 2195
ENCODING 8597
SWIDTH 580 0
DWIDTH 29 0
BBX 24 37 3 -1
BITMAP
001800
003C00
007E00
00FF00
01FF80
07FFC0
0FBDE0
1F3CF8
3E3C7C
783C3E
F03C0F
E03C06
403C02
003C00
003C00
003C00
003C00
003C00
003C00
003C00
003C00
003C00
003C00
003C00
403C02
E03C07
F03C0F
783C3E
3E3C7C
1F3CF8
0FBDE0
07FFC0
01FF80
00FF00
007E00
003C00
001000
ENDCHAR
STARTCHAR 2196
ENCODING 8598
SWIDTH 620 0
DWIDTH 31 0
BBX 26 27 3 4
BITMAP
FFFF0000
FFFF0000
FFFF0000
F8000000
FC000000
FE000000
EF000000
E7800000
E3C00000
E1E00000
E0F00000
E0780000
E03C0000
E01E0000
E01F0000
E00F8000
E007C000
0003E000
0001F000
0000F800
00007C00
00003E00
00001F00
00000F80
000007C0
00000380
00000100
ENDCHAR
STARTCHAR 2197
ENCODING 8599
SWIDTH 620 0
DWIDTH 31 0
BBX 26 26 3 4
BITMAP
003FFFC0
003FFFC0
003FFFC0
000007C0
00000FC0
00001FC0
00003DC0
000079C0
0000F1C0
0001E1C0
0003C1C0
000781C0
000F01C0
001E01C0
003C01C0
007801C0
00F001C0
01E00000
03C00000
07800000
0F000000
1E000000
3C000000
78000000
F0000000
60000000
ENDCHAR
STARTCHAR 2198
ENCODING 8600
SWIDTH 620 0
DWIDTH 31 0
BBX 26 26 3 5
BITMAP
60000000
F0000000
F8000000
7C000000
3E000000
1F000000
0F800000
07C00000
03E00000
01F00000
00F801C0
007C01C0
003E01C0
001F01C0
000F81C0
0007C1C0
0003E1C0
0001F1C0
0000F9C0
00007DC0
00003FC0
00001FC0
00000FC0
003FFFC0
003FFFC0
003FFFC0
ENDCHAR
STARTCHAR 2199
ENCODING 8601
SWIDTH 620 0
DWIDTH 31 0
BBX 26 26 3 5
BITMAP
00000180
000003C0
00000780
00000F00
00001E00
00003C00
00007800
0000F000
0001E000
0003C000
E0078000
E00F0000
E01E0000
E03C0000
E0780000
E0F00000
E1E00000
E3C00000
E7800000
EF000000
FE000000
FC000000
F8000000
FFFF0000
FFFF0000
FFFF0000
ENDCHAR
STARTCHAR 2202
ENCODING 8706
SWIDTH 540 0
DWIDTH 27 0
BBX 22 37 3 0
BITMAP
030000
07C000
07F000
03F800
00FC00
007E00
001F00
000F80
0007C0
0003E0
0001E0
0000F0
0000F0
000078
01F878
07FF38
0FFFBC
1FFFFC
3E01FC
7C00FC
78007C
F8003C
F0003C
F0003C
F0003C
E0003C
E0003C
F00078
F00078
F000F8
F800F0
7C01E0
7E07E0
3FFFC0
1FFF00
07FE00
01F000
ENDCHAR
STARTCHAR 2205
ENCODING 8709
SWIDTH 700 0
DWIDTH 35 0
BBX 30 30 3 3
BITMAP
001FE008
00FFFC1C
03F87E38
07800FF0
0F0003E0
1C0001E0
380003F0
38000770
70000E38
60001C38
E0003818
E000701C
C000E01C
C001C01C
C003800C
C007000C
C00E001C
C01C001C
E038001C
E0700018
60E00038
71C00038
3B800070
3F0000F0
1E0001E0
1F0003C0
3FC00F80
73F87F00
E0FFFC00
C01FE000
ENDCHAR
STARTCHAR 220F
ENCODING 8719
SWIDTH 580 0
DWIDTH 29 0
BBX 24 41 3 -5
BITMAP
FFFFFF
FFFFFF
FFFFFF
1C0078
1C0078
1C0078
1C0078
1C0078
1C0078
1C0078
1C0078
1C0078
1C0078
1C0078
1C0078
1C0078
1C0078
1C0078
1C0078
1C0078
1C0078
1C0078
1C0078
1C0078
1C0078
1C0078
1C0078
1C0078
1C0078
1C0078
1C0078
1C0078
1C0078
1C0078
1C0078
1C0078
1C0078
1C0078
1C0078
1C0078
1C0078
ENDCHAR
STARTCHAR 2211
ENCODING 8721
SWIDTH 460 0
DWIDTH 23 0
BBX 18 41 3 -5
BITMAP
FFFFC0
FFFFC0
FFFFC0
F00000
F00000
780000
780000
3C0000
1C0000
1E0000
0E0000
0F0000
078000
078000
03C000
03C000
01E000
00E000
00F000
007000
007800
007000
00F000
00E000
01E000
03C000
03C000
078000
078000
0F0000
0E0000
1E0000
1C0000
3C0000
780000
780000
F00000
F00000
FFFFC0
FFFFC0
FFFFC0
ENDCHAR
STARTCHAR 2212
ENCODING 8722
SWIDTH 540 0
DWIDTH 27 0
BBX 22 3 3 15
BITMAP
FFFFFC
FFFFFC
FFFFFC
ENDCHAR
STARTCHAR 221A
ENCODING 8730
SWIDTH 640 0
DWIDTH 32 0
BBX 27 41 3 -5
BITMAP
00007FE0
00007FE0
00007FE0
0000F000
0000F000
0000E000
0000E000
0001E000
0001E000
0001C000
0001C000
0003C000
00038000
00038000
00078000
00078000
00070000
00070000
000F0000
000F0000
000E0000
E01E0000
F01E0000
F01C0000
701C0000
783C0000
783C0000
38380000
3C380000
3C780000
1C700000
1C700000
1EF00000
1EF00000
0EE00000
0FE00000
0FE00000
07C00000
07C00000
07C00000
03C00000
ENDCHAR
STARTCHAR 221E
ENCODING 8734
SWIDTH 780 0
DWIDTH 39 0
BBX 34 16 3 10
BITMAP
038000F000
1FF007FC00
3FFC0FFE00
783E1E0F00
F00F3C0780
E007F80380
E003F00380
E003E001C0
E001E001C0
E003E001C0
E007F00380
F00F780380
781E3C0700
7FFC1FFF00
1FF807FE00
0FE003F800
ENDCHAR
STARTCHAR 222B
ENCODING 8747
SWIDTH 480 0
DWIDTH 24 0
BBX 19 41 3 -6
BITMAP
0001E0
0007E0
000FE0
001F00
001E00
003C00
003C00
003800
003800
007800
007800
007800
007000
007000
007000
00F000
00F000
00E000
00E000
00E000
01E000
01E000
01C000
01C000
01C000
01C000
03C000
03C000
038000
038000
038000
078000
078000
078000
070000
070000
0F0000
1E0000
3E0000
FC0000
F80000
ENDCHAR
STARTCHAR 2248
ENCODING 8776
SWIDTH 520 0
DWIDTH 26 0
BBX 21 15 3 9
BITMAP
7E0000
FFF008
FFFFF8
E7FFF8
001FF8
000000
000000
000000
000000
000000
7E0000
FFF008
FFFFF8
E7FFF8
001FF8
ENDCHAR
STARTCHAR 2260
ENCODING 8800
SWIDTH 540 0
DWIDTH 27 0
BBX 22 23 3 5
BITMAP
000700
000F00
000E00
000E00
001E00
FFFFFC
FFFFFC
FFFFFC
003800
007800
007000
007000
00F000
00E000
01E000
FFFFFC
FFFFFC
FFFFFC
038000
038000
078000
070000
070000
ENDCHAR
STARTCHAR 2264
ENCODING 8804
SWIDTH 540 0
DWIDTH 27 0
BBX 22 20 3 6
BITMAP
000004
00007C
0007FC
007FF8
07FF80
7FF800
FF8000
F00000
FF0000
FFF000
0FFF00
00FFF0
000FFC
0000FC
00000C
000000
000000
000000
FFFFFC
FFFFFC
ENDCHAR
STARTCHAR 2265
ENCODING 8805
SWIDTH 540 0
DWIDTH 27 0
BBX 22 19 3 7
BITMAP
F00000
FF0000
FFF000
0FFF00
007FF0
0007FC
00007C
0003FC
003FFC
03FFC0
3FFC00
FFC000
FC0000
C00000
000000
000000
000000
FFFFFC
FFFFFC
ENDCHAR
STARTCHAR 25CA
ENCODING 9674
SWIDTH 460 0
DWIDTH 23 0
BBX 18 28 3 4
BITMAP
03E000
03F000
07F000
077800
0F3800
0E3C00
1E1C00
1C1E00
3C0E00
380F00
780700
700780
F00380
E003C0
E003C0
F00380
700780
780700
3C0F00
3C0E00
1E1E00
1E1C00
0F3C00
0F3800
07F000
07F000
03E000
03E000
ENDCHAR
ENDFONT
